%TF.GenerationSoftware,KiCad,Pcbnew,7.0.11-7.0.11~ubuntu22.04.1*%
%TF.CreationDate,2024-09-07T09:13:53-07:00*%
%TF.ProjectId,battery_pwr_brd_r3,62617474-6572-4795-9f70-77725f627264,rev?*%
%TF.SameCoordinates,Original*%
%TF.FileFunction,Copper,L1,Top*%
%TF.FilePolarity,Positive*%
%FSLAX46Y46*%
G04 Gerber Fmt 4.6, Leading zero omitted, Abs format (unit mm)*
G04 Created by KiCad (PCBNEW 7.0.11-7.0.11~ubuntu22.04.1) date 2024-09-07 09:13:53*
%MOMM*%
%LPD*%
G01*
G04 APERTURE LIST*
G04 Aperture macros list*
%AMRoundRect*
0 Rectangle with rounded corners*
0 $1 Rounding radius*
0 $2 $3 $4 $5 $6 $7 $8 $9 X,Y pos of 4 corners*
0 Add a 4 corners polygon primitive as box body*
4,1,4,$2,$3,$4,$5,$6,$7,$8,$9,$2,$3,0*
0 Add four circle primitives for the rounded corners*
1,1,$1+$1,$2,$3*
1,1,$1+$1,$4,$5*
1,1,$1+$1,$6,$7*
1,1,$1+$1,$8,$9*
0 Add four rect primitives between the rounded corners*
20,1,$1+$1,$2,$3,$4,$5,0*
20,1,$1+$1,$4,$5,$6,$7,0*
20,1,$1+$1,$6,$7,$8,$9,0*
20,1,$1+$1,$8,$9,$2,$3,0*%
G04 Aperture macros list end*
%TA.AperFunction,SMDPad,CuDef*%
%ADD10RoundRect,0.225000X0.225000X0.375000X-0.225000X0.375000X-0.225000X-0.375000X0.225000X-0.375000X0*%
%TD*%
%TA.AperFunction,SMDPad,CuDef*%
%ADD11RoundRect,0.250001X-0.462499X-0.624999X0.462499X-0.624999X0.462499X0.624999X-0.462499X0.624999X0*%
%TD*%
%TA.AperFunction,ComponentPad*%
%ADD12C,2.000000*%
%TD*%
%TA.AperFunction,SMDPad,CuDef*%
%ADD13RoundRect,0.250000X-0.337500X-0.475000X0.337500X-0.475000X0.337500X0.475000X-0.337500X0.475000X0*%
%TD*%
%TA.AperFunction,ComponentPad*%
%ADD14R,2.000000X4.600000*%
%TD*%
%TA.AperFunction,ComponentPad*%
%ADD15O,2.000000X4.200000*%
%TD*%
%TA.AperFunction,ComponentPad*%
%ADD16O,4.200000X2.000000*%
%TD*%
%TA.AperFunction,ComponentPad*%
%ADD17R,1.700000X1.700000*%
%TD*%
%TA.AperFunction,ComponentPad*%
%ADD18O,1.700000X1.700000*%
%TD*%
%TA.AperFunction,SMDPad,CuDef*%
%ADD19R,2.500000X1.000000*%
%TD*%
%TA.AperFunction,SMDPad,CuDef*%
%ADD20RoundRect,0.250000X0.475000X-0.337500X0.475000X0.337500X-0.475000X0.337500X-0.475000X-0.337500X0*%
%TD*%
%TA.AperFunction,SMDPad,CuDef*%
%ADD21RoundRect,0.150000X-0.587500X-0.150000X0.587500X-0.150000X0.587500X0.150000X-0.587500X0.150000X0*%
%TD*%
%TA.AperFunction,SMDPad,CuDef*%
%ADD22RoundRect,0.250000X0.450000X-0.350000X0.450000X0.350000X-0.450000X0.350000X-0.450000X-0.350000X0*%
%TD*%
%TA.AperFunction,ComponentPad*%
%ADD23C,3.600000*%
%TD*%
%TA.AperFunction,ConnectorPad*%
%ADD24C,5.700000*%
%TD*%
%TA.AperFunction,SMDPad,CuDef*%
%ADD25RoundRect,0.250000X-0.450000X0.350000X-0.450000X-0.350000X0.450000X-0.350000X0.450000X0.350000X0*%
%TD*%
%TA.AperFunction,SMDPad,CuDef*%
%ADD26RoundRect,0.250000X-0.350000X-0.450000X0.350000X-0.450000X0.350000X0.450000X-0.350000X0.450000X0*%
%TD*%
%TA.AperFunction,SMDPad,CuDef*%
%ADD27RoundRect,0.250001X0.462499X0.624999X-0.462499X0.624999X-0.462499X-0.624999X0.462499X-0.624999X0*%
%TD*%
%TA.AperFunction,SMDPad,CuDef*%
%ADD28RoundRect,0.250000X-0.475000X0.337500X-0.475000X-0.337500X0.475000X-0.337500X0.475000X0.337500X0*%
%TD*%
%TA.AperFunction,SMDPad,CuDef*%
%ADD29RoundRect,0.375000X-0.625000X-0.375000X0.625000X-0.375000X0.625000X0.375000X-0.625000X0.375000X0*%
%TD*%
%TA.AperFunction,SMDPad,CuDef*%
%ADD30RoundRect,0.500000X-0.500000X-1.400000X0.500000X-1.400000X0.500000X1.400000X-0.500000X1.400000X0*%
%TD*%
%TA.AperFunction,ComponentPad*%
%ADD31R,3.000000X3.000000*%
%TD*%
%TA.AperFunction,ComponentPad*%
%ADD32C,3.000000*%
%TD*%
%TA.AperFunction,SMDPad,CuDef*%
%ADD33RoundRect,0.150000X0.950000X0.150000X-0.950000X0.150000X-0.950000X-0.150000X0.950000X-0.150000X0*%
%TD*%
%TA.AperFunction,SMDPad,CuDef*%
%ADD34RoundRect,0.537500X0.537500X1.187500X-0.537500X1.187500X-0.537500X-1.187500X0.537500X-1.187500X0*%
%TD*%
%TA.AperFunction,ViaPad*%
%ADD35C,0.800000*%
%TD*%
%TA.AperFunction,Conductor*%
%ADD36C,0.250000*%
%TD*%
G04 APERTURE END LIST*
D10*
%TO.P,D4,1,K*%
%TO.N,Net-(D2-K)*%
X104722100Y-91806300D03*
%TO.P,D4,2,A*%
%TO.N,Net-(D4-A)*%
X101422100Y-91806300D03*
%TD*%
%TO.P,D2,1,K*%
%TO.N,Net-(D2-K)*%
X104722100Y-94606300D03*
%TO.P,D2,2,A*%
%TO.N,Net-(D2-A)*%
X101422100Y-94606300D03*
%TD*%
D11*
%TO.P,D1,1,K*%
%TO.N,Net-(D1-K)*%
X127334600Y-105006300D03*
%TO.P,D1,2,A*%
%TO.N,Net-(D1-A)*%
X130309600Y-105006300D03*
%TD*%
D12*
%TO.P,GND1,1,1*%
%TO.N,GND*%
X106019600Y-110566200D03*
%TD*%
D13*
%TO.P,C5,1*%
%TO.N,GND*%
X116811750Y-109587550D03*
%TO.P,C5,2*%
%TO.N,+3.3V*%
X118886750Y-109587550D03*
%TD*%
D14*
%TO.P,J1,1*%
%TO.N,Net-(SW1A-B)*%
X87189300Y-91083100D03*
D15*
%TO.P,J1,2*%
%TO.N,GND*%
X80889300Y-91083100D03*
D16*
%TO.P,J1,3*%
%TO.N,N/C*%
X84289300Y-95883100D03*
%TD*%
D17*
%TO.P,J2,1,Pin_1*%
%TO.N,GND*%
X129376500Y-100380800D03*
D18*
%TO.P,J2,2,Pin_2*%
%TO.N,+5V*%
X129376500Y-97840800D03*
%TD*%
D19*
%TO.P,SW1,1,A*%
%TO.N,unconnected-(SW1A-A-Pad1)*%
X90954600Y-95514800D03*
%TO.P,SW1,2,B*%
%TO.N,Net-(SW1A-B)*%
X90954600Y-93014800D03*
%TO.P,SW1,3,C*%
%TO.N,Net-(D2-A)*%
X90954600Y-90514800D03*
%TO.P,SW1,4,A*%
%TO.N,unconnected-(SW1B-A-Pad4)*%
X96954600Y-95514800D03*
%TO.P,SW1,5,B*%
%TO.N,Net-(BT1-+)*%
X96954600Y-93014800D03*
%TO.P,SW1,6,C*%
%TO.N,Net-(D4-A)*%
X96954600Y-90514800D03*
%TD*%
D20*
%TO.P,C3,1*%
%TO.N,GND*%
X121107200Y-93976100D03*
%TO.P,C3,2*%
%TO.N,+5V*%
X121107200Y-91901100D03*
%TD*%
%TO.P,C4,1*%
%TO.N,GND*%
X112083450Y-111387050D03*
%TO.P,C4,2*%
%TO.N,+5V*%
X112083450Y-109312050D03*
%TD*%
D12*
%TO.P,3V3,1,1*%
%TO.N,+3.3V*%
X115747800Y-121031000D03*
%TD*%
D13*
%TO.P,C1,1*%
%TO.N,GND*%
X100003700Y-87909400D03*
%TO.P,C1,2*%
%TO.N,Net-(D2-K)*%
X102078700Y-87909400D03*
%TD*%
D20*
%TO.P,C8,1*%
%TO.N,GND*%
X123952000Y-114092900D03*
%TO.P,C8,2*%
%TO.N,+3.3V*%
X123952000Y-112017900D03*
%TD*%
D21*
%TO.P,Q2,1,B*%
%TO.N,Net-(Q2-B)*%
X111940100Y-95962300D03*
%TO.P,Q2,2,E*%
%TO.N,GND*%
X111940100Y-97862300D03*
%TO.P,Q2,3,C*%
%TO.N,Net-(D1-K)*%
X113815100Y-96912300D03*
%TD*%
D22*
%TO.P,R2,1*%
%TO.N,Net-(D1-A)*%
X121235500Y-97902300D03*
%TO.P,R2,2*%
%TO.N,+5V*%
X121235500Y-95902300D03*
%TD*%
D23*
%TO.P,H3,1,1*%
%TO.N,GND*%
X128649700Y-121029700D03*
D24*
X128649700Y-121029700D03*
%TD*%
D25*
%TO.P,R1,1*%
%TO.N,Net-(U1-VIN)*%
X109296200Y-91684600D03*
%TO.P,R1,2*%
%TO.N,GND*%
X109296200Y-93684600D03*
%TD*%
D26*
%TO.P,R3,1*%
%TO.N,GND*%
X116850550Y-111976450D03*
%TO.P,R3,2*%
%TO.N,+3.3V*%
X118850550Y-111976450D03*
%TD*%
D27*
%TO.P,FB1,1*%
%TO.N,Net-(U1-VIN)*%
X107202300Y-88061800D03*
%TO.P,FB1,2*%
%TO.N,Net-(D2-K)*%
X104227300Y-88061800D03*
%TD*%
D12*
%TO.P,GND2,1,1*%
%TO.N,GND*%
X121158000Y-121031000D03*
%TD*%
D13*
%TO.P,C6,1*%
%TO.N,GND*%
X117072500Y-95656400D03*
%TO.P,C6,2*%
%TO.N,Net-(U1-VIN)*%
X119147500Y-95656400D03*
%TD*%
D28*
%TO.P,C7,1*%
%TO.N,GND*%
X126290100Y-94137600D03*
%TO.P,C7,2*%
%TO.N,+5V*%
X126290100Y-96212600D03*
%TD*%
D29*
%TO.P,U2,1,GND*%
%TO.N,GND*%
X112159250Y-102295850D03*
%TO.P,U2,2,VO*%
%TO.N,+3.3V*%
X112159250Y-104595850D03*
D30*
X118459250Y-104595850D03*
D29*
%TO.P,U2,3,VI*%
%TO.N,+5V*%
X112159250Y-106895850D03*
%TD*%
D31*
%TO.P,BT1,1,+*%
%TO.N,Net-(BT1-+)*%
X100362601Y-112141001D03*
D32*
%TO.P,BT1,2,-*%
%TO.N,GND*%
X79872601Y-112141001D03*
%TD*%
D12*
%TO.P,5V1,1,1*%
%TO.N,+5V*%
X110490000Y-121031000D03*
%TD*%
D25*
%TO.P,R4,1*%
%TO.N,Net-(Q2-B)*%
X121083100Y-88053700D03*
%TO.P,R4,2*%
%TO.N,+5V*%
X121083100Y-90053700D03*
%TD*%
D17*
%TO.P,J3,1,Pin_1*%
%TO.N,GND*%
X128905000Y-113492200D03*
D18*
%TO.P,J3,2,Pin_2*%
%TO.N,+3.3V*%
X128905000Y-110952200D03*
%TD*%
D23*
%TO.P,H1,1,1*%
%TO.N,GND*%
X76454000Y-99796600D03*
D24*
X76454000Y-99796600D03*
%TD*%
D28*
%TO.P,C2,1*%
%TO.N,GND*%
X109347000Y-87735500D03*
%TO.P,C2,2*%
%TO.N,Net-(U1-VIN)*%
X109347000Y-89810500D03*
%TD*%
D33*
%TO.P,U1,1,/SHDN*%
%TO.N,Net-(U1-VIN)*%
X118605900Y-93345000D03*
%TO.P,U1,2,VIN*%
X118605900Y-92075000D03*
%TO.P,U1,3,GND*%
%TO.N,GND*%
X118605900Y-90805000D03*
%TO.P,U1,4,VOUT*%
%TO.N,+5V*%
X118605900Y-89535000D03*
%TO.P,U1,5,PWRGD*%
%TO.N,Net-(Q2-B)*%
X118605900Y-88265000D03*
D34*
%TO.P,U1,6,TAB*%
%TO.N,GND*%
X112305900Y-90805000D03*
%TD*%
D23*
%TO.P,H2,1,1*%
%TO.N,GND*%
X128871700Y-88900000D03*
D24*
X128871700Y-88900000D03*
%TD*%
D35*
%TO.N,GND*%
X102422100Y-90106300D03*
X118008400Y-86410800D03*
X97026700Y-97610900D03*
X96467900Y-101827300D03*
X109522100Y-102506300D03*
X93445300Y-112723900D03*
X124358400Y-87477600D03*
X111988600Y-87630000D03*
X103322100Y-97106300D03*
X126061500Y-114961700D03*
X122097800Y-105740200D03*
X130938300Y-113818700D03*
X81456500Y-108532900D03*
X114046000Y-102621000D03*
X82218500Y-87577900D03*
X122322100Y-101406300D03*
X122607100Y-93976100D03*
X77748100Y-94461300D03*
X128397000Y-106857800D03*
X126772700Y-98832700D03*
X83590100Y-88009700D03*
X124231400Y-122275600D03*
X126922100Y-99906300D03*
X113734450Y-112000550D03*
X83844100Y-117905500D03*
X86231700Y-111428500D03*
X77697300Y-88085900D03*
X109722100Y-97906300D03*
X120345200Y-115468400D03*
X121286300Y-108129100D03*
X99515900Y-107364500D03*
X131014500Y-102363300D03*
X105027700Y-106932700D03*
X77595700Y-109599700D03*
X116222100Y-102806300D03*
X111277400Y-94538800D03*
X80262700Y-94613700D03*
X106522100Y-93206300D03*
X96522100Y-86806300D03*
X116611400Y-90932000D03*
X115290600Y-88163400D03*
X125222000Y-117221000D03*
X89000300Y-98830100D03*
X84174300Y-91565700D03*
X115969650Y-107123750D03*
X130531900Y-116485700D03*
X112395000Y-90373200D03*
X112012700Y-99134900D03*
X126922100Y-113506300D03*
X110234700Y-95528100D03*
X117525800Y-97434400D03*
X125095000Y-107772200D03*
X109421900Y-106424700D03*
%TO.N,Net-(D1-K)*%
X115697000Y-98983800D03*
X119329200Y-99009200D03*
%TO.N,Net-(U1-VIN)*%
X116611400Y-93370400D03*
X113055400Y-93319600D03*
%TO.N,+3.3V*%
X116401450Y-104609150D03*
X114096800Y-104602200D03*
%TD*%
D36*
%TO.N,Net-(D2-A)*%
X98522100Y-91706300D02*
X93922100Y-91706300D01*
X93922100Y-91706300D02*
X92730600Y-90514800D01*
X92730600Y-90514800D02*
X90954600Y-90514800D01*
X101422100Y-94606300D02*
X98522100Y-91706300D01*
%TO.N,Net-(D4-A)*%
X101422100Y-91806300D02*
X100130600Y-90514800D01*
X100130600Y-90514800D02*
X96954600Y-90514800D01*
%TO.N,Net-(D2-K)*%
X104722100Y-94606300D02*
X104722100Y-91806300D01*
X104722100Y-91806300D02*
X104722100Y-88556600D01*
X104722100Y-88556600D02*
X104227300Y-88061800D01*
%TO.N,Net-(D4-A)*%
X97146100Y-90706300D02*
X96954600Y-90514800D01*
%TO.N,+5V*%
X115671600Y-97459800D02*
X117589300Y-99377500D01*
X118605900Y-89535000D02*
X120666000Y-89535000D01*
X113766600Y-106895850D02*
X112159250Y-106895850D01*
X115671600Y-90601800D02*
X115671600Y-97459800D01*
X120583200Y-96383600D02*
X127919300Y-96383600D01*
X116738400Y-89535000D02*
X115671600Y-90601800D01*
X110490000Y-121031000D02*
X110490000Y-110462000D01*
X112083450Y-109312050D02*
X112083450Y-106971650D01*
X121132600Y-90001600D02*
X121132600Y-91875700D01*
X127919300Y-96383600D02*
X129376500Y-97840800D01*
X113784350Y-106895850D02*
X115036600Y-105643600D01*
X118605900Y-89535000D02*
X116738400Y-89535000D01*
X111639950Y-109312050D02*
X112083450Y-109312050D01*
X112103850Y-106840450D02*
X112159250Y-106895850D01*
X121132600Y-91875700D02*
X121107200Y-91901100D01*
X112083450Y-106971650D02*
X112159250Y-106895850D01*
X120666000Y-89535000D02*
X121132600Y-90001600D01*
X110490000Y-110462000D02*
X111639950Y-109312050D01*
X115036600Y-105643600D02*
X115036600Y-101930200D01*
X115036600Y-101930200D02*
X120583200Y-96383600D01*
%TO.N,GND*%
X116611400Y-90932000D02*
X116611400Y-91008200D01*
X116687600Y-90932000D02*
X116611400Y-90932000D01*
X118605900Y-90805000D02*
X116814600Y-90805000D01*
X116814600Y-90805000D02*
X116687600Y-90932000D01*
X112012700Y-99134900D02*
X112012700Y-97934900D01*
X122607100Y-93976100D02*
X121107200Y-93976100D01*
X116611400Y-91008200D02*
X116611400Y-91008200D01*
X112012700Y-97934900D02*
X111940100Y-97862300D01*
%TO.N,Net-(D1-K)*%
X119457500Y-99137500D02*
X119329200Y-99009200D01*
X127304800Y-104394000D02*
X127304800Y-103860600D01*
X127304800Y-103860600D02*
X122581700Y-99137500D01*
X115722400Y-98819600D02*
X115722400Y-98958400D01*
X115722400Y-98958400D02*
X115697000Y-98983800D01*
X115722400Y-99009200D02*
X115722400Y-99085400D01*
X113815100Y-96912300D02*
X115722400Y-98819600D01*
X115697000Y-98983800D02*
X115722400Y-99009200D01*
X122581700Y-99137500D02*
X119457500Y-99137500D01*
%TO.N,Net-(D1-A)*%
X121235500Y-97902300D02*
X123353100Y-97902300D01*
X128527200Y-102641400D02*
X130279800Y-104394000D01*
X123353100Y-97902300D02*
X128092200Y-102641400D01*
X128092200Y-102641400D02*
X128527200Y-102641400D01*
%TO.N,Net-(BT1-+)*%
X94640400Y-93014800D02*
X94005400Y-93649800D01*
X94005400Y-105326600D02*
X100894701Y-112215901D01*
X94005400Y-93649800D02*
X94005400Y-105326600D01*
X96954600Y-93014800D02*
X94640400Y-93014800D01*
%TO.N,Net-(Q2-B)*%
X116306600Y-88265000D02*
X114249200Y-90322400D01*
X120869200Y-88265000D02*
X121132600Y-88001600D01*
X114223800Y-93678600D02*
X111940100Y-95962300D01*
X114249200Y-90322400D02*
X114223800Y-90322400D01*
X118605900Y-88265000D02*
X116306600Y-88265000D01*
X118605900Y-88265000D02*
X120869200Y-88265000D01*
X114223800Y-90322400D02*
X114223800Y-93678600D01*
%TO.N,Net-(U1-VIN)*%
X109296200Y-91684600D02*
X109296200Y-89861300D01*
X116586000Y-93370400D02*
X116586000Y-93370400D01*
X109347000Y-89810500D02*
X107655600Y-89810500D01*
X118605900Y-93345000D02*
X116611400Y-93345000D01*
X118605900Y-92075000D02*
X118605900Y-93345000D01*
X116611400Y-93370400D02*
X116586000Y-93370400D01*
X109296200Y-89861300D02*
X109347000Y-89810500D01*
X111277400Y-93319600D02*
X109642400Y-91684600D01*
X118605900Y-93345000D02*
X119147500Y-93886600D01*
X119147500Y-93886600D02*
X119147500Y-95656400D01*
X116611400Y-93345000D02*
X116611400Y-93345000D01*
X113055400Y-93319600D02*
X111277400Y-93319600D01*
X116611400Y-93345000D02*
X116611400Y-93370400D01*
X107655600Y-89810500D02*
X107202300Y-89357200D01*
X109642400Y-91684600D02*
X109296200Y-91684600D01*
X107202300Y-89357200D02*
X107202300Y-88061800D01*
%TO.N,+3.3V*%
X127839300Y-112017900D02*
X128905000Y-110952200D01*
X118850550Y-111976450D02*
X118850550Y-109686750D01*
X116401450Y-104609150D02*
X116401450Y-104558350D01*
X118850550Y-109686750D02*
X118776750Y-109612950D01*
X118850550Y-117928250D02*
X115747800Y-121031000D01*
X112159250Y-104595850D02*
X114255750Y-104595850D01*
X118850550Y-111976450D02*
X123910550Y-111976450D01*
X116438950Y-104595850D02*
X116452250Y-104609150D01*
X118776750Y-109612950D02*
X118776750Y-104913350D01*
X118459250Y-104595850D02*
X116438950Y-104595850D01*
X123952000Y-112017900D02*
X127839300Y-112017900D01*
X116401450Y-104558350D02*
X116401450Y-104558350D01*
X114033900Y-104588900D02*
X114020600Y-104602200D01*
X114096800Y-104526000D02*
X114046000Y-104576800D01*
X114020600Y-104602200D02*
X114096800Y-104602200D01*
X118776750Y-104913350D02*
X118459250Y-104595850D01*
X118850550Y-111976450D02*
X118850550Y-117928250D01*
X114096800Y-104602200D02*
X114096800Y-104526000D01*
X116452250Y-104609150D02*
X116401450Y-104609150D01*
X123910550Y-111976450D02*
X123952000Y-112017900D01*
%TO.N,Net-(D2-K)*%
X102078700Y-87909400D02*
X104074900Y-87909400D01*
X104074900Y-87909400D02*
X104227300Y-88061800D01*
%TO.N,Net-(D2-A)*%
X90216700Y-90386500D02*
X91402500Y-90386500D01*
%TO.N,Net-(SW1A-B)*%
X89121000Y-93014800D02*
X87189300Y-91083100D01*
X90954600Y-93014800D02*
X89121000Y-93014800D01*
%TD*%
%TA.AperFunction,Conductor*%
%TO.N,GND*%
G36*
X116893007Y-101072209D02*
G01*
X116948940Y-101114081D01*
X116973357Y-101179545D01*
X116973534Y-101182518D01*
X117019112Y-102143785D01*
X117020688Y-102166420D01*
X117021692Y-102177349D01*
X117024271Y-102199907D01*
X117036878Y-102243965D01*
X117063860Y-102338264D01*
X117064481Y-102340432D01*
X117093063Y-102404179D01*
X117137125Y-102473796D01*
X117156345Y-102540970D01*
X117136196Y-102607872D01*
X117128205Y-102618772D01*
X117116654Y-102632847D01*
X117116651Y-102632852D01*
X117023010Y-102808041D01*
X116965341Y-102998150D01*
X116950750Y-103146306D01*
X116950750Y-103668293D01*
X116931065Y-103735332D01*
X116878261Y-103781087D01*
X116809103Y-103791031D01*
X116776316Y-103781573D01*
X116683739Y-103740356D01*
X116683736Y-103740355D01*
X116496937Y-103700650D01*
X116305963Y-103700650D01*
X116119164Y-103740355D01*
X115944693Y-103818034D01*
X115866985Y-103874493D01*
X115801179Y-103897973D01*
X115733125Y-103882147D01*
X115684430Y-103832042D01*
X115670100Y-103774175D01*
X115670100Y-102243965D01*
X115689785Y-102176926D01*
X115706414Y-102156289D01*
X116761994Y-101100708D01*
X116823315Y-101067225D01*
X116893007Y-101072209D01*
G37*
%TD.AperFunction*%
%TA.AperFunction,Conductor*%
G36*
X123368071Y-97020492D02*
G01*
X123373466Y-97018122D01*
X123389357Y-97017100D01*
X125158056Y-97017100D01*
X125225095Y-97036785D01*
X125245737Y-97053419D01*
X125341448Y-97149130D01*
X125492362Y-97242215D01*
X125660674Y-97297987D01*
X125764555Y-97308600D01*
X126815644Y-97308599D01*
X126919526Y-97297987D01*
X127087838Y-97242215D01*
X127238752Y-97149130D01*
X127334463Y-97053419D01*
X127395786Y-97019934D01*
X127422144Y-97017100D01*
X127605534Y-97017100D01*
X127672573Y-97036785D01*
X127693215Y-97053419D01*
X128027436Y-97387640D01*
X128060921Y-97448963D01*
X128059961Y-97505760D01*
X128031935Y-97616433D01*
X128013344Y-97840794D01*
X128013344Y-97840805D01*
X128031934Y-98065159D01*
X128031936Y-98065171D01*
X128087203Y-98283414D01*
X128177640Y-98489592D01*
X128241859Y-98587886D01*
X128300778Y-98678068D01*
X128452207Y-98842562D01*
X128483129Y-98905215D01*
X128475269Y-98974641D01*
X128431122Y-99028797D01*
X128404311Y-99042726D01*
X128284412Y-99087446D01*
X128284406Y-99087449D01*
X128169312Y-99173609D01*
X128169309Y-99173612D01*
X128083149Y-99288706D01*
X128083145Y-99288713D01*
X128032903Y-99423420D01*
X128032901Y-99423427D01*
X128026500Y-99482955D01*
X128026500Y-100130800D01*
X128942814Y-100130800D01*
X128917007Y-100170956D01*
X128876500Y-100308911D01*
X128876500Y-100452689D01*
X128917007Y-100590644D01*
X128942814Y-100630800D01*
X128026500Y-100630800D01*
X128026500Y-101278644D01*
X128032901Y-101338172D01*
X128032903Y-101338180D01*
X128040720Y-101359138D01*
X128045704Y-101428830D01*
X128012219Y-101490153D01*
X127950895Y-101523637D01*
X127881204Y-101518652D01*
X127836857Y-101490152D01*
X123860188Y-97513483D01*
X123850287Y-97501123D01*
X123850077Y-97501298D01*
X123845101Y-97495284D01*
X123845100Y-97495282D01*
X123795415Y-97448625D01*
X123792650Y-97445945D01*
X123772866Y-97426161D01*
X123769604Y-97423631D01*
X123760719Y-97416043D01*
X123728421Y-97385714D01*
X123728419Y-97385712D01*
X123710531Y-97375878D01*
X123694270Y-97365197D01*
X123678139Y-97352684D01*
X123637475Y-97335088D01*
X123626985Y-97329949D01*
X123588160Y-97308605D01*
X123588156Y-97308604D01*
X123588140Y-97308600D01*
X123584760Y-97307732D01*
X123568387Y-97303528D01*
X123549981Y-97297226D01*
X123531244Y-97289118D01*
X123531245Y-97289118D01*
X123487483Y-97282187D01*
X123476047Y-97279819D01*
X123461293Y-97276031D01*
X123433132Y-97268800D01*
X123433130Y-97268800D01*
X123412716Y-97268800D01*
X123393317Y-97267273D01*
X123371772Y-97263860D01*
X123368187Y-97264549D01*
X123339379Y-97267273D01*
X123329043Y-97268250D01*
X123317374Y-97268800D01*
X122471024Y-97268800D01*
X122403985Y-97249115D01*
X122365483Y-97209893D01*
X122363201Y-97206193D01*
X122344763Y-97138800D01*
X122365688Y-97072137D01*
X122419332Y-97027370D01*
X122468742Y-97017100D01*
X123356517Y-97017100D01*
X123368071Y-97020492D01*
G37*
%TD.AperFunction*%
%TA.AperFunction,Conductor*%
G36*
X117325102Y-94064433D02*
G01*
X117327248Y-94065674D01*
X117338094Y-94072088D01*
X117392299Y-94104145D01*
X117414917Y-94110716D01*
X117552064Y-94150561D01*
X117552067Y-94150561D01*
X117552069Y-94150562D01*
X117589398Y-94153500D01*
X118390000Y-94153500D01*
X118457039Y-94173185D01*
X118502794Y-94225989D01*
X118514000Y-94277500D01*
X118514000Y-94403586D01*
X118494315Y-94470625D01*
X118455097Y-94509124D01*
X118336351Y-94582367D01*
X118336347Y-94582370D01*
X118210970Y-94707747D01*
X118210968Y-94707750D01*
X118210541Y-94708443D01*
X118210123Y-94708818D01*
X118206489Y-94713415D01*
X118205703Y-94712793D01*
X118158591Y-94755164D01*
X118089627Y-94766383D01*
X118025547Y-94738536D01*
X118007739Y-94717978D01*
X118006798Y-94718723D01*
X118002316Y-94713055D01*
X117878345Y-94589084D01*
X117729124Y-94497043D01*
X117729119Y-94497041D01*
X117562697Y-94441894D01*
X117562690Y-94441893D01*
X117459986Y-94431400D01*
X117322500Y-94431400D01*
X117322500Y-96881399D01*
X117459972Y-96881399D01*
X117459986Y-96881398D01*
X117562697Y-96870905D01*
X117729119Y-96815758D01*
X117729124Y-96815756D01*
X117878345Y-96723715D01*
X118002316Y-96599744D01*
X118006798Y-96594077D01*
X118008991Y-96595811D01*
X118051357Y-96557665D01*
X118120314Y-96546408D01*
X118184410Y-96574218D01*
X118206334Y-96599506D01*
X118206489Y-96599385D01*
X118209183Y-96602792D01*
X118210545Y-96604363D01*
X118210970Y-96605052D01*
X118336348Y-96730430D01*
X118487262Y-96823515D01*
X118655574Y-96879287D01*
X118759455Y-96889900D01*
X118881634Y-96889899D01*
X118948672Y-96909583D01*
X118994427Y-96962387D01*
X119004371Y-97031545D01*
X118975347Y-97095101D01*
X118969314Y-97101580D01*
X117676981Y-98393914D01*
X117615658Y-98427399D01*
X117545966Y-98422415D01*
X117501619Y-98393914D01*
X116341419Y-97233714D01*
X116307934Y-97172391D01*
X116305100Y-97146033D01*
X116305100Y-96950769D01*
X116324785Y-96883730D01*
X116377589Y-96837975D01*
X116446747Y-96828031D01*
X116468104Y-96833063D01*
X116582302Y-96870905D01*
X116582309Y-96870906D01*
X116685019Y-96881399D01*
X116822499Y-96881399D01*
X116822500Y-96881398D01*
X116822500Y-94418550D01*
X116804470Y-94385531D01*
X116809454Y-94315839D01*
X116851326Y-94259906D01*
X116888167Y-94243230D01*
X116887508Y-94241202D01*
X116893679Y-94239195D01*
X116893688Y-94239194D01*
X117068152Y-94161518D01*
X117191241Y-94072087D01*
X117257048Y-94048608D01*
X117325102Y-94064433D01*
G37*
%TD.AperFunction*%
%TA.AperFunction,Conductor*%
G36*
X116958842Y-90312974D02*
G01*
X117014776Y-90354845D01*
X117039193Y-90420310D01*
X117034586Y-90463749D01*
X117008800Y-90552508D01*
X117008799Y-90552511D01*
X117008604Y-90554998D01*
X117008605Y-90555000D01*
X118731900Y-90555000D01*
X118798939Y-90574685D01*
X118844694Y-90627489D01*
X118855900Y-90679000D01*
X118855900Y-90931000D01*
X118836215Y-90998039D01*
X118783411Y-91043794D01*
X118731900Y-91055000D01*
X117008605Y-91055000D01*
X117008604Y-91055001D01*
X117008799Y-91057486D01*
X117054618Y-91215198D01*
X117138219Y-91356560D01*
X117138869Y-91357398D01*
X117139173Y-91358173D01*
X117142188Y-91363271D01*
X117141365Y-91363757D01*
X117164400Y-91422436D01*
X117150716Y-91490953D01*
X117135584Y-91511533D01*
X117136227Y-91512032D01*
X117131443Y-91518198D01*
X117046755Y-91661398D01*
X117046753Y-91661403D01*
X117000338Y-91821164D01*
X117000337Y-91821170D01*
X116997400Y-91858492D01*
X116997400Y-92291505D01*
X117000337Y-92328829D01*
X117003054Y-92338180D01*
X117002852Y-92408049D01*
X116964908Y-92466718D01*
X116901268Y-92495559D01*
X116858195Y-92494061D01*
X116706887Y-92461900D01*
X116515913Y-92461900D01*
X116454880Y-92474873D01*
X116385213Y-92469556D01*
X116329479Y-92427418D01*
X116305375Y-92361838D01*
X116305100Y-92353582D01*
X116305100Y-90915566D01*
X116324785Y-90848527D01*
X116341419Y-90827885D01*
X116559100Y-90610204D01*
X116827831Y-90341472D01*
X116889151Y-90307990D01*
X116958842Y-90312974D01*
G37*
%TD.AperFunction*%
%TA.AperFunction,Conductor*%
G36*
X131742374Y-85261319D02*
G01*
X131788152Y-85314103D01*
X131799380Y-85365582D01*
X131800343Y-86846010D01*
X131780702Y-86913063D01*
X131727928Y-86958852D01*
X131658776Y-86968840D01*
X131595201Y-86939857D01*
X131573709Y-86915678D01*
X131542521Y-86869679D01*
X131410729Y-86714523D01*
X131410728Y-86714523D01*
X130169432Y-87955818D01*
X130006570Y-87765130D01*
X129815880Y-87602266D01*
X131059810Y-86358336D01*
X131059810Y-86358334D01*
X131043629Y-86343007D01*
X131043628Y-86343006D01*
X130754433Y-86123167D01*
X130754417Y-86123156D01*
X130443177Y-85935890D01*
X130443164Y-85935883D01*
X130113494Y-85783360D01*
X130113489Y-85783359D01*
X129769238Y-85667367D01*
X129414464Y-85589275D01*
X129053333Y-85550000D01*
X128690066Y-85550000D01*
X128328935Y-85589275D01*
X127974161Y-85667367D01*
X127629910Y-85783359D01*
X127629905Y-85783360D01*
X127300235Y-85935883D01*
X127300222Y-85935890D01*
X126988982Y-86123156D01*
X126988966Y-86123167D01*
X126699775Y-86343002D01*
X126683588Y-86358335D01*
X126683587Y-86358335D01*
X127927519Y-87602266D01*
X127736830Y-87765130D01*
X127573966Y-87955818D01*
X126332670Y-86714522D01*
X126332669Y-86714523D01*
X126200877Y-86869680D01*
X126200870Y-86869690D01*
X125997018Y-87170348D01*
X125997016Y-87170352D01*
X125826861Y-87491297D01*
X125826852Y-87491315D01*
X125692397Y-87828772D01*
X125692395Y-87828779D01*
X125595219Y-88178777D01*
X125595217Y-88178785D01*
X125536446Y-88537271D01*
X125516780Y-88899997D01*
X125516780Y-88900002D01*
X125536446Y-89262728D01*
X125595217Y-89621214D01*
X125595219Y-89621222D01*
X125692395Y-89971220D01*
X125692397Y-89971227D01*
X125826852Y-90308684D01*
X125826861Y-90308702D01*
X125997016Y-90629647D01*
X125997018Y-90629651D01*
X126200870Y-90930309D01*
X126200877Y-90930319D01*
X126332669Y-91085475D01*
X126332670Y-91085475D01*
X127573966Y-89844180D01*
X127736830Y-90034870D01*
X127927518Y-90197732D01*
X126683588Y-91441662D01*
X126683588Y-91441664D01*
X126699770Y-91456992D01*
X126699771Y-91456993D01*
X126988966Y-91676832D01*
X126988982Y-91676843D01*
X127300222Y-91864109D01*
X127300235Y-91864116D01*
X127629905Y-92016639D01*
X127629910Y-92016640D01*
X127974161Y-92132632D01*
X128328935Y-92210724D01*
X128690066Y-92249999D01*
X128690074Y-92250000D01*
X129053326Y-92250000D01*
X129053333Y-92249999D01*
X129414464Y-92210724D01*
X129769238Y-92132632D01*
X130113489Y-92016640D01*
X130113494Y-92016639D01*
X130443164Y-91864116D01*
X130443177Y-91864109D01*
X130754417Y-91676843D01*
X130754433Y-91676832D01*
X131043629Y-91456992D01*
X131059810Y-91441664D01*
X131059810Y-91441663D01*
X129815880Y-90197733D01*
X130006570Y-90034870D01*
X130169433Y-89844180D01*
X131410728Y-91085475D01*
X131410729Y-91085475D01*
X131542527Y-90930311D01*
X131542535Y-90930301D01*
X131576379Y-90880385D01*
X131630293Y-90835943D01*
X131699675Y-90827705D01*
X131762497Y-90858285D01*
X131798814Y-90917974D01*
X131803013Y-90949890D01*
X131821499Y-119361775D01*
X131801858Y-119428828D01*
X131749084Y-119474617D01*
X131679932Y-119484605D01*
X131616357Y-119455622D01*
X131587944Y-119419939D01*
X131524383Y-119300052D01*
X131524381Y-119300048D01*
X131320529Y-118999390D01*
X131320522Y-118999380D01*
X131188729Y-118844223D01*
X131188728Y-118844223D01*
X129947432Y-120085518D01*
X129784570Y-119894830D01*
X129593880Y-119731966D01*
X130837810Y-118488036D01*
X130837810Y-118488034D01*
X130821629Y-118472707D01*
X130821628Y-118472706D01*
X130532433Y-118252867D01*
X130532417Y-118252856D01*
X130221177Y-118065590D01*
X130221164Y-118065583D01*
X129891494Y-117913060D01*
X129891489Y-117913059D01*
X129547238Y-117797067D01*
X129192464Y-117718975D01*
X128831333Y-117679700D01*
X128468066Y-117679700D01*
X128106935Y-117718975D01*
X127752161Y-117797067D01*
X127407910Y-117913059D01*
X127407905Y-117913060D01*
X127078235Y-118065583D01*
X127078222Y-118065590D01*
X126766982Y-118252856D01*
X126766966Y-118252867D01*
X126477775Y-118472702D01*
X126461588Y-118488035D01*
X126461587Y-118488035D01*
X127705519Y-119731966D01*
X127514830Y-119894830D01*
X127351966Y-120085518D01*
X126110670Y-118844222D01*
X126110669Y-118844223D01*
X125978877Y-118999380D01*
X125978870Y-118999390D01*
X125775018Y-119300048D01*
X125775016Y-119300052D01*
X125604861Y-119620997D01*
X125604852Y-119621015D01*
X125470397Y-119958472D01*
X125470395Y-119958479D01*
X125373219Y-120308477D01*
X125373217Y-120308485D01*
X125314446Y-120666971D01*
X125294780Y-121029697D01*
X125294780Y-121029702D01*
X125314446Y-121392428D01*
X125373217Y-121750914D01*
X125373219Y-121750922D01*
X125470395Y-122100920D01*
X125470397Y-122100927D01*
X125604852Y-122438384D01*
X125604861Y-122438402D01*
X125775016Y-122759347D01*
X125775018Y-122759351D01*
X125978870Y-123060009D01*
X125978877Y-123060019D01*
X126110669Y-123215175D01*
X126110670Y-123215175D01*
X127351966Y-121973880D01*
X127514830Y-122164570D01*
X127705518Y-122327432D01*
X126461588Y-123571362D01*
X126461588Y-123571364D01*
X126477770Y-123586692D01*
X126477771Y-123586693D01*
X126766966Y-123806532D01*
X126766982Y-123806543D01*
X127078222Y-123993809D01*
X127078235Y-123993816D01*
X127187485Y-124044361D01*
X127240063Y-124090375D01*
X127259417Y-124157511D01*
X127239403Y-124224452D01*
X127186374Y-124269947D01*
X127135419Y-124280900D01*
X73046600Y-124280900D01*
X72979561Y-124261215D01*
X72933806Y-124208411D01*
X72922600Y-124156900D01*
X72922600Y-112141002D01*
X77867492Y-112141002D01*
X77887901Y-112426363D01*
X77948710Y-112705896D01*
X78048692Y-112973959D01*
X78185792Y-113225039D01*
X78185797Y-113225047D01*
X78292483Y-113367562D01*
X78292484Y-113367563D01*
X79195404Y-112464642D01*
X79218660Y-112518554D01*
X79323357Y-112659186D01*
X79457663Y-112771883D01*
X79549266Y-112817887D01*
X78646037Y-113721116D01*
X78788561Y-113827808D01*
X78788562Y-113827809D01*
X79039643Y-113964909D01*
X79039642Y-113964909D01*
X79307705Y-114064891D01*
X79587238Y-114125700D01*
X79872600Y-114146110D01*
X79872602Y-114146110D01*
X80157963Y-114125700D01*
X80437496Y-114064891D01*
X80705559Y-113964909D01*
X80956648Y-113827804D01*
X81099162Y-113721117D01*
X81099163Y-113721116D01*
X80198547Y-112820499D01*
X80211492Y-112815788D01*
X80357974Y-112719446D01*
X80478289Y-112591919D01*
X80551048Y-112465895D01*
X81452716Y-113367563D01*
X81452717Y-113367562D01*
X81559404Y-113225048D01*
X81696509Y-112973959D01*
X81796491Y-112705896D01*
X81857300Y-112426363D01*
X81877710Y-112141002D01*
X81877710Y-112140999D01*
X81857300Y-111855638D01*
X81796491Y-111576105D01*
X81696509Y-111308042D01*
X81559409Y-111056962D01*
X81559408Y-111056961D01*
X81452716Y-110914437D01*
X80549796Y-111817357D01*
X80526542Y-111763448D01*
X80421845Y-111622816D01*
X80287539Y-111510119D01*
X80195934Y-111464113D01*
X81099163Y-110560884D01*
X81099162Y-110560883D01*
X80956647Y-110454197D01*
X80956639Y-110454192D01*
X80705558Y-110317092D01*
X80705559Y-110317092D01*
X80437496Y-110217110D01*
X80157963Y-110156301D01*
X79872602Y-110135892D01*
X79872600Y-110135892D01*
X79587238Y-110156301D01*
X79307705Y-110217110D01*
X79039642Y-110317092D01*
X78788562Y-110454192D01*
X78788554Y-110454197D01*
X78646038Y-110560883D01*
X78646037Y-110560884D01*
X79546655Y-111461502D01*
X79533710Y-111466214D01*
X79387228Y-111562556D01*
X79266913Y-111690083D01*
X79194153Y-111816106D01*
X78292484Y-110914437D01*
X78292483Y-110914438D01*
X78185797Y-111056954D01*
X78185792Y-111056962D01*
X78048692Y-111308042D01*
X77948710Y-111576105D01*
X77887901Y-111855638D01*
X77867492Y-112140999D01*
X77867492Y-112141002D01*
X72922600Y-112141002D01*
X72922600Y-100485719D01*
X72942285Y-100418680D01*
X72995089Y-100372925D01*
X73064247Y-100362981D01*
X73127803Y-100392006D01*
X73165577Y-100450784D01*
X73168967Y-100465658D01*
X73177517Y-100517814D01*
X73177519Y-100517822D01*
X73274695Y-100867820D01*
X73274697Y-100867827D01*
X73409152Y-101205284D01*
X73409161Y-101205302D01*
X73579316Y-101526247D01*
X73579318Y-101526251D01*
X73783170Y-101826909D01*
X73783177Y-101826919D01*
X73914969Y-101982075D01*
X73914970Y-101982075D01*
X75156266Y-100740780D01*
X75319130Y-100931470D01*
X75509818Y-101094332D01*
X74265888Y-102338262D01*
X74265888Y-102338264D01*
X74282070Y-102353592D01*
X74282071Y-102353593D01*
X74571266Y-102573432D01*
X74571282Y-102573443D01*
X74882522Y-102760709D01*
X74882535Y-102760716D01*
X75212205Y-102913239D01*
X75212210Y-102913240D01*
X75556461Y-103029232D01*
X75911235Y-103107324D01*
X76272366Y-103146599D01*
X76272374Y-103146600D01*
X76635626Y-103146600D01*
X76635633Y-103146599D01*
X76996764Y-103107324D01*
X77351538Y-103029232D01*
X77695789Y-102913240D01*
X77695794Y-102913239D01*
X78025464Y-102760716D01*
X78025477Y-102760709D01*
X78336717Y-102573443D01*
X78336733Y-102573432D01*
X78625929Y-102353592D01*
X78642110Y-102338264D01*
X78642110Y-102338263D01*
X77398180Y-101094333D01*
X77588870Y-100931470D01*
X77751733Y-100740780D01*
X78993028Y-101982075D01*
X78993029Y-101982075D01*
X79124827Y-101826911D01*
X79124844Y-101826890D01*
X79328681Y-101526251D01*
X79328683Y-101526247D01*
X79498838Y-101205302D01*
X79498847Y-101205284D01*
X79633302Y-100867827D01*
X79633304Y-100867820D01*
X79730480Y-100517822D01*
X79730482Y-100517814D01*
X79789253Y-100159328D01*
X79808920Y-99796602D01*
X79808920Y-99796597D01*
X79789253Y-99433871D01*
X79730482Y-99075385D01*
X79730480Y-99075377D01*
X79633304Y-98725379D01*
X79633302Y-98725372D01*
X79498847Y-98387915D01*
X79498838Y-98387897D01*
X79328683Y-98066952D01*
X79328681Y-98066948D01*
X79124829Y-97766290D01*
X79124822Y-97766280D01*
X78993029Y-97611123D01*
X78993028Y-97611123D01*
X77751732Y-98852418D01*
X77588870Y-98661730D01*
X77398180Y-98498866D01*
X78642110Y-97254936D01*
X78642110Y-97254934D01*
X78625929Y-97239607D01*
X78625928Y-97239606D01*
X78336733Y-97019767D01*
X78336717Y-97019756D01*
X78025477Y-96832490D01*
X78025464Y-96832483D01*
X77695794Y-96679960D01*
X77695789Y-96679959D01*
X77351538Y-96563967D01*
X76996764Y-96485875D01*
X76635633Y-96446600D01*
X76272366Y-96446600D01*
X75911235Y-96485875D01*
X75556461Y-96563967D01*
X75212210Y-96679959D01*
X75212205Y-96679960D01*
X74882535Y-96832483D01*
X74882522Y-96832490D01*
X74571282Y-97019756D01*
X74571266Y-97019767D01*
X74282075Y-97239602D01*
X74265888Y-97254935D01*
X74265887Y-97254935D01*
X75509819Y-98498866D01*
X75319130Y-98661730D01*
X75156266Y-98852418D01*
X73914970Y-97611122D01*
X73914969Y-97611123D01*
X73783177Y-97766280D01*
X73783170Y-97766290D01*
X73579318Y-98066948D01*
X73579316Y-98066952D01*
X73409161Y-98387897D01*
X73409152Y-98387915D01*
X73274697Y-98725372D01*
X73274695Y-98725379D01*
X73177519Y-99075377D01*
X73177513Y-99075403D01*
X73168966Y-99127541D01*
X73138695Y-99190513D01*
X73079185Y-99227122D01*
X73009329Y-99225746D01*
X72951306Y-99186821D01*
X72923538Y-99122706D01*
X72922600Y-99107480D01*
X72922600Y-95944033D01*
X81677118Y-95944033D01*
X81706476Y-96185821D01*
X81774237Y-96419756D01*
X81774238Y-96419759D01*
X81878651Y-96639807D01*
X82017007Y-96840248D01*
X82017008Y-96840249D01*
X82185722Y-97015900D01*
X82380429Y-97162213D01*
X82380431Y-97162214D01*
X82380435Y-97162217D01*
X82471274Y-97209893D01*
X82596092Y-97275403D01*
X82596094Y-97275403D01*
X82596095Y-97275404D01*
X82695523Y-97308598D01*
X82827117Y-97352531D01*
X83067518Y-97391600D01*
X83067521Y-97391600D01*
X85450087Y-97391600D01*
X85450097Y-97391600D01*
X85632068Y-97376910D01*
X85868548Y-97318623D01*
X86018026Y-97254936D01*
X86092607Y-97223160D01*
X86092607Y-97223159D01*
X86092616Y-97223156D01*
X86298468Y-97092983D01*
X86480774Y-96931475D01*
X86634810Y-96742814D01*
X86748205Y-96546408D01*
X86756584Y-96531896D01*
X86756585Y-96531893D01*
X86756589Y-96531887D01*
X86842956Y-96304157D01*
X86891674Y-96065521D01*
X86891757Y-96063454D01*
X89196100Y-96063454D01*
X89202611Y-96124002D01*
X89202611Y-96124004D01*
X89245074Y-96237847D01*
X89253711Y-96261004D01*
X89341339Y-96378061D01*
X89458396Y-96465689D01*
X89595399Y-96516789D01*
X89622650Y-96519718D01*
X89655945Y-96523299D01*
X89655962Y-96523300D01*
X92253238Y-96523300D01*
X92253254Y-96523299D01*
X92280292Y-96520391D01*
X92313801Y-96516789D01*
X92450804Y-96465689D01*
X92567861Y-96378061D01*
X92655489Y-96261004D01*
X92706589Y-96124001D01*
X92712876Y-96065525D01*
X92713099Y-96063454D01*
X92713100Y-96063437D01*
X92713100Y-94966162D01*
X92713099Y-94966145D01*
X92708777Y-94925950D01*
X92706589Y-94905599D01*
X92655489Y-94768596D01*
X92567861Y-94651539D01*
X92450804Y-94563911D01*
X92313803Y-94512811D01*
X92253254Y-94506300D01*
X92253238Y-94506300D01*
X89655962Y-94506300D01*
X89655945Y-94506300D01*
X89595397Y-94512811D01*
X89595395Y-94512811D01*
X89458395Y-94563911D01*
X89341339Y-94651539D01*
X89253711Y-94768595D01*
X89202611Y-94905595D01*
X89202611Y-94905597D01*
X89196100Y-94966145D01*
X89196100Y-96063454D01*
X86891757Y-96063454D01*
X86898451Y-95897343D01*
X86901481Y-95822167D01*
X86901481Y-95822161D01*
X86872123Y-95580378D01*
X86820294Y-95401446D01*
X86804361Y-95346438D01*
X86699950Y-95126396D01*
X86699949Y-95126395D01*
X86699948Y-95126392D01*
X86580449Y-94953270D01*
X86561593Y-94925952D01*
X86496960Y-94858662D01*
X86392877Y-94750299D01*
X86198170Y-94603986D01*
X86198166Y-94603983D01*
X86198165Y-94603983D01*
X86130954Y-94568708D01*
X85982507Y-94490796D01*
X85982503Y-94490795D01*
X85751482Y-94413668D01*
X85511082Y-94374600D01*
X85511079Y-94374600D01*
X83128503Y-94374600D01*
X83128493Y-94374600D01*
X82946532Y-94389289D01*
X82710049Y-94447577D01*
X82485992Y-94543039D01*
X82485984Y-94543043D01*
X82485984Y-94543044D01*
X82280132Y-94673217D01*
X82097826Y-94834725D01*
X82097824Y-94834726D01*
X82097822Y-94834729D01*
X81943789Y-95023385D01*
X81943787Y-95023389D01*
X81822015Y-95234303D01*
X81822010Y-95234313D01*
X81735645Y-95462038D01*
X81686926Y-95700674D01*
X81686925Y-95700682D01*
X81677118Y-95944032D01*
X81677118Y-95944033D01*
X72922600Y-95944033D01*
X72922600Y-92245154D01*
X79389300Y-92245154D01*
X79404685Y-92430830D01*
X79404687Y-92430838D01*
X79465712Y-92671817D01*
X79565567Y-92899467D01*
X79701532Y-93107578D01*
X79869892Y-93290464D01*
X79869902Y-93290473D01*
X80066062Y-93443151D01*
X80066071Y-93443157D01*
X80284685Y-93561464D01*
X80284696Y-93561469D01*
X80519807Y-93642183D01*
X80639299Y-93662123D01*
X80639300Y-93662122D01*
X80639300Y-92616786D01*
X80679456Y-92642593D01*
X80817411Y-92683100D01*
X80961189Y-92683100D01*
X81099144Y-92642593D01*
X81139300Y-92616786D01*
X81139300Y-93662123D01*
X81258792Y-93642183D01*
X81493903Y-93561469D01*
X81493914Y-93561464D01*
X81712528Y-93443157D01*
X81712537Y-93443151D01*
X81727180Y-93431754D01*
X85680800Y-93431754D01*
X85687311Y-93492302D01*
X85687311Y-93492304D01*
X85735542Y-93621612D01*
X85738411Y-93629304D01*
X85826039Y-93746361D01*
X85943096Y-93833989D01*
X86080099Y-93885089D01*
X86107350Y-93888018D01*
X86140645Y-93891599D01*
X86140662Y-93891600D01*
X88237938Y-93891600D01*
X88237954Y-93891599D01*
X88264992Y-93888691D01*
X88298501Y-93885089D01*
X88435504Y-93833989D01*
X88552561Y-93746361D01*
X88640189Y-93629304D01*
X88640190Y-93629298D01*
X88644388Y-93621612D01*
X88693790Y-93572204D01*
X88762062Y-93557347D01*
X88802471Y-93567231D01*
X88836616Y-93582007D01*
X88847107Y-93587146D01*
X88885940Y-93608495D01*
X88905718Y-93613573D01*
X88924121Y-93619874D01*
X88942852Y-93627980D01*
X88942853Y-93627980D01*
X88942855Y-93627981D01*
X88986618Y-93634911D01*
X88998045Y-93637278D01*
X89040970Y-93648300D01*
X89061390Y-93648300D01*
X89080789Y-93649827D01*
X89100943Y-93653019D01*
X89114967Y-93651693D01*
X89183561Y-93664979D01*
X89234084Y-93713241D01*
X89242820Y-93731806D01*
X89253711Y-93761004D01*
X89341339Y-93878061D01*
X89458396Y-93965689D01*
X89595399Y-94016789D01*
X89622650Y-94019718D01*
X89655945Y-94023299D01*
X89655962Y-94023300D01*
X92253238Y-94023300D01*
X92253254Y-94023299D01*
X92280292Y-94020391D01*
X92313801Y-94016789D01*
X92450804Y-93965689D01*
X92567861Y-93878061D01*
X92655489Y-93761004D01*
X92706589Y-93624001D01*
X92710392Y-93588628D01*
X92713099Y-93563454D01*
X92713100Y-93563437D01*
X92713100Y-92466162D01*
X92713099Y-92466145D01*
X92709302Y-92430838D01*
X92706589Y-92405599D01*
X92703130Y-92396326D01*
X92677053Y-92326410D01*
X92655489Y-92268596D01*
X92567861Y-92151539D01*
X92450804Y-92063911D01*
X92313803Y-92012811D01*
X92253254Y-92006300D01*
X92253238Y-92006300D01*
X89655962Y-92006300D01*
X89655945Y-92006300D01*
X89595397Y-92012811D01*
X89595395Y-92012811D01*
X89458395Y-92063911D01*
X89341338Y-92151540D01*
X89335169Y-92157709D01*
X89273844Y-92191191D01*
X89204153Y-92186204D01*
X89159810Y-92157705D01*
X88734119Y-91732014D01*
X88700634Y-91670691D01*
X88697800Y-91644333D01*
X88697800Y-91063454D01*
X89196100Y-91063454D01*
X89202611Y-91124002D01*
X89202611Y-91124004D01*
X89253711Y-91261004D01*
X89341339Y-91378061D01*
X89458396Y-91465689D01*
X89526131Y-91490953D01*
X89585406Y-91513062D01*
X89595399Y-91516789D01*
X89622650Y-91519718D01*
X89655945Y-91523299D01*
X89655962Y-91523300D01*
X92253238Y-91523300D01*
X92253254Y-91523299D01*
X92280292Y-91520391D01*
X92313801Y-91516789D01*
X92323794Y-91513062D01*
X92383069Y-91490953D01*
X92450804Y-91465689D01*
X92450804Y-91465688D01*
X92450806Y-91465688D01*
X92450807Y-91465687D01*
X92508583Y-91422436D01*
X92556246Y-91386755D01*
X92621709Y-91362338D01*
X92689982Y-91377189D01*
X92718237Y-91398341D01*
X93415010Y-92095114D01*
X93424916Y-92107478D01*
X93425126Y-92107305D01*
X93430097Y-92113313D01*
X93430100Y-92113318D01*
X93479801Y-92159990D01*
X93482565Y-92162669D01*
X93502330Y-92182434D01*
X93505604Y-92184973D01*
X93514470Y-92192547D01*
X93546778Y-92222886D01*
X93564667Y-92232720D01*
X93580933Y-92243404D01*
X93597059Y-92255913D01*
X93637716Y-92273507D01*
X93648207Y-92278646D01*
X93687040Y-92299995D01*
X93706818Y-92305073D01*
X93725221Y-92311374D01*
X93743952Y-92319480D01*
X93743953Y-92319480D01*
X93743955Y-92319481D01*
X93787718Y-92326411D01*
X93799145Y-92328778D01*
X93842070Y-92339800D01*
X93862490Y-92339800D01*
X93881889Y-92341327D01*
X93902041Y-92344518D01*
X93902042Y-92344519D01*
X93902042Y-92344518D01*
X93902043Y-92344519D01*
X93935813Y-92341327D01*
X93946150Y-92340350D01*
X93957818Y-92339800D01*
X94113230Y-92339800D01*
X94180269Y-92359485D01*
X94226024Y-92412289D01*
X94235968Y-92481447D01*
X94207862Y-92542988D01*
X94208263Y-92543320D01*
X94207032Y-92544807D01*
X94206943Y-92545003D01*
X94206422Y-92545544D01*
X94175042Y-92583474D01*
X94167183Y-92592111D01*
X93616580Y-93142713D01*
X93604221Y-93152616D01*
X93604394Y-93152825D01*
X93598384Y-93157796D01*
X93551737Y-93207470D01*
X93549032Y-93210261D01*
X93529273Y-93230021D01*
X93529258Y-93230038D01*
X93526717Y-93233313D01*
X93519153Y-93242167D01*
X93488820Y-93274471D01*
X93488812Y-93274481D01*
X93478979Y-93292367D01*
X93468303Y-93308620D01*
X93455786Y-93324757D01*
X93455785Y-93324760D01*
X93438185Y-93365429D01*
X93433048Y-93375915D01*
X93411703Y-93414741D01*
X93411703Y-93414742D01*
X93406625Y-93434520D01*
X93400325Y-93452922D01*
X93392218Y-93471657D01*
X93385288Y-93515409D01*
X93382920Y-93526845D01*
X93371900Y-93569765D01*
X93371900Y-93590184D01*
X93370373Y-93609583D01*
X93367250Y-93629304D01*
X93367180Y-93629743D01*
X93369202Y-93651134D01*
X93371350Y-93673857D01*
X93371900Y-93685526D01*
X93371900Y-105242966D01*
X93370161Y-105258713D01*
X93370432Y-105258739D01*
X93369698Y-105266505D01*
X93371839Y-105334616D01*
X93371900Y-105338512D01*
X93371900Y-105366459D01*
X93372418Y-105370558D01*
X93373334Y-105382198D01*
X93374726Y-105426489D01*
X93374727Y-105426491D01*
X93380422Y-105446095D01*
X93384367Y-105465142D01*
X93386926Y-105485397D01*
X93386927Y-105485400D01*
X93386928Y-105485404D01*
X93403238Y-105526600D01*
X93407021Y-105537649D01*
X93419381Y-105580192D01*
X93429772Y-105597762D01*
X93438332Y-105615235D01*
X93445847Y-105634217D01*
X93471891Y-105670063D01*
X93478305Y-105679827D01*
X93499046Y-105714898D01*
X93500858Y-105717962D01*
X93500862Y-105717966D01*
X93515289Y-105732393D01*
X93527926Y-105747188D01*
X93539928Y-105763707D01*
X93557186Y-105777984D01*
X93574068Y-105791950D01*
X93582708Y-105799812D01*
X98317783Y-110534888D01*
X98351267Y-110596209D01*
X98354101Y-110622567D01*
X98354101Y-113689655D01*
X98360612Y-113750203D01*
X98360612Y-113750205D01*
X98389558Y-113827809D01*
X98411712Y-113887205D01*
X98499340Y-114004262D01*
X98616397Y-114091890D01*
X98753400Y-114142990D01*
X98780651Y-114145919D01*
X98813946Y-114149500D01*
X98813963Y-114149501D01*
X101911239Y-114149501D01*
X101911255Y-114149500D01*
X101938293Y-114146592D01*
X101971802Y-114142990D01*
X102108805Y-114091890D01*
X102225862Y-114004262D01*
X102313490Y-113887205D01*
X102364590Y-113750202D01*
X102369405Y-113705413D01*
X102371100Y-113689655D01*
X102371101Y-113689638D01*
X102371101Y-110592363D01*
X102371100Y-110592346D01*
X102368289Y-110566205D01*
X104514459Y-110566205D01*
X104534985Y-110813929D01*
X104534987Y-110813938D01*
X104596012Y-111054917D01*
X104695866Y-111282564D01*
X104796164Y-111436082D01*
X105536523Y-110695723D01*
X105560107Y-110776044D01*
X105637839Y-110896998D01*
X105746500Y-110991152D01*
X105877285Y-111050880D01*
X105887066Y-111052286D01*
X105149542Y-111789809D01*
X105196368Y-111826255D01*
X105196370Y-111826256D01*
X105414985Y-111944564D01*
X105414996Y-111944569D01*
X105650106Y-112025283D01*
X105895307Y-112066200D01*
X106143893Y-112066200D01*
X106389093Y-112025283D01*
X106624203Y-111944569D01*
X106624214Y-111944564D01*
X106842828Y-111826257D01*
X106842831Y-111826255D01*
X106889656Y-111789809D01*
X106152133Y-111052286D01*
X106161915Y-111050880D01*
X106292700Y-110991152D01*
X106401361Y-110896998D01*
X106479093Y-110776044D01*
X106502676Y-110695724D01*
X107243034Y-111436082D01*
X107343331Y-111282569D01*
X107443187Y-111054917D01*
X107504212Y-110813938D01*
X107504214Y-110813929D01*
X107524741Y-110566205D01*
X107524741Y-110566194D01*
X107504214Y-110318470D01*
X107504212Y-110318461D01*
X107443187Y-110077482D01*
X107343331Y-109849830D01*
X107243034Y-109696316D01*
X106502676Y-110436675D01*
X106479093Y-110356356D01*
X106401361Y-110235402D01*
X106292700Y-110141248D01*
X106161915Y-110081520D01*
X106152134Y-110080113D01*
X106889657Y-109342590D01*
X106889656Y-109342589D01*
X106842829Y-109306143D01*
X106624214Y-109187835D01*
X106624203Y-109187830D01*
X106389093Y-109107116D01*
X106143893Y-109066200D01*
X105895307Y-109066200D01*
X105650106Y-109107116D01*
X105414996Y-109187830D01*
X105414990Y-109187832D01*
X105196361Y-109306149D01*
X105149542Y-109342588D01*
X105149542Y-109342590D01*
X105887066Y-110080113D01*
X105877285Y-110081520D01*
X105746500Y-110141248D01*
X105637839Y-110235402D01*
X105560107Y-110356356D01*
X105536523Y-110436675D01*
X104796164Y-109696316D01*
X104695867Y-109849832D01*
X104596012Y-110077482D01*
X104534987Y-110318461D01*
X104534985Y-110318470D01*
X104514459Y-110566194D01*
X104514459Y-110566205D01*
X102368289Y-110566205D01*
X102365063Y-110536202D01*
X102364590Y-110531800D01*
X102364252Y-110530895D01*
X102334291Y-110450566D01*
X102313490Y-110394797D01*
X102225862Y-110277740D01*
X102108805Y-110190112D01*
X102089708Y-110182989D01*
X101971804Y-110139012D01*
X101911255Y-110132501D01*
X101911239Y-110132501D01*
X99758567Y-110132501D01*
X99691528Y-110112816D01*
X99670886Y-110096182D01*
X94675219Y-105100514D01*
X94641734Y-105039191D01*
X94638900Y-105012833D01*
X94638900Y-102045850D01*
X110659250Y-102045850D01*
X111909250Y-102045850D01*
X111909250Y-101045850D01*
X112409250Y-101045850D01*
X112409250Y-102045850D01*
X113659250Y-102045850D01*
X113659250Y-101844753D01*
X113656352Y-101802025D01*
X113610418Y-101617326D01*
X113525859Y-101446827D01*
X113525857Y-101446824D01*
X113406617Y-101298483D01*
X113406616Y-101298482D01*
X113258275Y-101179242D01*
X113258272Y-101179240D01*
X113087773Y-101094681D01*
X112903074Y-101048747D01*
X112860347Y-101045850D01*
X112409250Y-101045850D01*
X111909250Y-101045850D01*
X111458153Y-101045850D01*
X111415425Y-101048747D01*
X111230726Y-101094681D01*
X111060227Y-101179240D01*
X111060224Y-101179242D01*
X110911883Y-101298482D01*
X110911882Y-101298483D01*
X110792642Y-101446824D01*
X110792640Y-101446827D01*
X110708081Y-101617326D01*
X110662147Y-101802025D01*
X110659250Y-101844753D01*
X110659250Y-102045850D01*
X94638900Y-102045850D01*
X94638900Y-98112301D01*
X110705304Y-98112301D01*
X110705499Y-98114786D01*
X110751318Y-98272498D01*
X110834914Y-98413852D01*
X110834921Y-98413861D01*
X110951038Y-98529978D01*
X110951047Y-98529985D01*
X111092403Y-98613582D01*
X111092406Y-98613583D01*
X111250104Y-98659399D01*
X111250110Y-98659400D01*
X111286950Y-98662299D01*
X111286966Y-98662300D01*
X111690100Y-98662300D01*
X111690100Y-98112300D01*
X112190100Y-98112300D01*
X112190100Y-98662300D01*
X112593234Y-98662300D01*
X112593249Y-98662299D01*
X112630089Y-98659400D01*
X112630095Y-98659399D01*
X112787793Y-98613583D01*
X112787796Y-98613582D01*
X112929152Y-98529985D01*
X112929161Y-98529978D01*
X113045278Y-98413861D01*
X113045285Y-98413852D01*
X113128881Y-98272498D01*
X113174700Y-98114786D01*
X113174895Y-98112301D01*
X113174895Y-98112300D01*
X112190100Y-98112300D01*
X111690100Y-98112300D01*
X110705305Y-98112300D01*
X110705304Y-98112301D01*
X94638900Y-98112301D01*
X94638900Y-97612298D01*
X110705304Y-97612298D01*
X110705305Y-97612300D01*
X111690100Y-97612300D01*
X111690100Y-97062300D01*
X111286950Y-97062300D01*
X111250110Y-97065199D01*
X111250104Y-97065200D01*
X111092406Y-97111016D01*
X111092403Y-97111017D01*
X110951047Y-97194614D01*
X110951038Y-97194621D01*
X110834921Y-97310738D01*
X110834914Y-97310747D01*
X110751318Y-97452101D01*
X110705499Y-97609813D01*
X110705304Y-97612298D01*
X94638900Y-97612298D01*
X94638900Y-96063454D01*
X95196100Y-96063454D01*
X95202611Y-96124002D01*
X95202611Y-96124004D01*
X95245074Y-96237847D01*
X95253711Y-96261004D01*
X95341339Y-96378061D01*
X95458396Y-96465689D01*
X95595399Y-96516789D01*
X95622650Y-96519718D01*
X95655945Y-96523299D01*
X95655962Y-96523300D01*
X98253238Y-96523300D01*
X98253254Y-96523299D01*
X98280292Y-96520391D01*
X98313801Y-96516789D01*
X98450804Y-96465689D01*
X98567861Y-96378061D01*
X98655489Y-96261004D01*
X98706589Y-96124001D01*
X98712876Y-96065525D01*
X98713099Y-96063454D01*
X98713100Y-96063437D01*
X98713100Y-94966162D01*
X98713099Y-94966145D01*
X98708777Y-94925950D01*
X98706589Y-94905599D01*
X98655489Y-94768596D01*
X98567861Y-94651539D01*
X98450804Y-94563911D01*
X98313803Y-94512811D01*
X98253254Y-94506300D01*
X98253238Y-94506300D01*
X95655962Y-94506300D01*
X95655945Y-94506300D01*
X95595397Y-94512811D01*
X95595395Y-94512811D01*
X95458395Y-94563911D01*
X95341339Y-94651539D01*
X95253711Y-94768595D01*
X95202611Y-94905595D01*
X95202611Y-94905597D01*
X95196100Y-94966145D01*
X95196100Y-96063454D01*
X94638900Y-96063454D01*
X94638900Y-93963566D01*
X94658585Y-93896527D01*
X94675219Y-93875885D01*
X94866485Y-93684619D01*
X94927808Y-93651134D01*
X94954166Y-93648300D01*
X95125580Y-93648300D01*
X95192619Y-93667985D01*
X95238374Y-93720789D01*
X95241761Y-93728966D01*
X95253710Y-93761003D01*
X95262885Y-93773259D01*
X95341339Y-93878061D01*
X95458396Y-93965689D01*
X95595399Y-94016789D01*
X95622650Y-94019718D01*
X95655945Y-94023299D01*
X95655962Y-94023300D01*
X98253238Y-94023300D01*
X98253254Y-94023299D01*
X98280292Y-94020391D01*
X98313801Y-94016789D01*
X98450804Y-93965689D01*
X98567861Y-93878061D01*
X98655489Y-93761004D01*
X98706589Y-93624001D01*
X98710392Y-93588628D01*
X98713099Y-93563454D01*
X98713100Y-93563437D01*
X98713100Y-93092566D01*
X98732785Y-93025527D01*
X98785589Y-92979772D01*
X98854747Y-92969828D01*
X98918303Y-92998853D01*
X98924781Y-93004885D01*
X100427281Y-94507385D01*
X100460766Y-94568708D01*
X100463600Y-94595066D01*
X100463600Y-95030179D01*
X100473864Y-95130636D01*
X100527797Y-95293398D01*
X100527802Y-95293409D01*
X100617812Y-95439336D01*
X100617815Y-95439340D01*
X100739059Y-95560584D01*
X100739063Y-95560587D01*
X100884990Y-95650597D01*
X100884993Y-95650598D01*
X100884999Y-95650602D01*
X101047764Y-95704536D01*
X101148228Y-95714800D01*
X101148233Y-95714800D01*
X101695967Y-95714800D01*
X101695972Y-95714800D01*
X101796436Y-95704536D01*
X101959201Y-95650602D01*
X102105140Y-95560585D01*
X102226385Y-95439340D01*
X102316402Y-95293401D01*
X102370336Y-95130636D01*
X102380600Y-95030172D01*
X102380600Y-94182428D01*
X102370336Y-94081964D01*
X102316402Y-93919199D01*
X102316398Y-93919193D01*
X102316397Y-93919190D01*
X102226387Y-93773263D01*
X102226384Y-93773259D01*
X102105140Y-93652015D01*
X102105136Y-93652012D01*
X101959209Y-93562002D01*
X101959203Y-93561999D01*
X101959201Y-93561998D01*
X101796436Y-93508064D01*
X101695979Y-93497800D01*
X101695972Y-93497800D01*
X101260867Y-93497800D01*
X101193828Y-93478115D01*
X101173186Y-93461481D01*
X100772341Y-93060636D01*
X100738856Y-92999313D01*
X100743840Y-92929621D01*
X100785712Y-92873688D01*
X100851176Y-92849271D01*
X100899021Y-92855248D01*
X101010828Y-92892297D01*
X101047763Y-92904536D01*
X101083794Y-92908217D01*
X101148228Y-92914800D01*
X101148233Y-92914800D01*
X101695967Y-92914800D01*
X101695972Y-92914800D01*
X101796436Y-92904536D01*
X101959201Y-92850602D01*
X102105140Y-92760585D01*
X102226385Y-92639340D01*
X102316402Y-92493401D01*
X102370336Y-92330636D01*
X102380600Y-92230172D01*
X102380600Y-91382428D01*
X102370336Y-91281964D01*
X102316402Y-91119199D01*
X102316398Y-91119193D01*
X102316397Y-91119190D01*
X102226387Y-90973263D01*
X102226384Y-90973259D01*
X102105140Y-90852015D01*
X102105136Y-90852012D01*
X101959209Y-90762002D01*
X101959203Y-90761999D01*
X101959201Y-90761998D01*
X101796436Y-90708064D01*
X101695979Y-90697800D01*
X101695972Y-90697800D01*
X101260867Y-90697800D01*
X101193828Y-90678115D01*
X101173186Y-90661481D01*
X100637688Y-90125983D01*
X100627787Y-90113623D01*
X100627577Y-90113798D01*
X100622601Y-90107784D01*
X100622600Y-90107782D01*
X100572931Y-90061140D01*
X100570134Y-90058429D01*
X100550366Y-90038661D01*
X100547104Y-90036131D01*
X100538219Y-90028543D01*
X100505921Y-89998214D01*
X100505919Y-89998212D01*
X100488031Y-89988378D01*
X100471770Y-89977697D01*
X100455639Y-89965184D01*
X100414975Y-89947588D01*
X100404485Y-89942449D01*
X100365660Y-89921105D01*
X100365656Y-89921104D01*
X100345887Y-89916028D01*
X100327481Y-89909726D01*
X100308744Y-89901618D01*
X100308745Y-89901618D01*
X100264983Y-89894687D01*
X100253547Y-89892319D01*
X100238793Y-89888531D01*
X100210632Y-89881300D01*
X100210630Y-89881300D01*
X100190216Y-89881300D01*
X100170817Y-89879773D01*
X100150658Y-89876580D01*
X100150657Y-89876580D01*
X100106543Y-89880750D01*
X100094874Y-89881300D01*
X98783620Y-89881300D01*
X98716581Y-89861615D01*
X98670826Y-89808811D01*
X98667439Y-89800634D01*
X98655489Y-89768596D01*
X98640489Y-89748559D01*
X98567861Y-89651539D01*
X98450804Y-89563911D01*
X98447370Y-89562630D01*
X98313803Y-89512811D01*
X98253254Y-89506300D01*
X98253238Y-89506300D01*
X95655962Y-89506300D01*
X95655945Y-89506300D01*
X95595397Y-89512811D01*
X95595395Y-89512811D01*
X95458395Y-89563911D01*
X95341339Y-89651539D01*
X95253711Y-89768595D01*
X95202611Y-89905595D01*
X95202611Y-89905597D01*
X95196100Y-89966145D01*
X95196100Y-90948800D01*
X95176415Y-91015839D01*
X95123611Y-91061594D01*
X95072100Y-91072800D01*
X94235867Y-91072800D01*
X94168828Y-91053115D01*
X94148186Y-91036481D01*
X93237688Y-90125983D01*
X93227787Y-90113623D01*
X93227577Y-90113798D01*
X93222601Y-90107784D01*
X93222600Y-90107782D01*
X93172915Y-90061125D01*
X93170150Y-90058445D01*
X93150366Y-90038661D01*
X93147104Y-90036131D01*
X93138219Y-90028543D01*
X93105921Y-89998214D01*
X93105919Y-89998212D01*
X93088031Y-89988378D01*
X93071770Y-89977697D01*
X93055639Y-89965184D01*
X93014975Y-89947588D01*
X93004485Y-89942449D01*
X92965660Y-89921105D01*
X92965656Y-89921104D01*
X92945887Y-89916028D01*
X92927481Y-89909726D01*
X92908744Y-89901618D01*
X92908745Y-89901618D01*
X92864983Y-89894687D01*
X92853547Y-89892319D01*
X92838793Y-89888531D01*
X92810632Y-89881300D01*
X92810630Y-89881300D01*
X92790216Y-89881300D01*
X92770806Y-89879771D01*
X92763796Y-89878660D01*
X92700664Y-89848725D01*
X92667025Y-89799524D01*
X92658918Y-89777789D01*
X92655489Y-89768596D01*
X92567861Y-89651539D01*
X92450804Y-89563911D01*
X92447370Y-89562630D01*
X92313803Y-89512811D01*
X92253254Y-89506300D01*
X92253238Y-89506300D01*
X89655962Y-89506300D01*
X89655945Y-89506300D01*
X89595397Y-89512811D01*
X89595395Y-89512811D01*
X89458395Y-89563911D01*
X89341339Y-89651539D01*
X89253711Y-89768595D01*
X89202611Y-89905595D01*
X89202611Y-89905597D01*
X89196100Y-89966145D01*
X89196100Y-91063454D01*
X88697800Y-91063454D01*
X88697800Y-88734462D01*
X88697799Y-88734445D01*
X88692864Y-88688553D01*
X88691289Y-88673899D01*
X88690111Y-88670742D01*
X88656266Y-88580000D01*
X88640189Y-88536896D01*
X88552561Y-88419839D01*
X88435504Y-88332211D01*
X88298503Y-88281111D01*
X88237954Y-88274600D01*
X88237938Y-88274600D01*
X86140662Y-88274600D01*
X86140645Y-88274600D01*
X86080097Y-88281111D01*
X86080095Y-88281111D01*
X85943095Y-88332211D01*
X85826039Y-88419839D01*
X85738411Y-88536895D01*
X85687311Y-88673895D01*
X85687311Y-88673897D01*
X85680800Y-88734445D01*
X85680800Y-93431754D01*
X81727180Y-93431754D01*
X81908697Y-93290473D01*
X81908707Y-93290464D01*
X82077067Y-93107578D01*
X82213032Y-92899467D01*
X82312887Y-92671817D01*
X82373912Y-92430838D01*
X82373914Y-92430830D01*
X82389299Y-92245154D01*
X82389300Y-92245139D01*
X82389300Y-91333100D01*
X81389300Y-91333100D01*
X81389300Y-90833100D01*
X82389300Y-90833100D01*
X82389300Y-89921061D01*
X82389299Y-89921045D01*
X82373914Y-89735369D01*
X82373912Y-89735361D01*
X82312887Y-89494382D01*
X82213032Y-89266732D01*
X82077067Y-89058621D01*
X81908707Y-88875735D01*
X81908697Y-88875726D01*
X81712537Y-88723048D01*
X81712528Y-88723042D01*
X81493914Y-88604735D01*
X81493903Y-88604730D01*
X81258792Y-88524016D01*
X81139300Y-88504076D01*
X81139300Y-89549413D01*
X81099144Y-89523607D01*
X80961189Y-89483100D01*
X80817411Y-89483100D01*
X80679456Y-89523607D01*
X80639300Y-89549413D01*
X80639300Y-88504076D01*
X80639299Y-88504076D01*
X80519807Y-88524016D01*
X80284696Y-88604730D01*
X80284685Y-88604735D01*
X80066071Y-88723042D01*
X80066062Y-88723048D01*
X79869902Y-88875726D01*
X79869892Y-88875735D01*
X79701532Y-89058621D01*
X79565567Y-89266732D01*
X79465712Y-89494382D01*
X79404687Y-89735361D01*
X79404685Y-89735369D01*
X79389300Y-89921045D01*
X79389300Y-90833100D01*
X80389300Y-90833100D01*
X80389300Y-91333100D01*
X79389300Y-91333100D01*
X79389300Y-92245154D01*
X72922600Y-92245154D01*
X72922600Y-91030501D01*
X76085046Y-91030501D01*
X76095045Y-91240427D01*
X76144596Y-91444678D01*
X76144598Y-91444682D01*
X76231898Y-91635843D01*
X76231901Y-91635848D01*
X76231902Y-91635850D01*
X76231904Y-91635853D01*
X76345279Y-91795066D01*
X76353815Y-91807053D01*
X76353820Y-91807059D01*
X76505920Y-91952085D01*
X76600878Y-92013111D01*
X76682728Y-92065713D01*
X76877843Y-92143825D01*
X76949859Y-92157705D01*
X77084214Y-92183600D01*
X77084215Y-92183600D01*
X77241719Y-92183600D01*
X77241725Y-92183600D01*
X77398518Y-92168628D01*
X77600175Y-92109416D01*
X77786982Y-92013111D01*
X77787364Y-92012811D01*
X77952183Y-91883194D01*
X77952186Y-91883192D01*
X78089819Y-91724356D01*
X78106367Y-91695695D01*
X78194901Y-91542349D01*
X78194900Y-91542349D01*
X78194904Y-91542344D01*
X78263644Y-91343733D01*
X78293554Y-91135702D01*
X78283554Y-90925770D01*
X78234004Y-90721524D01*
X78223170Y-90697800D01*
X78146701Y-90530356D01*
X78146698Y-90530351D01*
X78146697Y-90530350D01*
X78146696Y-90530347D01*
X78024786Y-90359148D01*
X78024784Y-90359146D01*
X78024779Y-90359140D01*
X77872679Y-90214114D01*
X77695874Y-90100488D01*
X77500755Y-90022374D01*
X77294386Y-89982600D01*
X77294385Y-89982600D01*
X77136875Y-89982600D01*
X76980082Y-89997572D01*
X76980078Y-89997573D01*
X76778427Y-90056783D01*
X76591613Y-90153091D01*
X76426416Y-90283005D01*
X76426412Y-90283009D01*
X76288778Y-90441846D01*
X76183698Y-90623850D01*
X76114956Y-90822465D01*
X76114956Y-90822467D01*
X76087726Y-91011864D01*
X76085046Y-91030501D01*
X72922600Y-91030501D01*
X72922600Y-88159400D01*
X98916201Y-88159400D01*
X98916201Y-88434386D01*
X98926694Y-88537097D01*
X98981841Y-88703519D01*
X98981843Y-88703524D01*
X99073884Y-88852745D01*
X99197854Y-88976715D01*
X99347075Y-89068756D01*
X99347080Y-89068758D01*
X99513502Y-89123905D01*
X99513509Y-89123906D01*
X99616219Y-89134399D01*
X99753699Y-89134399D01*
X100253700Y-89134399D01*
X100391172Y-89134399D01*
X100391186Y-89134398D01*
X100493897Y-89123905D01*
X100660319Y-89068758D01*
X100660324Y-89068756D01*
X100809545Y-88976715D01*
X100933516Y-88852744D01*
X100937998Y-88847077D01*
X100940191Y-88848811D01*
X100982557Y-88810665D01*
X101051514Y-88799408D01*
X101115610Y-88827218D01*
X101137534Y-88852506D01*
X101137689Y-88852385D01*
X101140383Y-88855792D01*
X101141745Y-88857363D01*
X101142170Y-88858052D01*
X101267548Y-88983430D01*
X101418462Y-89076515D01*
X101586774Y-89132287D01*
X101690655Y-89142900D01*
X102466744Y-89142899D01*
X102570626Y-89132287D01*
X102738938Y-89076515D01*
X102889852Y-88983430D01*
X102889855Y-88983426D01*
X102892618Y-88981242D01*
X102894874Y-88980331D01*
X102895999Y-88979638D01*
X102896117Y-88979830D01*
X102957412Y-88955099D01*
X103026054Y-88968136D01*
X103075071Y-89013407D01*
X103165769Y-89160450D01*
X103291148Y-89285829D01*
X103291152Y-89285832D01*
X103442061Y-89378915D01*
X103442064Y-89378916D01*
X103610371Y-89434686D01*
X103610372Y-89434686D01*
X103610375Y-89434687D01*
X103714256Y-89445300D01*
X103964600Y-89445300D01*
X104031639Y-89464985D01*
X104077394Y-89517789D01*
X104088600Y-89569300D01*
X104088600Y-90752810D01*
X104068915Y-90819849D01*
X104041519Y-90850070D01*
X104039061Y-90852013D01*
X103917815Y-90973259D01*
X103917812Y-90973263D01*
X103827802Y-91119190D01*
X103827797Y-91119201D01*
X103773864Y-91281963D01*
X103763600Y-91382420D01*
X103763600Y-92230179D01*
X103773864Y-92330636D01*
X103827797Y-92493398D01*
X103827802Y-92493409D01*
X103917812Y-92639336D01*
X103917815Y-92639340D01*
X104039059Y-92760584D01*
X104041511Y-92762523D01*
X104042755Y-92764280D01*
X104044167Y-92765692D01*
X104043925Y-92765933D01*
X104081888Y-92819545D01*
X104088600Y-92859789D01*
X104088600Y-93552810D01*
X104068915Y-93619849D01*
X104041519Y-93650070D01*
X104039061Y-93652013D01*
X103917815Y-93773259D01*
X103917812Y-93773263D01*
X103827802Y-93919190D01*
X103827797Y-93919201D01*
X103773864Y-94081963D01*
X103763600Y-94182420D01*
X103763600Y-95030179D01*
X103773864Y-95130636D01*
X103827797Y-95293398D01*
X103827802Y-95293409D01*
X103917812Y-95439336D01*
X103917815Y-95439340D01*
X104039059Y-95560584D01*
X104039063Y-95560587D01*
X104184990Y-95650597D01*
X104184993Y-95650598D01*
X104184999Y-95650602D01*
X104347764Y-95704536D01*
X104448228Y-95714800D01*
X104448233Y-95714800D01*
X104995967Y-95714800D01*
X104995972Y-95714800D01*
X105096436Y-95704536D01*
X105259201Y-95650602D01*
X105405140Y-95560585D01*
X105526385Y-95439340D01*
X105616402Y-95293401D01*
X105670336Y-95130636D01*
X105680600Y-95030172D01*
X105680600Y-94182428D01*
X105670336Y-94081964D01*
X105621505Y-93934600D01*
X108096201Y-93934600D01*
X108096201Y-94084586D01*
X108106694Y-94187297D01*
X108161841Y-94353719D01*
X108161843Y-94353724D01*
X108253884Y-94502945D01*
X108377854Y-94626915D01*
X108527075Y-94718956D01*
X108527080Y-94718958D01*
X108693502Y-94774105D01*
X108693509Y-94774106D01*
X108796219Y-94784599D01*
X109046199Y-94784599D01*
X109046200Y-94784598D01*
X109046200Y-93934600D01*
X109546200Y-93934600D01*
X109546200Y-94784599D01*
X109796172Y-94784599D01*
X109796186Y-94784598D01*
X109898897Y-94774105D01*
X110065319Y-94718958D01*
X110065324Y-94718956D01*
X110214545Y-94626915D01*
X110338515Y-94502945D01*
X110430556Y-94353724D01*
X110430558Y-94353719D01*
X110485705Y-94187297D01*
X110485706Y-94187290D01*
X110496199Y-94084586D01*
X110496200Y-94084573D01*
X110496200Y-93934600D01*
X109546200Y-93934600D01*
X109046200Y-93934600D01*
X108096201Y-93934600D01*
X105621505Y-93934600D01*
X105616402Y-93919199D01*
X105616398Y-93919193D01*
X105616397Y-93919190D01*
X105526387Y-93773263D01*
X105526384Y-93773259D01*
X105405138Y-93652013D01*
X105402681Y-93650070D01*
X105401434Y-93648309D01*
X105400033Y-93646908D01*
X105400272Y-93646668D01*
X105362309Y-93593045D01*
X105355600Y-93552810D01*
X105355600Y-92859789D01*
X105375285Y-92792750D01*
X105402689Y-92762523D01*
X105405134Y-92760588D01*
X105405140Y-92760585D01*
X105526385Y-92639340D01*
X105616402Y-92493401D01*
X105670336Y-92330636D01*
X105680600Y-92230172D01*
X105680600Y-91382428D01*
X105670336Y-91281964D01*
X105616402Y-91119199D01*
X105616398Y-91119193D01*
X105616397Y-91119190D01*
X105526387Y-90973263D01*
X105526384Y-90973259D01*
X105405138Y-90852013D01*
X105402681Y-90850070D01*
X105401434Y-90848309D01*
X105400033Y-90846908D01*
X105400272Y-90846668D01*
X105362309Y-90793045D01*
X105355600Y-90752810D01*
X105355600Y-89087367D01*
X105374064Y-89022266D01*
X105381915Y-89009538D01*
X105437687Y-88841225D01*
X105448299Y-88737351D01*
X105981300Y-88737351D01*
X105991913Y-88841228D01*
X106047683Y-89009535D01*
X106047684Y-89009538D01*
X106140767Y-89160447D01*
X106140770Y-89160451D01*
X106266148Y-89285829D01*
X106266152Y-89285832D01*
X106417061Y-89378915D01*
X106444885Y-89388134D01*
X106498817Y-89406005D01*
X106556262Y-89445775D01*
X106582837Y-89508167D01*
X106583825Y-89515993D01*
X106583828Y-89516004D01*
X106600138Y-89557200D01*
X106603921Y-89568249D01*
X106616281Y-89610792D01*
X106626672Y-89628362D01*
X106635232Y-89645835D01*
X106642747Y-89664817D01*
X106668791Y-89700663D01*
X106675205Y-89710427D01*
X106697758Y-89748562D01*
X106697762Y-89748566D01*
X106712189Y-89762993D01*
X106724826Y-89777788D01*
X106736828Y-89794307D01*
X106769507Y-89821342D01*
X106770968Y-89822550D01*
X106779609Y-89830413D01*
X107148513Y-90199318D01*
X107158422Y-90211685D01*
X107158632Y-90211512D01*
X107163601Y-90217520D01*
X107188088Y-90240514D01*
X107213286Y-90264175D01*
X107216051Y-90266856D01*
X107235823Y-90286629D01*
X107235827Y-90286632D01*
X107235830Y-90286635D01*
X107239112Y-90289181D01*
X107247972Y-90296749D01*
X107280279Y-90327086D01*
X107280281Y-90327087D01*
X107298162Y-90336917D01*
X107314429Y-90347602D01*
X107330560Y-90360115D01*
X107350757Y-90368854D01*
X107371225Y-90377710D01*
X107381704Y-90382844D01*
X107420540Y-90404195D01*
X107440316Y-90409272D01*
X107458723Y-90415574D01*
X107477455Y-90423681D01*
X107521230Y-90430613D01*
X107532645Y-90432978D01*
X107575570Y-90444000D01*
X107595984Y-90444000D01*
X107615383Y-90445527D01*
X107635543Y-90448720D01*
X107679657Y-90444550D01*
X107691326Y-90444000D01*
X108094186Y-90444000D01*
X108161225Y-90463685D01*
X108199724Y-90502903D01*
X108272967Y-90621648D01*
X108272970Y-90621652D01*
X108292037Y-90640719D01*
X108325522Y-90702042D01*
X108320538Y-90771734D01*
X108292037Y-90816081D01*
X108247171Y-90860946D01*
X108154086Y-91011859D01*
X108154084Y-91011864D01*
X108098313Y-91180172D01*
X108087700Y-91284047D01*
X108087700Y-92085137D01*
X108087701Y-92085153D01*
X108098313Y-92189027D01*
X108154084Y-92357335D01*
X108154086Y-92357340D01*
X108167507Y-92379098D01*
X108232658Y-92484725D01*
X108247171Y-92508253D01*
X108341847Y-92602929D01*
X108375332Y-92664252D01*
X108370348Y-92733944D01*
X108341848Y-92778291D01*
X108253882Y-92866257D01*
X108161843Y-93015475D01*
X108161841Y-93015480D01*
X108106694Y-93181902D01*
X108106693Y-93181909D01*
X108096200Y-93284613D01*
X108096200Y-93434600D01*
X110445134Y-93434600D01*
X110512173Y-93454285D01*
X110532815Y-93470919D01*
X110770310Y-93708414D01*
X110780216Y-93720778D01*
X110780426Y-93720605D01*
X110785397Y-93726613D01*
X110785400Y-93726618D01*
X110835101Y-93773290D01*
X110837865Y-93775969D01*
X110857630Y-93795734D01*
X110860904Y-93798273D01*
X110869770Y-93805847D01*
X110902078Y-93836186D01*
X110919967Y-93846020D01*
X110936233Y-93856704D01*
X110952359Y-93869213D01*
X110993016Y-93886807D01*
X111003507Y-93891946D01*
X111042340Y-93913295D01*
X111062118Y-93918373D01*
X111080519Y-93924673D01*
X111099255Y-93932781D01*
X111143030Y-93939713D01*
X111154445Y-93942078D01*
X111197370Y-93953100D01*
X111217784Y-93953100D01*
X111237183Y-93954627D01*
X111257343Y-93957820D01*
X111301457Y-93953650D01*
X111313126Y-93953100D01*
X112348091Y-93953100D01*
X112415130Y-93972785D01*
X112440240Y-93994127D01*
X112441321Y-93995328D01*
X112444147Y-93998466D01*
X112598648Y-94110718D01*
X112639420Y-94128870D01*
X112692655Y-94174119D01*
X112712977Y-94240968D01*
X112693932Y-94308192D01*
X112676664Y-94329830D01*
X111889014Y-95117481D01*
X111827691Y-95150966D01*
X111801333Y-95153800D01*
X111286092Y-95153800D01*
X111248770Y-95156737D01*
X111248764Y-95156738D01*
X111089003Y-95203153D01*
X111088998Y-95203155D01*
X110945796Y-95287844D01*
X110945787Y-95287851D01*
X110828151Y-95405487D01*
X110828144Y-95405496D01*
X110743455Y-95548698D01*
X110743453Y-95548703D01*
X110697038Y-95708464D01*
X110697037Y-95708470D01*
X110694100Y-95745792D01*
X110694100Y-96178807D01*
X110697037Y-96216129D01*
X110697038Y-96216135D01*
X110743453Y-96375896D01*
X110743455Y-96375901D01*
X110828144Y-96519103D01*
X110828151Y-96519112D01*
X110945787Y-96636748D01*
X110945791Y-96636751D01*
X110945793Y-96636753D01*
X111088999Y-96721445D01*
X111119919Y-96730428D01*
X111248764Y-96767861D01*
X111248767Y-96767861D01*
X111248769Y-96767862D01*
X111286098Y-96770800D01*
X112445100Y-96770800D01*
X112512139Y-96790485D01*
X112557894Y-96843289D01*
X112569100Y-96894800D01*
X112569100Y-96938300D01*
X112549415Y-97005339D01*
X112496611Y-97051094D01*
X112445100Y-97062300D01*
X112190100Y-97062300D01*
X112190100Y-97612300D01*
X112830069Y-97612300D01*
X112893187Y-97629566D01*
X112963999Y-97671445D01*
X112964001Y-97671445D01*
X112964002Y-97671446D01*
X113123764Y-97717861D01*
X113123767Y-97717861D01*
X113123769Y-97717862D01*
X113161098Y-97720800D01*
X113676334Y-97720800D01*
X113743373Y-97740485D01*
X113764015Y-97757119D01*
X114761379Y-98754483D01*
X114794864Y-98815806D01*
X114797019Y-98855124D01*
X114783686Y-98981989D01*
X114783496Y-98983800D01*
X114803458Y-99173728D01*
X114803459Y-99173731D01*
X114862470Y-99355349D01*
X114862473Y-99355356D01*
X114957960Y-99520744D01*
X115060290Y-99634394D01*
X115085234Y-99662097D01*
X115085747Y-99662666D01*
X115240248Y-99774918D01*
X115414712Y-99852594D01*
X115601513Y-99892300D01*
X115792486Y-99892300D01*
X115792487Y-99892300D01*
X115873349Y-99875112D01*
X115943015Y-99880428D01*
X115998748Y-99922564D01*
X116022854Y-99988144D01*
X116007677Y-100056346D01*
X115986810Y-100084083D01*
X114647779Y-101423114D01*
X114635420Y-101433018D01*
X114635593Y-101433227D01*
X114629582Y-101438200D01*
X114582938Y-101487869D01*
X114580233Y-101490660D01*
X114560473Y-101510421D01*
X114560458Y-101510438D01*
X114557917Y-101513713D01*
X114550353Y-101522567D01*
X114520020Y-101554871D01*
X114520012Y-101554881D01*
X114510179Y-101572767D01*
X114499503Y-101589020D01*
X114486986Y-101605157D01*
X114486985Y-101605160D01*
X114469385Y-101645829D01*
X114464248Y-101656315D01*
X114442903Y-101695141D01*
X114442903Y-101695142D01*
X114437825Y-101714920D01*
X114431525Y-101733322D01*
X114423418Y-101752057D01*
X114416488Y-101795809D01*
X114414120Y-101807245D01*
X114403100Y-101850165D01*
X114403100Y-101870584D01*
X114401573Y-101889983D01*
X114398380Y-101910141D01*
X114398380Y-101910142D01*
X114402550Y-101954257D01*
X114403100Y-101965926D01*
X114403100Y-103585382D01*
X114383415Y-103652421D01*
X114330611Y-103698176D01*
X114261453Y-103708120D01*
X114253320Y-103706673D01*
X114249966Y-103705960D01*
X114192287Y-103693700D01*
X114001313Y-103693700D01*
X113814514Y-103733405D01*
X113688036Y-103789716D01*
X113618785Y-103799000D01*
X113555509Y-103769371D01*
X113534052Y-103741676D01*
X113532839Y-103742464D01*
X113529300Y-103737015D01*
X113527937Y-103735332D01*
X113412420Y-103592680D01*
X113343383Y-103536775D01*
X113303673Y-103479289D01*
X113301345Y-103409458D01*
X113337141Y-103349454D01*
X113343734Y-103343762D01*
X113406617Y-103293216D01*
X113525857Y-103144875D01*
X113525859Y-103144872D01*
X113610418Y-102974373D01*
X113656352Y-102789674D01*
X113659250Y-102746946D01*
X113659250Y-102545850D01*
X110659250Y-102545850D01*
X110659250Y-102746946D01*
X110662147Y-102789674D01*
X110708081Y-102974373D01*
X110792640Y-103144872D01*
X110792642Y-103144875D01*
X110911880Y-103293214D01*
X110974766Y-103343762D01*
X111014685Y-103401105D01*
X111017265Y-103470927D01*
X110981687Y-103531060D01*
X110975116Y-103536775D01*
X110906080Y-103592679D01*
X110789207Y-103737005D01*
X110789202Y-103737012D01*
X110704887Y-103902489D01*
X110656819Y-104081880D01*
X110650750Y-104159001D01*
X110650750Y-105032682D01*
X110650751Y-105032701D01*
X110656819Y-105109819D01*
X110704887Y-105289210D01*
X110789202Y-105454687D01*
X110789207Y-105454694D01*
X110906080Y-105599020D01*
X110968398Y-105649485D01*
X111008109Y-105706972D01*
X111010436Y-105776803D01*
X110974640Y-105836807D01*
X110968398Y-105842215D01*
X110906080Y-105892679D01*
X110789207Y-106037005D01*
X110789202Y-106037012D01*
X110704887Y-106202489D01*
X110656819Y-106381880D01*
X110650750Y-106459001D01*
X110650750Y-107332682D01*
X110650751Y-107332701D01*
X110656819Y-107409819D01*
X110689996Y-107533634D01*
X110704888Y-107589212D01*
X110789203Y-107754689D01*
X110906080Y-107899020D01*
X111050411Y-108015897D01*
X111206576Y-108095467D01*
X111219295Y-108101948D01*
X111270091Y-108149923D01*
X111286886Y-108217744D01*
X111264348Y-108283879D01*
X111228098Y-108317971D01*
X111134798Y-108375519D01*
X111009421Y-108500896D01*
X110916336Y-108651809D01*
X110916334Y-108651814D01*
X110860563Y-108820122D01*
X110849950Y-108923997D01*
X110849950Y-109154782D01*
X110830265Y-109221821D01*
X110813631Y-109242463D01*
X110101179Y-109954914D01*
X110088820Y-109964818D01*
X110088993Y-109965027D01*
X110082982Y-109970000D01*
X110036337Y-110019670D01*
X110033632Y-110022461D01*
X110013873Y-110042221D01*
X110013858Y-110042238D01*
X110011317Y-110045513D01*
X110003753Y-110054367D01*
X109973420Y-110086671D01*
X109973412Y-110086681D01*
X109963579Y-110104567D01*
X109952903Y-110120820D01*
X109940386Y-110136957D01*
X109940385Y-110136960D01*
X109922785Y-110177629D01*
X109917648Y-110188115D01*
X109896303Y-110226941D01*
X109896303Y-110226942D01*
X109891225Y-110246720D01*
X109884925Y-110265122D01*
X109876818Y-110283857D01*
X109869888Y-110327609D01*
X109867520Y-110339045D01*
X109856500Y-110381965D01*
X109856500Y-110402384D01*
X109854973Y-110421783D01*
X109851780Y-110441941D01*
X109851780Y-110441942D01*
X109855950Y-110486057D01*
X109856500Y-110497726D01*
X109856500Y-119580554D01*
X109836815Y-119647593D01*
X109797290Y-119686281D01*
X109600589Y-119806820D01*
X109600586Y-119806821D01*
X109420031Y-119961031D01*
X109265821Y-120141586D01*
X109265820Y-120141589D01*
X109141759Y-120344037D01*
X109141757Y-120344040D01*
X109050895Y-120563402D01*
X109050895Y-120563404D01*
X108995465Y-120794285D01*
X108976835Y-121031000D01*
X108995465Y-121267714D01*
X109050895Y-121498595D01*
X109050895Y-121498597D01*
X109141757Y-121717959D01*
X109141759Y-121717962D01*
X109265820Y-121920410D01*
X109265821Y-121920413D01*
X109318076Y-121981596D01*
X109420031Y-122100969D01*
X109559797Y-122220340D01*
X109600586Y-122255178D01*
X109600588Y-122255178D01*
X109803037Y-122379240D01*
X109803040Y-122379242D01*
X110022403Y-122470104D01*
X110022404Y-122470104D01*
X110022406Y-122470105D01*
X110253289Y-122525535D01*
X110490000Y-122544165D01*
X110726711Y-122525535D01*
X110957594Y-122470105D01*
X110957596Y-122470104D01*
X110957597Y-122470104D01*
X111176959Y-122379242D01*
X111176960Y-122379241D01*
X111176963Y-122379240D01*
X111379416Y-122255176D01*
X111559969Y-122100969D01*
X111714176Y-121920416D01*
X111838240Y-121717963D01*
X111929105Y-121498594D01*
X111984535Y-121267711D01*
X112003165Y-121031000D01*
X111984535Y-120794289D01*
X111929105Y-120563406D01*
X111929104Y-120563403D01*
X111929104Y-120563402D01*
X111838242Y-120344040D01*
X111838240Y-120344037D01*
X111714179Y-120141589D01*
X111714178Y-120141586D01*
X111666989Y-120086335D01*
X111559969Y-119961031D01*
X111380078Y-119807389D01*
X111379413Y-119806821D01*
X111379410Y-119806820D01*
X111182710Y-119686281D01*
X111135835Y-119634469D01*
X111123500Y-119580554D01*
X111123500Y-112525677D01*
X111143185Y-112458638D01*
X111195989Y-112412883D01*
X111265147Y-112402939D01*
X111286504Y-112407971D01*
X111455752Y-112464055D01*
X111455759Y-112464056D01*
X111558469Y-112474549D01*
X111833449Y-112474549D01*
X111833450Y-112474548D01*
X111833450Y-111637050D01*
X112333450Y-111637050D01*
X112333450Y-112474549D01*
X112608422Y-112474549D01*
X112608436Y-112474548D01*
X112711147Y-112464055D01*
X112877569Y-112408908D01*
X112877574Y-112408906D01*
X113026795Y-112316865D01*
X113117210Y-112226450D01*
X115750551Y-112226450D01*
X115750551Y-112476436D01*
X115761044Y-112579147D01*
X115816191Y-112745569D01*
X115816193Y-112745574D01*
X115908234Y-112894795D01*
X116032204Y-113018765D01*
X116181425Y-113110806D01*
X116181430Y-113110808D01*
X116347852Y-113165955D01*
X116347859Y-113165956D01*
X116450569Y-113176449D01*
X116600549Y-113176449D01*
X116600550Y-113176448D01*
X116600550Y-112226450D01*
X115750551Y-112226450D01*
X113117210Y-112226450D01*
X113150765Y-112192895D01*
X113242806Y-112043674D01*
X113242808Y-112043669D01*
X113297955Y-111877247D01*
X113297956Y-111877240D01*
X113308449Y-111774536D01*
X113308450Y-111774523D01*
X113308450Y-111637050D01*
X112333450Y-111637050D01*
X111833450Y-111637050D01*
X111833450Y-111261050D01*
X111853135Y-111194011D01*
X111905939Y-111148256D01*
X111957450Y-111137050D01*
X113308449Y-111137050D01*
X113308449Y-110999578D01*
X113308448Y-110999563D01*
X113297955Y-110896852D01*
X113242808Y-110730430D01*
X113242806Y-110730425D01*
X113150765Y-110581204D01*
X113026794Y-110457233D01*
X113021127Y-110452752D01*
X113022854Y-110450566D01*
X112984690Y-110408139D01*
X112973465Y-110339177D01*
X113001305Y-110275093D01*
X113026556Y-110253214D01*
X113026435Y-110253061D01*
X113029851Y-110250359D01*
X113031419Y-110249001D01*
X113032102Y-110248580D01*
X113157480Y-110123202D01*
X113250565Y-109972288D01*
X113295212Y-109837550D01*
X115724251Y-109837550D01*
X115724251Y-110112536D01*
X115734744Y-110215247D01*
X115789891Y-110381669D01*
X115789893Y-110381674D01*
X115881934Y-110530895D01*
X116005906Y-110654867D01*
X116074330Y-110697071D01*
X116121055Y-110749019D01*
X116132278Y-110817981D01*
X116104434Y-110882064D01*
X116074333Y-110908147D01*
X116032209Y-110934130D01*
X116032205Y-110934133D01*
X115908234Y-111058104D01*
X115816193Y-111207325D01*
X115816191Y-111207330D01*
X115761044Y-111373752D01*
X115761043Y-111373759D01*
X115750550Y-111476463D01*
X115750550Y-111726450D01*
X116600550Y-111726450D01*
X116600550Y-110855550D01*
X116598069Y-110853069D01*
X116564584Y-110791746D01*
X116561750Y-110765388D01*
X116561750Y-109837550D01*
X115724251Y-109837550D01*
X113295212Y-109837550D01*
X113306337Y-109803976D01*
X113316950Y-109700095D01*
X113316950Y-109337550D01*
X115724250Y-109337550D01*
X116561750Y-109337550D01*
X116561750Y-108362550D01*
X116424277Y-108362550D01*
X116424262Y-108362551D01*
X116321552Y-108373044D01*
X116155130Y-108428191D01*
X116155125Y-108428193D01*
X116005904Y-108520234D01*
X115881934Y-108644204D01*
X115789893Y-108793425D01*
X115789891Y-108793430D01*
X115734744Y-108959852D01*
X115734743Y-108959859D01*
X115724250Y-109062563D01*
X115724250Y-109337550D01*
X113316950Y-109337550D01*
X113316949Y-108924006D01*
X113306337Y-108820124D01*
X113250565Y-108651812D01*
X113157480Y-108500898D01*
X113032102Y-108375520D01*
X112986952Y-108347671D01*
X112940230Y-108295725D01*
X112929007Y-108226762D01*
X112956851Y-108162680D01*
X113014920Y-108123824D01*
X113019948Y-108122361D01*
X113102612Y-108100212D01*
X113268089Y-108015897D01*
X113412420Y-107899020D01*
X113529297Y-107754689D01*
X113608468Y-107599306D01*
X113656442Y-107548512D01*
X113716518Y-107533634D01*
X113716461Y-107531797D01*
X113724258Y-107531551D01*
X113724259Y-107531552D01*
X113792367Y-107529410D01*
X113796263Y-107529350D01*
X113806458Y-107529350D01*
X113810344Y-107529105D01*
X113810345Y-107529128D01*
X113816326Y-107528657D01*
X113872727Y-107526884D01*
X113884240Y-107526523D01*
X113884240Y-107526522D01*
X114037943Y-107481868D01*
X114175712Y-107400392D01*
X115425417Y-106150686D01*
X115437778Y-106140785D01*
X115437604Y-106140575D01*
X115443613Y-106135602D01*
X115443618Y-106135600D01*
X115490291Y-106085896D01*
X115492940Y-106083163D01*
X115512735Y-106063370D01*
X115515272Y-106060098D01*
X115522851Y-106051224D01*
X115553186Y-106018921D01*
X115563019Y-106001032D01*
X115573702Y-105984769D01*
X115586214Y-105968641D01*
X115603807Y-105927981D01*
X115608950Y-105917485D01*
X115630293Y-105878664D01*
X115630293Y-105878663D01*
X115630295Y-105878660D01*
X115635374Y-105858873D01*
X115641670Y-105840485D01*
X115649781Y-105821745D01*
X115656713Y-105777972D01*
X115659078Y-105766553D01*
X115670100Y-105723630D01*
X115670100Y-105703215D01*
X115671627Y-105683814D01*
X115671940Y-105681838D01*
X115674820Y-105663657D01*
X115670650Y-105619542D01*
X115670100Y-105607873D01*
X115670100Y-105444124D01*
X115689785Y-105377085D01*
X115742589Y-105331330D01*
X115811747Y-105321386D01*
X115866983Y-105343805D01*
X115944698Y-105400268D01*
X116119162Y-105477944D01*
X116305963Y-105517650D01*
X116496937Y-105517650D01*
X116683738Y-105477944D01*
X116776316Y-105436725D01*
X116845564Y-105427441D01*
X116908841Y-105457069D01*
X116946054Y-105516204D01*
X116950750Y-105550005D01*
X116950750Y-106045392D01*
X116965341Y-106193549D01*
X117023010Y-106383658D01*
X117116651Y-106558848D01*
X117116655Y-106558855D01*
X117242681Y-106712418D01*
X117396244Y-106838444D01*
X117396251Y-106838448D01*
X117571441Y-106932089D01*
X117571443Y-106932089D01*
X117571446Y-106932091D01*
X117761549Y-106989758D01*
X117761548Y-106989758D01*
X117772016Y-106990788D01*
X117909703Y-107004350D01*
X118019250Y-107004349D01*
X118086289Y-107024033D01*
X118132044Y-107076837D01*
X118143250Y-107128349D01*
X118143250Y-108402584D01*
X118123565Y-108469623D01*
X118084349Y-108508121D01*
X118075600Y-108513517D01*
X117950217Y-108638901D01*
X117949791Y-108639593D01*
X117949373Y-108639968D01*
X117945739Y-108644565D01*
X117944953Y-108643943D01*
X117897841Y-108686314D01*
X117828877Y-108697533D01*
X117764797Y-108669686D01*
X117746989Y-108649128D01*
X117746048Y-108649873D01*
X117741566Y-108644205D01*
X117617595Y-108520234D01*
X117468374Y-108428193D01*
X117468369Y-108428191D01*
X117301947Y-108373044D01*
X117301940Y-108373043D01*
X117199236Y-108362550D01*
X117061750Y-108362550D01*
X117061750Y-110733450D01*
X117064231Y-110735931D01*
X117097716Y-110797254D01*
X117100550Y-110823612D01*
X117100550Y-113176449D01*
X117250522Y-113176449D01*
X117250536Y-113176448D01*
X117353247Y-113165955D01*
X117519669Y-113110808D01*
X117519674Y-113110806D01*
X117668892Y-113018767D01*
X117756857Y-112930802D01*
X117818180Y-112897317D01*
X117887872Y-112902301D01*
X117932220Y-112930802D01*
X118026898Y-113025480D01*
X118158147Y-113106435D01*
X118204871Y-113158382D01*
X118217050Y-113211973D01*
X118217050Y-117614482D01*
X118197365Y-117681521D01*
X118180731Y-117702163D01*
X116325466Y-119557427D01*
X116264143Y-119590912D01*
X116208838Y-119590320D01*
X115984514Y-119536465D01*
X115747800Y-119517835D01*
X115511085Y-119536465D01*
X115280204Y-119591895D01*
X115280202Y-119591895D01*
X115060840Y-119682757D01*
X115060837Y-119682759D01*
X114858389Y-119806820D01*
X114858386Y-119806821D01*
X114677831Y-119961031D01*
X114523621Y-120141586D01*
X114523620Y-120141589D01*
X114399559Y-120344037D01*
X114399557Y-120344040D01*
X114308695Y-120563402D01*
X114308695Y-120563404D01*
X114253265Y-120794285D01*
X114234635Y-121031000D01*
X114253265Y-121267714D01*
X114308695Y-121498595D01*
X114308695Y-121498597D01*
X114399557Y-121717959D01*
X114399559Y-121717962D01*
X114523620Y-121920410D01*
X114523621Y-121920413D01*
X114575876Y-121981596D01*
X114677831Y-122100969D01*
X114817597Y-122220340D01*
X114858386Y-122255178D01*
X114858388Y-122255178D01*
X115060837Y-122379240D01*
X115060840Y-122379242D01*
X115280203Y-122470104D01*
X115280204Y-122470104D01*
X115280206Y-122470105D01*
X115511089Y-122525535D01*
X115747800Y-122544165D01*
X115984511Y-122525535D01*
X116215394Y-122470105D01*
X116215396Y-122470104D01*
X116215397Y-122470104D01*
X116434759Y-122379242D01*
X116434760Y-122379241D01*
X116434763Y-122379240D01*
X116637216Y-122255176D01*
X116817769Y-122100969D01*
X116971976Y-121920416D01*
X117096040Y-121717963D01*
X117186905Y-121498594D01*
X117242335Y-121267711D01*
X117260965Y-121031005D01*
X119652859Y-121031005D01*
X119673385Y-121278729D01*
X119673387Y-121278738D01*
X119734412Y-121519717D01*
X119834266Y-121747364D01*
X119934564Y-121900882D01*
X120674923Y-121160523D01*
X120698507Y-121240844D01*
X120776239Y-121361798D01*
X120884900Y-121455952D01*
X121015685Y-121515680D01*
X121025466Y-121517086D01*
X120287942Y-122254609D01*
X120334768Y-122291055D01*
X120334770Y-122291056D01*
X120553385Y-122409364D01*
X120553396Y-122409369D01*
X120788506Y-122490083D01*
X121033707Y-122531000D01*
X121282293Y-122531000D01*
X121527493Y-122490083D01*
X121762603Y-122409369D01*
X121762614Y-122409364D01*
X121981228Y-122291057D01*
X121981231Y-122291055D01*
X122028056Y-122254609D01*
X121290533Y-121517086D01*
X121300315Y-121515680D01*
X121431100Y-121455952D01*
X121539761Y-121361798D01*
X121617493Y-121240844D01*
X121641076Y-121160524D01*
X122381434Y-121900882D01*
X122481731Y-121747369D01*
X122581587Y-121519717D01*
X122642612Y-121278738D01*
X122642614Y-121278729D01*
X122663141Y-121031005D01*
X122663141Y-121030994D01*
X122642614Y-120783270D01*
X122642612Y-120783261D01*
X122581587Y-120542282D01*
X122481731Y-120314630D01*
X122381434Y-120161116D01*
X121641076Y-120901475D01*
X121617493Y-120821156D01*
X121539761Y-120700202D01*
X121431100Y-120606048D01*
X121300315Y-120546320D01*
X121290534Y-120544913D01*
X122028057Y-119807390D01*
X122028056Y-119807389D01*
X121981229Y-119770943D01*
X121762614Y-119652635D01*
X121762603Y-119652630D01*
X121527493Y-119571916D01*
X121282293Y-119531000D01*
X121033707Y-119531000D01*
X120788506Y-119571916D01*
X120553396Y-119652630D01*
X120553390Y-119652632D01*
X120334761Y-119770949D01*
X120287942Y-119807388D01*
X120287942Y-119807390D01*
X121025466Y-120544913D01*
X121015685Y-120546320D01*
X120884900Y-120606048D01*
X120776239Y-120700202D01*
X120698507Y-120821156D01*
X120674923Y-120901475D01*
X119934564Y-120161116D01*
X119834267Y-120314632D01*
X119734412Y-120542282D01*
X119673387Y-120783261D01*
X119673385Y-120783270D01*
X119652859Y-121030994D01*
X119652859Y-121031005D01*
X117260965Y-121031005D01*
X117260965Y-121031000D01*
X117242335Y-120794289D01*
X117188478Y-120569958D01*
X117191969Y-120500177D01*
X117221369Y-120453333D01*
X119239367Y-118435336D01*
X119251728Y-118425435D01*
X119251554Y-118425225D01*
X119257563Y-118420252D01*
X119257568Y-118420250D01*
X119304240Y-118370547D01*
X119306889Y-118367814D01*
X119326685Y-118348020D01*
X119329222Y-118344748D01*
X119336801Y-118335874D01*
X119367136Y-118303571D01*
X119376969Y-118285682D01*
X119387652Y-118269419D01*
X119400164Y-118253291D01*
X119417757Y-118212631D01*
X119422900Y-118202135D01*
X119444243Y-118163314D01*
X119444243Y-118163313D01*
X119444245Y-118163310D01*
X119449324Y-118143523D01*
X119455620Y-118125135D01*
X119463731Y-118106395D01*
X119470663Y-118062622D01*
X119473028Y-118051203D01*
X119484050Y-118008280D01*
X119484050Y-117987865D01*
X119485577Y-117968464D01*
X119488770Y-117948307D01*
X119484600Y-117904192D01*
X119484050Y-117892523D01*
X119484050Y-114342900D01*
X122727001Y-114342900D01*
X122727001Y-114480386D01*
X122737494Y-114583097D01*
X122792641Y-114749519D01*
X122792643Y-114749524D01*
X122884684Y-114898745D01*
X123008654Y-115022715D01*
X123157875Y-115114756D01*
X123157880Y-115114758D01*
X123324302Y-115169905D01*
X123324309Y-115169906D01*
X123427019Y-115180399D01*
X123701999Y-115180399D01*
X123702000Y-115180398D01*
X123702000Y-114342900D01*
X124202000Y-114342900D01*
X124202000Y-115180399D01*
X124476972Y-115180399D01*
X124476986Y-115180398D01*
X124579697Y-115169905D01*
X124746119Y-115114758D01*
X124746124Y-115114756D01*
X124895345Y-115022715D01*
X125019315Y-114898745D01*
X125111356Y-114749524D01*
X125111358Y-114749519D01*
X125166505Y-114583097D01*
X125166506Y-114583090D01*
X125176999Y-114480386D01*
X125177000Y-114480373D01*
X125177000Y-114342900D01*
X124202000Y-114342900D01*
X123702000Y-114342900D01*
X122727001Y-114342900D01*
X119484050Y-114342900D01*
X119484050Y-113211973D01*
X119503735Y-113144934D01*
X119542951Y-113106436D01*
X119674202Y-113025480D01*
X119799580Y-112900102D01*
X119892665Y-112749188D01*
X119893863Y-112745574D01*
X119910639Y-112694947D01*
X119950411Y-112637502D01*
X120014926Y-112610678D01*
X120028345Y-112609950D01*
X122674092Y-112609950D01*
X122741131Y-112629635D01*
X122779165Y-112673180D01*
X122781094Y-112671991D01*
X122784884Y-112678136D01*
X122784885Y-112678138D01*
X122877970Y-112829052D01*
X123003348Y-112954430D01*
X123004031Y-112954851D01*
X123004401Y-112955263D01*
X123009015Y-112958911D01*
X123008391Y-112959698D01*
X123050759Y-113006797D01*
X123061984Y-113075759D01*
X123034144Y-113139842D01*
X123013582Y-113157664D01*
X123014323Y-113158602D01*
X123008655Y-113163083D01*
X122884684Y-113287054D01*
X122792643Y-113436275D01*
X122792641Y-113436280D01*
X122737494Y-113602702D01*
X122737493Y-113602709D01*
X122727000Y-113705413D01*
X122727000Y-113842900D01*
X125176999Y-113842900D01*
X125176999Y-113705428D01*
X125176998Y-113705413D01*
X125166505Y-113602702D01*
X125111358Y-113436280D01*
X125111356Y-113436275D01*
X125019315Y-113287054D01*
X124895344Y-113163083D01*
X124889677Y-113158602D01*
X124891404Y-113156416D01*
X124853240Y-113113989D01*
X124842015Y-113045027D01*
X124869855Y-112980943D01*
X124895106Y-112959064D01*
X124894985Y-112958911D01*
X124898401Y-112956209D01*
X124899969Y-112954851D01*
X124900652Y-112954430D01*
X125026030Y-112829052D01*
X125077523Y-112745569D01*
X125099276Y-112710303D01*
X125151224Y-112663578D01*
X125204814Y-112651400D01*
X127431000Y-112651400D01*
X127498039Y-112671085D01*
X127543794Y-112723889D01*
X127555000Y-112775400D01*
X127555000Y-113242200D01*
X128471314Y-113242200D01*
X128445507Y-113282356D01*
X128405000Y-113420311D01*
X128405000Y-113564089D01*
X128445507Y-113702044D01*
X128471314Y-113742200D01*
X127555000Y-113742200D01*
X127555000Y-114390044D01*
X127561401Y-114449572D01*
X127561403Y-114449579D01*
X127611645Y-114584286D01*
X127611649Y-114584293D01*
X127697809Y-114699387D01*
X127697812Y-114699390D01*
X127812906Y-114785550D01*
X127812913Y-114785554D01*
X127947620Y-114835796D01*
X127947627Y-114835798D01*
X128007155Y-114842199D01*
X128007172Y-114842200D01*
X128655000Y-114842200D01*
X128655000Y-113927701D01*
X128762685Y-113976880D01*
X128869237Y-113992200D01*
X128940763Y-113992200D01*
X129047315Y-113976880D01*
X129155000Y-113927701D01*
X129155000Y-114842200D01*
X129802828Y-114842200D01*
X129802844Y-114842199D01*
X129862372Y-114835798D01*
X129862379Y-114835796D01*
X129997086Y-114785554D01*
X129997093Y-114785550D01*
X130112187Y-114699390D01*
X130112190Y-114699387D01*
X130198350Y-114584293D01*
X130198354Y-114584286D01*
X130248596Y-114449579D01*
X130248598Y-114449572D01*
X130254999Y-114390044D01*
X130255000Y-114390027D01*
X130255000Y-113742200D01*
X129338686Y-113742200D01*
X129364493Y-113702044D01*
X129405000Y-113564089D01*
X129405000Y-113420311D01*
X129364493Y-113282356D01*
X129338686Y-113242200D01*
X130255000Y-113242200D01*
X130255000Y-112594372D01*
X130254999Y-112594355D01*
X130248598Y-112534827D01*
X130248596Y-112534820D01*
X130198354Y-112400113D01*
X130198350Y-112400106D01*
X130112190Y-112285012D01*
X130112187Y-112285009D01*
X129997093Y-112198849D01*
X129997088Y-112198846D01*
X129877188Y-112154126D01*
X129821255Y-112112254D01*
X129796838Y-112046790D01*
X129811690Y-111978517D01*
X129829286Y-111953969D01*
X129980722Y-111789468D01*
X130103860Y-111600991D01*
X130194296Y-111394816D01*
X130249564Y-111176568D01*
X130249564Y-111176562D01*
X130249565Y-111176559D01*
X130268156Y-110952205D01*
X130268156Y-110952194D01*
X130249565Y-110727840D01*
X130249563Y-110727828D01*
X130216232Y-110596209D01*
X130194296Y-110509584D01*
X130103860Y-110303409D01*
X130068038Y-110248580D01*
X129996454Y-110139012D01*
X129980722Y-110114932D01*
X129980719Y-110114929D01*
X129980715Y-110114923D01*
X129828243Y-109949297D01*
X129828238Y-109949292D01*
X129650577Y-109811012D01*
X129650572Y-109811008D01*
X129452580Y-109703861D01*
X129452577Y-109703859D01*
X129452574Y-109703858D01*
X129452571Y-109703857D01*
X129452569Y-109703856D01*
X129239637Y-109630756D01*
X129017569Y-109593700D01*
X128792431Y-109593700D01*
X128570362Y-109630756D01*
X128357430Y-109703856D01*
X128357419Y-109703861D01*
X128159427Y-109811008D01*
X128159422Y-109811012D01*
X127981761Y-109949292D01*
X127981756Y-109949297D01*
X127829284Y-110114923D01*
X127829276Y-110114934D01*
X127706140Y-110303407D01*
X127615703Y-110509585D01*
X127560436Y-110727828D01*
X127560434Y-110727840D01*
X127541844Y-110952194D01*
X127541844Y-110952205D01*
X127560435Y-111176562D01*
X127560435Y-111176564D01*
X127560436Y-111176568D01*
X127573956Y-111229961D01*
X127571332Y-111299780D01*
X127531376Y-111357097D01*
X127466775Y-111383714D01*
X127453751Y-111384400D01*
X125204814Y-111384400D01*
X125137775Y-111364715D01*
X125099276Y-111325497D01*
X125026032Y-111206751D01*
X125026029Y-111206747D01*
X124900653Y-111081371D01*
X124900652Y-111081370D01*
X124768047Y-110999578D01*
X124749740Y-110988286D01*
X124749735Y-110988284D01*
X124581427Y-110932513D01*
X124477546Y-110921900D01*
X123426462Y-110921900D01*
X123426446Y-110921901D01*
X123322572Y-110932513D01*
X123154264Y-110988284D01*
X123154259Y-110988286D01*
X123003346Y-111081371D01*
X122877971Y-111206746D01*
X122877970Y-111206748D01*
X122830289Y-111284048D01*
X122778344Y-111330771D01*
X122724753Y-111342950D01*
X120028345Y-111342950D01*
X119961306Y-111323265D01*
X119915551Y-111270461D01*
X119910639Y-111257953D01*
X119892667Y-111203716D01*
X119875922Y-111176568D01*
X119799580Y-111052798D01*
X119674202Y-110927420D01*
X119674201Y-110927419D01*
X119651822Y-110913616D01*
X119641659Y-110907347D01*
X119594935Y-110855400D01*
X119583712Y-110786438D01*
X119611556Y-110722355D01*
X119641657Y-110696271D01*
X119697902Y-110661580D01*
X119823280Y-110536202D01*
X119916365Y-110385288D01*
X119972137Y-110216976D01*
X119982750Y-110113095D01*
X119982749Y-109062006D01*
X119972137Y-108958124D01*
X119916365Y-108789812D01*
X119823280Y-108638898D01*
X119697902Y-108513520D01*
X119559566Y-108428193D01*
X119546990Y-108420436D01*
X119546979Y-108420431D01*
X119495245Y-108403288D01*
X119437800Y-108363515D01*
X119410978Y-108298999D01*
X119410250Y-108285583D01*
X119410250Y-106972634D01*
X119429935Y-106905595D01*
X119475797Y-106863276D01*
X119522254Y-106838445D01*
X119642040Y-106740138D01*
X119706345Y-106712828D01*
X119773071Y-106723596D01*
X119857375Y-106762876D01*
X119924258Y-106783070D01*
X119924263Y-106783071D01*
X119924266Y-106783072D01*
X120068768Y-106804975D01*
X120404385Y-106807536D01*
X120926442Y-106811522D01*
X120926454Y-106811522D01*
X120926454Y-106811521D01*
X120926456Y-106811522D01*
X121039762Y-106799751D01*
X121081067Y-106790745D01*
X121093183Y-106788104D01*
X121093184Y-106788103D01*
X121093187Y-106788103D01*
X121150473Y-106768747D01*
X121201112Y-106751639D01*
X121201113Y-106751638D01*
X121201117Y-106751637D01*
X121323390Y-106671566D01*
X121369532Y-106630885D01*
X121369909Y-106630595D01*
X121375632Y-106625506D01*
X121375799Y-106625360D01*
X121375802Y-106625358D01*
X121470562Y-106514081D01*
X121500348Y-106447348D01*
X121530132Y-106380621D01*
X121530138Y-106380604D01*
X121549241Y-106313412D01*
X121549240Y-106313412D01*
X121549242Y-106313409D01*
X121568799Y-106168569D01*
X121520136Y-100499328D01*
X121507947Y-100392432D01*
X121507945Y-100392422D01*
X121496750Y-100342000D01*
X121496746Y-100341985D01*
X121462551Y-100239976D01*
X121462549Y-100239971D01*
X121383531Y-100117018D01*
X121383525Y-100117011D01*
X121337782Y-100064220D01*
X121337778Y-100064217D01*
X121337776Y-100064214D01*
X121250642Y-99988711D01*
X121212870Y-99929934D01*
X121212870Y-99860064D01*
X121250645Y-99801286D01*
X121314201Y-99772262D01*
X121331847Y-99771000D01*
X122267934Y-99771000D01*
X122334973Y-99790685D01*
X122355615Y-99807319D01*
X126276826Y-103728530D01*
X126310311Y-103789853D01*
X126305327Y-103859545D01*
X126276831Y-103903887D01*
X126273072Y-103907645D01*
X126273067Y-103907652D01*
X126179984Y-104058561D01*
X126179983Y-104058564D01*
X126124213Y-104226871D01*
X126113600Y-104330748D01*
X126113600Y-105681851D01*
X126124213Y-105785728D01*
X126179983Y-105954035D01*
X126179984Y-105954038D01*
X126273067Y-106104947D01*
X126273070Y-106104951D01*
X126398448Y-106230329D01*
X126398452Y-106230332D01*
X126549361Y-106323415D01*
X126549364Y-106323416D01*
X126717671Y-106379186D01*
X126717672Y-106379186D01*
X126717675Y-106379187D01*
X126821556Y-106389800D01*
X126821561Y-106389800D01*
X127847639Y-106389800D01*
X127847644Y-106389800D01*
X127951525Y-106379187D01*
X128119838Y-106323415D01*
X128270751Y-106230330D01*
X128396130Y-106104951D01*
X128489215Y-105954038D01*
X128544987Y-105785725D01*
X128555600Y-105681844D01*
X128555600Y-104330756D01*
X128544987Y-104226875D01*
X128539785Y-104211176D01*
X128489216Y-104058564D01*
X128489215Y-104058561D01*
X128396132Y-103907652D01*
X128396129Y-103907648D01*
X128270751Y-103782270D01*
X128270747Y-103782267D01*
X128119838Y-103689184D01*
X128119832Y-103689182D01*
X127945100Y-103631284D01*
X127945888Y-103628904D01*
X127894531Y-103601074D01*
X127866638Y-103558758D01*
X127864352Y-103552983D01*
X127838310Y-103517139D01*
X127831899Y-103507381D01*
X127809342Y-103469238D01*
X127804441Y-103464337D01*
X127770953Y-103403016D01*
X127775934Y-103333324D01*
X127817803Y-103277388D01*
X127883266Y-103252968D01*
X127911514Y-103254178D01*
X127914052Y-103254580D01*
X127914055Y-103254581D01*
X127957818Y-103261511D01*
X127969245Y-103263878D01*
X128012170Y-103274900D01*
X128032590Y-103274900D01*
X128051989Y-103276427D01*
X128072141Y-103279618D01*
X128072142Y-103279619D01*
X128072142Y-103279618D01*
X128072143Y-103279619D01*
X128105913Y-103276427D01*
X128116250Y-103275450D01*
X128127918Y-103274900D01*
X128213434Y-103274900D01*
X128280473Y-103294585D01*
X128301115Y-103311219D01*
X129074389Y-104084493D01*
X129107874Y-104145816D01*
X129104415Y-104211176D01*
X129099212Y-104226875D01*
X129088600Y-104330748D01*
X129088600Y-105681851D01*
X129099213Y-105785728D01*
X129154983Y-105954035D01*
X129154984Y-105954038D01*
X129248067Y-106104947D01*
X129248070Y-106104951D01*
X129373448Y-106230329D01*
X129373452Y-106230332D01*
X129524361Y-106323415D01*
X129524364Y-106323416D01*
X129692671Y-106379186D01*
X129692672Y-106379186D01*
X129692675Y-106379187D01*
X129796556Y-106389800D01*
X129796561Y-106389800D01*
X130822639Y-106389800D01*
X130822644Y-106389800D01*
X130926525Y-106379187D01*
X131094838Y-106323415D01*
X131245751Y-106230330D01*
X131371130Y-106104951D01*
X131464215Y-105954038D01*
X131519987Y-105785725D01*
X131530600Y-105681844D01*
X131530600Y-104330756D01*
X131519987Y-104226875D01*
X131514785Y-104211176D01*
X131464216Y-104058564D01*
X131464215Y-104058561D01*
X131371132Y-103907652D01*
X131371129Y-103907648D01*
X131245751Y-103782270D01*
X131245747Y-103782267D01*
X131094838Y-103689184D01*
X131094835Y-103689183D01*
X130926528Y-103633413D01*
X130822651Y-103622800D01*
X130822644Y-103622800D01*
X130455866Y-103622800D01*
X130388827Y-103603115D01*
X130368185Y-103586481D01*
X129034288Y-102252583D01*
X129024387Y-102240223D01*
X129024177Y-102240398D01*
X129019202Y-102234386D01*
X129019200Y-102234382D01*
X128969531Y-102187740D01*
X128966734Y-102185029D01*
X128946966Y-102165261D01*
X128943704Y-102162731D01*
X128934819Y-102155143D01*
X128902521Y-102124814D01*
X128902519Y-102124812D01*
X128884631Y-102114978D01*
X128868370Y-102104297D01*
X128852239Y-102091784D01*
X128811575Y-102074188D01*
X128801085Y-102069049D01*
X128762260Y-102047705D01*
X128762256Y-102047704D01*
X128742487Y-102042628D01*
X128724081Y-102036326D01*
X128705344Y-102028218D01*
X128705345Y-102028218D01*
X128661583Y-102021287D01*
X128650147Y-102018919D01*
X128635393Y-102015131D01*
X128607232Y-102007900D01*
X128607230Y-102007900D01*
X128586816Y-102007900D01*
X128567417Y-102006373D01*
X128547258Y-102003180D01*
X128547257Y-102003180D01*
X128503143Y-102007350D01*
X128491474Y-102007900D01*
X128405967Y-102007900D01*
X128338928Y-101988215D01*
X128318286Y-101971581D01*
X128267147Y-101920442D01*
X128233662Y-101859119D01*
X128238646Y-101789427D01*
X128280518Y-101733494D01*
X128345982Y-101709077D01*
X128398163Y-101716580D01*
X128419119Y-101724396D01*
X128419127Y-101724398D01*
X128478655Y-101730799D01*
X128478672Y-101730800D01*
X129126500Y-101730800D01*
X129126500Y-100816301D01*
X129234185Y-100865480D01*
X129340737Y-100880800D01*
X129412263Y-100880800D01*
X129518815Y-100865480D01*
X129626500Y-100816301D01*
X129626500Y-101730800D01*
X130274328Y-101730800D01*
X130274344Y-101730799D01*
X130333872Y-101724398D01*
X130333879Y-101724396D01*
X130468586Y-101674154D01*
X130468593Y-101674150D01*
X130583687Y-101587990D01*
X130583690Y-101587987D01*
X130669850Y-101472893D01*
X130669854Y-101472886D01*
X130720096Y-101338179D01*
X130720098Y-101338172D01*
X130726499Y-101278644D01*
X130726500Y-101278627D01*
X130726500Y-100630800D01*
X129810186Y-100630800D01*
X129835993Y-100590644D01*
X129876500Y-100452689D01*
X129876500Y-100308911D01*
X129835993Y-100170956D01*
X129810186Y-100130800D01*
X130726500Y-100130800D01*
X130726500Y-99482972D01*
X130726499Y-99482955D01*
X130720098Y-99423427D01*
X130720096Y-99423420D01*
X130669854Y-99288713D01*
X130669850Y-99288706D01*
X130583690Y-99173612D01*
X130583687Y-99173609D01*
X130468593Y-99087449D01*
X130468588Y-99087446D01*
X130348688Y-99042726D01*
X130292755Y-99000854D01*
X130268338Y-98935390D01*
X130283190Y-98867117D01*
X130300786Y-98842569D01*
X130452222Y-98678068D01*
X130575360Y-98489591D01*
X130665796Y-98283416D01*
X130721064Y-98065168D01*
X130739656Y-97840800D01*
X130729712Y-97720800D01*
X130721065Y-97616440D01*
X130721063Y-97616428D01*
X130690385Y-97495284D01*
X130665796Y-97398184D01*
X130575360Y-97192009D01*
X130555893Y-97162213D01*
X130465432Y-97023752D01*
X130452222Y-97003532D01*
X130452219Y-97003529D01*
X130452215Y-97003523D01*
X130299743Y-96837897D01*
X130299738Y-96837892D01*
X130122077Y-96699612D01*
X130122072Y-96699608D01*
X129924080Y-96592461D01*
X129924077Y-96592459D01*
X129924074Y-96592458D01*
X129924071Y-96592457D01*
X129924069Y-96592456D01*
X129711137Y-96519356D01*
X129489069Y-96482300D01*
X129263931Y-96482300D01*
X129041859Y-96519356D01*
X129037620Y-96520430D01*
X128967799Y-96517799D01*
X128919508Y-96487903D01*
X128426388Y-95994783D01*
X128416487Y-95982423D01*
X128416277Y-95982598D01*
X128411302Y-95976586D01*
X128411300Y-95976582D01*
X128361631Y-95929940D01*
X128358834Y-95927229D01*
X128339066Y-95907461D01*
X128335804Y-95904931D01*
X128326919Y-95897343D01*
X128294621Y-95867014D01*
X128294619Y-95867012D01*
X128276731Y-95857178D01*
X128260470Y-95846497D01*
X128244339Y-95833984D01*
X128203675Y-95816388D01*
X128193185Y-95811249D01*
X128154360Y-95789905D01*
X128154356Y-95789904D01*
X128134587Y-95784828D01*
X128116181Y-95778526D01*
X128097444Y-95770418D01*
X128097445Y-95770418D01*
X128053683Y-95763487D01*
X128042247Y-95761119D01*
X128027493Y-95757331D01*
X127999332Y-95750100D01*
X127999330Y-95750100D01*
X127978916Y-95750100D01*
X127959517Y-95748573D01*
X127939358Y-95745380D01*
X127939357Y-95745380D01*
X127895243Y-95749550D01*
X127883574Y-95750100D01*
X127612279Y-95750100D01*
X127545240Y-95730415D01*
X127499485Y-95677611D01*
X127494573Y-95665103D01*
X127481649Y-95626100D01*
X127457215Y-95552362D01*
X127364130Y-95401448D01*
X127238752Y-95276070D01*
X127238751Y-95276069D01*
X127238063Y-95275645D01*
X127237690Y-95275230D01*
X127233085Y-95271589D01*
X127233707Y-95270802D01*
X127191338Y-95223698D01*
X127180115Y-95154735D01*
X127207958Y-95090653D01*
X127228523Y-95072842D01*
X127227777Y-95071898D01*
X127233444Y-95067416D01*
X127357415Y-94943445D01*
X127449456Y-94794224D01*
X127449458Y-94794219D01*
X127504605Y-94627797D01*
X127504606Y-94627790D01*
X127515099Y-94525086D01*
X127515100Y-94525073D01*
X127515100Y-94387600D01*
X125065101Y-94387600D01*
X125065101Y-94525086D01*
X125075594Y-94627797D01*
X125130741Y-94794219D01*
X125130743Y-94794224D01*
X125222784Y-94943445D01*
X125346755Y-95067416D01*
X125352423Y-95071898D01*
X125350692Y-95074086D01*
X125388849Y-95116490D01*
X125400087Y-95185450D01*
X125372258Y-95249538D01*
X125346994Y-95271436D01*
X125347115Y-95271589D01*
X125343727Y-95274267D01*
X125342143Y-95275641D01*
X125341450Y-95276068D01*
X125341447Y-95276070D01*
X125216071Y-95401446D01*
X125122986Y-95552359D01*
X125122983Y-95552366D01*
X125085627Y-95665103D01*
X125045855Y-95722549D01*
X124981339Y-95749372D01*
X124967921Y-95750100D01*
X122567999Y-95750100D01*
X122500960Y-95730415D01*
X122455205Y-95677611D01*
X122443999Y-95626100D01*
X122443999Y-95501762D01*
X122443998Y-95501746D01*
X122439942Y-95462043D01*
X122433387Y-95397874D01*
X122377615Y-95229562D01*
X122284530Y-95078648D01*
X122168852Y-94962970D01*
X122135367Y-94901647D01*
X122140351Y-94831955D01*
X122168860Y-94787600D01*
X122174515Y-94781945D01*
X122266556Y-94632724D01*
X122266558Y-94632719D01*
X122321705Y-94466297D01*
X122321706Y-94466290D01*
X122332199Y-94363586D01*
X122332200Y-94363573D01*
X122332200Y-94226100D01*
X120981200Y-94226100D01*
X120914161Y-94206415D01*
X120868406Y-94153611D01*
X120857200Y-94102100D01*
X120857200Y-93887600D01*
X125065100Y-93887600D01*
X126040100Y-93887600D01*
X126040100Y-93050100D01*
X126540100Y-93050100D01*
X126540100Y-93887600D01*
X127515099Y-93887600D01*
X127515099Y-93750128D01*
X127515098Y-93750113D01*
X127504605Y-93647402D01*
X127449458Y-93480980D01*
X127449456Y-93480975D01*
X127357415Y-93331754D01*
X127233445Y-93207784D01*
X127084224Y-93115743D01*
X127084219Y-93115741D01*
X126917797Y-93060594D01*
X126917790Y-93060593D01*
X126815086Y-93050100D01*
X126540100Y-93050100D01*
X126040100Y-93050100D01*
X125765129Y-93050100D01*
X125765112Y-93050101D01*
X125662402Y-93060594D01*
X125495980Y-93115741D01*
X125495975Y-93115743D01*
X125346754Y-93207784D01*
X125222784Y-93331754D01*
X125130743Y-93480975D01*
X125130741Y-93480980D01*
X125075594Y-93647402D01*
X125075593Y-93647409D01*
X125065100Y-93750113D01*
X125065100Y-93887600D01*
X120857200Y-93887600D01*
X120857200Y-93850100D01*
X120876885Y-93783061D01*
X120929689Y-93737306D01*
X120981200Y-93726100D01*
X122332199Y-93726100D01*
X122332199Y-93588628D01*
X122332198Y-93588613D01*
X122321705Y-93485902D01*
X122266558Y-93319480D01*
X122266556Y-93319475D01*
X122174515Y-93170254D01*
X122050544Y-93046283D01*
X122044877Y-93041802D01*
X122046604Y-93039616D01*
X122008440Y-92997189D01*
X121997215Y-92928227D01*
X122025055Y-92864143D01*
X122050306Y-92842264D01*
X122050185Y-92842111D01*
X122053601Y-92839409D01*
X122055169Y-92838051D01*
X122055852Y-92837630D01*
X122181230Y-92712252D01*
X122274315Y-92561338D01*
X122330087Y-92393026D01*
X122340700Y-92289145D01*
X122340699Y-91513056D01*
X122330087Y-91409174D01*
X122274315Y-91240862D01*
X122181230Y-91089948D01*
X122164082Y-91072800D01*
X122137966Y-91046683D01*
X122104482Y-90985360D01*
X122109467Y-90915668D01*
X122128381Y-90882093D01*
X122132124Y-90877357D01*
X122132130Y-90877352D01*
X122225215Y-90726438D01*
X122280987Y-90558126D01*
X122291600Y-90454245D01*
X122291599Y-89653156D01*
X122280987Y-89549274D01*
X122225215Y-89380962D01*
X122132130Y-89230048D01*
X122043463Y-89141381D01*
X122009978Y-89080058D01*
X122014962Y-89010366D01*
X122043463Y-88966019D01*
X122074493Y-88934989D01*
X122132130Y-88877352D01*
X122225215Y-88726438D01*
X122280987Y-88558126D01*
X122291600Y-88454245D01*
X122291599Y-87653156D01*
X122280987Y-87549274D01*
X122225215Y-87380962D01*
X122132130Y-87230048D01*
X122006752Y-87104670D01*
X121855838Y-87011585D01*
X121769639Y-86983022D01*
X121687527Y-86955813D01*
X121583646Y-86945200D01*
X120582562Y-86945200D01*
X120582546Y-86945201D01*
X120478672Y-86955813D01*
X120310364Y-87011584D01*
X120310359Y-87011586D01*
X120159446Y-87104671D01*
X120034071Y-87230046D01*
X119940986Y-87380959D01*
X119940983Y-87380966D01*
X119930142Y-87413682D01*
X119890368Y-87471126D01*
X119825851Y-87497947D01*
X119777843Y-87493752D01*
X119659729Y-87459437D01*
X119622407Y-87456500D01*
X119622402Y-87456500D01*
X117589398Y-87456500D01*
X117589392Y-87456500D01*
X117552070Y-87459437D01*
X117552064Y-87459438D01*
X117392303Y-87505853D01*
X117392298Y-87505855D01*
X117249096Y-87590544D01*
X117249087Y-87590551D01*
X117244458Y-87595181D01*
X117183135Y-87628666D01*
X117156777Y-87631500D01*
X116390234Y-87631500D01*
X116374486Y-87629761D01*
X116374461Y-87630032D01*
X116366694Y-87629298D01*
X116366691Y-87629298D01*
X116298583Y-87631439D01*
X116294687Y-87631500D01*
X116266736Y-87631500D01*
X116262640Y-87632018D01*
X116251002Y-87632934D01*
X116206712Y-87634326D01*
X116206709Y-87634327D01*
X116187106Y-87640022D01*
X116168058Y-87643966D01*
X116147803Y-87646526D01*
X116131082Y-87653146D01*
X116106601Y-87662838D01*
X116095554Y-87666620D01*
X116053007Y-87678981D01*
X116035433Y-87689374D01*
X116017972Y-87697928D01*
X115998986Y-87705446D01*
X115998985Y-87705446D01*
X115963135Y-87731492D01*
X115953376Y-87737902D01*
X115915237Y-87760457D01*
X115900801Y-87774894D01*
X115886015Y-87787523D01*
X115869493Y-87799528D01*
X115869491Y-87799529D01*
X115869491Y-87799530D01*
X115869488Y-87799533D01*
X115841242Y-87833674D01*
X115833383Y-87842311D01*
X114086752Y-89588941D01*
X114025429Y-89622426D01*
X113955737Y-89617442D01*
X113899804Y-89575570D01*
X113875668Y-89513414D01*
X113865888Y-89414115D01*
X113806561Y-89218540D01*
X113710227Y-89038312D01*
X113710223Y-89038305D01*
X113580573Y-88880326D01*
X113422594Y-88750676D01*
X113422587Y-88750672D01*
X113242359Y-88654338D01*
X113046782Y-88595011D01*
X113046786Y-88595011D01*
X112894365Y-88580000D01*
X112555900Y-88580000D01*
X112555900Y-90931000D01*
X112536215Y-90998039D01*
X112483411Y-91043794D01*
X112431900Y-91055000D01*
X110730900Y-91055000D01*
X110730900Y-91126402D01*
X110711215Y-91193441D01*
X110658411Y-91239196D01*
X110589253Y-91249140D01*
X110525697Y-91220115D01*
X110489194Y-91165406D01*
X110458507Y-91072800D01*
X110438315Y-91011862D01*
X110345230Y-90860948D01*
X110345227Y-90860945D01*
X110341481Y-90856208D01*
X110315340Y-90791412D01*
X110328380Y-90722770D01*
X110351060Y-90691621D01*
X110421030Y-90621652D01*
X110501362Y-90491412D01*
X110553309Y-90444690D01*
X110622272Y-90433467D01*
X110686354Y-90461311D01*
X110725210Y-90519380D01*
X110730626Y-90554726D01*
X110730900Y-90555000D01*
X112055900Y-90555000D01*
X112055900Y-88580000D01*
X111717435Y-88580000D01*
X111565015Y-88595011D01*
X111369440Y-88654338D01*
X111189212Y-88750672D01*
X111189205Y-88750676D01*
X111031226Y-88880326D01*
X110901576Y-89038305D01*
X110901572Y-89038312D01*
X110805237Y-89218542D01*
X110790357Y-89267596D01*
X110752059Y-89326034D01*
X110688247Y-89354490D01*
X110619180Y-89343929D01*
X110566787Y-89297704D01*
X110553991Y-89270602D01*
X110514116Y-89150266D01*
X110514115Y-89150262D01*
X110421030Y-88999348D01*
X110295652Y-88873970D01*
X110295651Y-88873969D01*
X110294963Y-88873545D01*
X110294590Y-88873130D01*
X110289985Y-88869489D01*
X110290607Y-88868702D01*
X110248238Y-88821598D01*
X110237015Y-88752635D01*
X110264858Y-88688553D01*
X110285423Y-88670742D01*
X110284677Y-88669798D01*
X110290344Y-88665316D01*
X110414315Y-88541345D01*
X110506356Y-88392124D01*
X110506358Y-88392119D01*
X110561505Y-88225697D01*
X110561506Y-88225690D01*
X110571999Y-88122986D01*
X110572000Y-88122973D01*
X110572000Y-87985500D01*
X109221000Y-87985500D01*
X109153961Y-87965815D01*
X109108206Y-87913011D01*
X109097000Y-87861500D01*
X109097000Y-86648000D01*
X109597000Y-86648000D01*
X109597000Y-87485500D01*
X110571999Y-87485500D01*
X110571999Y-87348028D01*
X110571998Y-87348013D01*
X110561505Y-87245302D01*
X110506358Y-87078880D01*
X110506356Y-87078875D01*
X110414315Y-86929654D01*
X110290345Y-86805684D01*
X110141124Y-86713643D01*
X110141119Y-86713641D01*
X109974697Y-86658494D01*
X109974690Y-86658493D01*
X109871986Y-86648000D01*
X109597000Y-86648000D01*
X109097000Y-86648000D01*
X108822029Y-86648000D01*
X108822012Y-86648001D01*
X108719302Y-86658494D01*
X108552880Y-86713641D01*
X108552875Y-86713643D01*
X108403656Y-86805682D01*
X108342689Y-86866649D01*
X108281365Y-86900133D01*
X108211674Y-86895147D01*
X108167328Y-86866647D01*
X108138451Y-86837770D01*
X108138447Y-86837767D01*
X107987538Y-86744684D01*
X107987535Y-86744683D01*
X107819228Y-86688913D01*
X107715351Y-86678300D01*
X107715344Y-86678300D01*
X106689256Y-86678300D01*
X106689248Y-86678300D01*
X106585371Y-86688913D01*
X106417064Y-86744683D01*
X106417061Y-86744684D01*
X106266152Y-86837767D01*
X106266148Y-86837770D01*
X106140770Y-86963148D01*
X106140767Y-86963152D01*
X106047684Y-87114061D01*
X106047683Y-87114064D01*
X105991913Y-87282371D01*
X105981300Y-87386248D01*
X105981300Y-88737351D01*
X105448299Y-88737351D01*
X105448300Y-88737344D01*
X105448300Y-87386256D01*
X105437687Y-87282375D01*
X105437686Y-87282371D01*
X105381916Y-87114064D01*
X105381915Y-87114061D01*
X105288832Y-86963152D01*
X105288829Y-86963148D01*
X105163451Y-86837770D01*
X105163447Y-86837767D01*
X105012538Y-86744684D01*
X105012535Y-86744683D01*
X104844228Y-86688913D01*
X104740351Y-86678300D01*
X104740344Y-86678300D01*
X103714256Y-86678300D01*
X103714248Y-86678300D01*
X103610371Y-86688913D01*
X103442064Y-86744683D01*
X103442061Y-86744684D01*
X103291152Y-86837767D01*
X103179381Y-86949538D01*
X103118058Y-86983022D01*
X103048366Y-86978038D01*
X103004019Y-86949537D01*
X102889853Y-86835371D01*
X102889852Y-86835370D01*
X102751516Y-86750043D01*
X102738940Y-86742286D01*
X102738935Y-86742284D01*
X102570627Y-86686513D01*
X102466746Y-86675900D01*
X101690662Y-86675900D01*
X101690646Y-86675901D01*
X101586772Y-86686513D01*
X101418464Y-86742284D01*
X101418459Y-86742286D01*
X101267546Y-86835371D01*
X101142170Y-86960747D01*
X101142168Y-86960750D01*
X101141741Y-86961443D01*
X101141323Y-86961818D01*
X101137689Y-86966415D01*
X101136903Y-86965793D01*
X101089791Y-87008164D01*
X101020827Y-87019383D01*
X100956747Y-86991536D01*
X100938939Y-86970978D01*
X100937998Y-86971723D01*
X100933516Y-86966055D01*
X100809545Y-86842084D01*
X100660324Y-86750043D01*
X100660319Y-86750041D01*
X100493897Y-86694894D01*
X100493890Y-86694893D01*
X100391186Y-86684400D01*
X100253700Y-86684400D01*
X100253700Y-89134399D01*
X99753699Y-89134399D01*
X99753700Y-89134398D01*
X99753700Y-88159400D01*
X98916201Y-88159400D01*
X72922600Y-88159400D01*
X72922600Y-87659400D01*
X98916200Y-87659400D01*
X99753700Y-87659400D01*
X99753700Y-86684400D01*
X99616227Y-86684400D01*
X99616212Y-86684401D01*
X99513502Y-86694894D01*
X99347080Y-86750041D01*
X99347075Y-86750043D01*
X99197854Y-86842084D01*
X99073884Y-86966054D01*
X98981843Y-87115275D01*
X98981841Y-87115280D01*
X98926694Y-87281702D01*
X98926693Y-87281709D01*
X98916200Y-87384413D01*
X98916200Y-87659400D01*
X72922600Y-87659400D01*
X72922600Y-85390945D01*
X72942285Y-85323906D01*
X72995089Y-85278151D01*
X73046544Y-85266945D01*
X131675331Y-85241664D01*
X131742374Y-85261319D01*
G37*
%TD.AperFunction*%
%TA.AperFunction,Conductor*%
G36*
X131188728Y-123215175D02*
G01*
X131188729Y-123215175D01*
X131320527Y-123060011D01*
X131320538Y-123059997D01*
X131524378Y-122759356D01*
X131590110Y-122635373D01*
X131638904Y-122585364D01*
X131706989Y-122569672D01*
X131772749Y-122593282D01*
X131815305Y-122648695D01*
X131823666Y-122693375D01*
X131824619Y-124156819D01*
X131804978Y-124223872D01*
X131752204Y-124269661D01*
X131700619Y-124280900D01*
X130163981Y-124280900D01*
X130096942Y-124261215D01*
X130051187Y-124208411D01*
X130041243Y-124139253D01*
X130070268Y-124075697D01*
X130111915Y-124044361D01*
X130221164Y-123993816D01*
X130221177Y-123993809D01*
X130532417Y-123806543D01*
X130532433Y-123806532D01*
X130821629Y-123586692D01*
X130837810Y-123571364D01*
X130837810Y-123571363D01*
X129593880Y-122327433D01*
X129784570Y-122164570D01*
X129947433Y-121973880D01*
X131188728Y-123215175D01*
G37*
%TD.AperFunction*%
%TD*%
%TA.AperFunction,Conductor*%
%TO.N,+3.3V*%
G36*
X120949699Y-100400485D02*
G01*
X120995454Y-100453289D01*
X121006655Y-100503736D01*
X121055318Y-106172977D01*
X121036210Y-106240183D01*
X120983801Y-106286389D01*
X120930376Y-106298037D01*
X120072688Y-106291490D01*
X120005801Y-106271295D01*
X119960451Y-106218143D01*
X119950122Y-106156512D01*
X119959249Y-106053848D01*
X119959250Y-106053848D01*
X119959250Y-104845850D01*
X118333250Y-104845850D01*
X118266211Y-104826165D01*
X118220456Y-104773361D01*
X118209250Y-104721850D01*
X118209250Y-102195850D01*
X118709250Y-102195850D01*
X118709250Y-104345850D01*
X119959250Y-104345850D01*
X119959250Y-103137852D01*
X119959249Y-103137849D01*
X119948641Y-103018524D01*
X119948640Y-103018521D01*
X119892692Y-102822988D01*
X119798528Y-102642720D01*
X119670003Y-102485096D01*
X119512379Y-102356571D01*
X119332111Y-102262407D01*
X119136578Y-102206459D01*
X119136575Y-102206458D01*
X119017250Y-102195850D01*
X118709250Y-102195850D01*
X118209250Y-102195850D01*
X117901249Y-102195850D01*
X117781924Y-102206458D01*
X117781920Y-102206459D01*
X117690005Y-102232759D01*
X117620137Y-102232276D01*
X117561622Y-102194096D01*
X117533037Y-102130341D01*
X117532035Y-102119442D01*
X117456640Y-100529299D01*
X117473128Y-100461405D01*
X117523705Y-100413201D01*
X117569271Y-100399938D01*
X117774201Y-100381309D01*
X117785427Y-100380800D01*
X120882660Y-100380800D01*
X120949699Y-100400485D01*
G37*
%TD.AperFunction*%
%TD*%
M02*
