M48
; DRILL file {KiCad 7.0.11-7.0.11~ubuntu22.04.1} date Sat 07 Sep 2024 09:13:49 AM PDT
; FORMAT={-:-/ absolute / inch / decimal}
; #@! TF.CreationDate,2024-09-07T09:13:49-07:00
; #@! TF.GenerationSoftware,Kicad,Pcbnew,7.0.11-7.0.11~ubuntu22.04.1
; #@! TF.FileFunction,Plated,1,2,PTH
FMAT,2
INCH
; #@! TA.AperFunction,Plated,PTH,ViaDrill
T1C0.0157
; #@! TA.AperFunction,Plated,PTH,ComponentDrill
T2C0.0394
; #@! TA.AperFunction,Plated,PTH,ComponentDrill
T3C0.0591
; #@! TA.AperFunction,Plated,PTH,ComponentDrill
T4C0.1260
%
G90
G05
T1
X3.0549Y-4.3149
X3.0589Y-3.4679
X3.0609Y-3.7189
X3.1599Y-3.7249
X3.2069Y-4.2729
X3.2369Y-3.4479
X3.2909Y-3.4649
X3.3009Y-4.6419
X3.3139Y-3.6049
X3.3949Y-4.3869
X3.5039Y-3.8909
X3.6789Y-4.4379
X3.7979Y-4.0089
X3.8001Y-3.4176
X3.8199Y-3.8429
X3.9179Y-4.2269
X4.0324Y-3.5475
X4.0678Y-3.8231
X4.1349Y-4.2099
X4.1938Y-3.6695
X4.3079Y-4.1899
X4.3119Y-4.0357
X4.3198Y-3.8546
X4.3399Y-3.7609
X4.381Y-3.722
X4.409Y-3.45
X4.4099Y-3.9029
X4.425Y-3.558
X4.451Y-3.674
X4.4777Y-4.4095
X4.49Y-4.0402
X4.492Y-4.1182
X4.539Y-3.471
X4.555Y-3.897
X4.5657Y-4.2175
X4.5757Y-4.0475
X4.5827Y-4.1185
X4.591Y-3.58
X4.591Y-3.676
X4.627Y-3.836
X4.646Y-3.402
X4.698Y-3.898
X4.738Y-4.546
X4.7751Y-4.2571
X4.807Y-4.163
X4.8158Y-3.9924
X4.8271Y-3.6998
X4.891Y-4.814
X4.896Y-3.444
X4.925Y-4.243
X4.93Y-4.615
X4.9631Y-4.5261
X4.9911Y-3.8911
X4.9969Y-3.9333
X4.9969Y-4.4688
X5.055Y-4.207
X5.1391Y-4.5861
X5.1551Y-4.4811
X5.1581Y-4.0301
T2
X4.174Y-4.353
X4.35Y-4.765
X4.557Y-4.765
X4.77Y-4.765
X5.075Y-4.3682
X5.075Y-4.4682
X5.0936Y-3.852
X5.0936Y-3.952
T3
X3.1446Y-4.415
X3.9513Y-4.415
T4
X3.01Y-3.929
X5.0649Y-4.7649
X5.0737Y-3.5
T2
X3.1846Y-3.5426G85X3.1846Y-3.6293
G05
X3.3618Y-3.7749G85X3.2752Y-3.7749
G05
X3.4326Y-3.5348G85X3.4326Y-3.6371
G05
M30
