%TF.GenerationSoftware,KiCad,Pcbnew,7.0.11-7.0.11~ubuntu22.04.1*%
%TF.CreationDate,2024-09-07T09:13:53-07:00*%
%TF.ProjectId,battery_pwr_brd_r3,62617474-6572-4795-9f70-77725f627264,rev?*%
%TF.SameCoordinates,Original*%
%TF.FileFunction,Copper,L2,Bot*%
%TF.FilePolarity,Positive*%
%FSLAX46Y46*%
G04 Gerber Fmt 4.6, Leading zero omitted, Abs format (unit mm)*
G04 Created by KiCad (PCBNEW 7.0.11-7.0.11~ubuntu22.04.1) date 2024-09-07 09:13:53*
%MOMM*%
%LPD*%
G01*
G04 APERTURE LIST*
%TA.AperFunction,ComponentPad*%
%ADD10C,2.000000*%
%TD*%
%TA.AperFunction,ComponentPad*%
%ADD11R,2.000000X4.600000*%
%TD*%
%TA.AperFunction,ComponentPad*%
%ADD12O,2.000000X4.200000*%
%TD*%
%TA.AperFunction,ComponentPad*%
%ADD13O,4.200000X2.000000*%
%TD*%
%TA.AperFunction,ComponentPad*%
%ADD14R,1.700000X1.700000*%
%TD*%
%TA.AperFunction,ComponentPad*%
%ADD15O,1.700000X1.700000*%
%TD*%
%TA.AperFunction,ComponentPad*%
%ADD16C,3.600000*%
%TD*%
%TA.AperFunction,ConnectorPad*%
%ADD17C,5.700000*%
%TD*%
%TA.AperFunction,ComponentPad*%
%ADD18R,3.000000X3.000000*%
%TD*%
%TA.AperFunction,ComponentPad*%
%ADD19C,3.000000*%
%TD*%
%TA.AperFunction,ViaPad*%
%ADD20C,0.800000*%
%TD*%
%TA.AperFunction,Conductor*%
%ADD21C,0.250000*%
%TD*%
G04 APERTURE END LIST*
D10*
%TO.P,GND1,1,1*%
%TO.N,GND*%
X106019600Y-110566200D03*
%TD*%
D11*
%TO.P,J1,1*%
%TO.N,Net-(SW1A-B)*%
X87189300Y-91083100D03*
D12*
%TO.P,J1,2*%
%TO.N,GND*%
X80889300Y-91083100D03*
D13*
%TO.P,J1,3*%
%TO.N,N/C*%
X84289300Y-95883100D03*
%TD*%
D14*
%TO.P,J2,1,Pin_1*%
%TO.N,GND*%
X129376500Y-100380800D03*
D15*
%TO.P,J2,2,Pin_2*%
%TO.N,+5V*%
X129376500Y-97840800D03*
%TD*%
D10*
%TO.P,3V3,1,1*%
%TO.N,+3.3V*%
X115747800Y-121031000D03*
%TD*%
D16*
%TO.P,H3,1,1*%
%TO.N,GND*%
X128649700Y-121029700D03*
D17*
X128649700Y-121029700D03*
%TD*%
D10*
%TO.P,GND2,1,1*%
%TO.N,GND*%
X121158000Y-121031000D03*
%TD*%
D18*
%TO.P,BT1,1,+*%
%TO.N,Net-(BT1-+)*%
X100362601Y-112141001D03*
D19*
%TO.P,BT1,2,-*%
%TO.N,GND*%
X79872601Y-112141001D03*
%TD*%
D10*
%TO.P,5V1,1,1*%
%TO.N,+5V*%
X110490000Y-121031000D03*
%TD*%
D14*
%TO.P,J3,1,Pin_1*%
%TO.N,GND*%
X128905000Y-113492200D03*
D15*
%TO.P,J3,2,Pin_2*%
%TO.N,+3.3V*%
X128905000Y-110952200D03*
%TD*%
D16*
%TO.P,H1,1,1*%
%TO.N,GND*%
X76454000Y-99796600D03*
D17*
X76454000Y-99796600D03*
%TD*%
D16*
%TO.P,H2,1,1*%
%TO.N,GND*%
X128871700Y-88900000D03*
D17*
X128871700Y-88900000D03*
%TD*%
D20*
%TO.N,GND*%
X102422100Y-90106300D03*
X118008400Y-86410800D03*
X97026700Y-97610900D03*
X96467900Y-101827300D03*
X109522100Y-102506300D03*
X93445300Y-112723900D03*
X124358400Y-87477600D03*
X111988600Y-87630000D03*
X103322100Y-97106300D03*
X126061500Y-114961700D03*
X122097800Y-105740200D03*
X130938300Y-113818700D03*
X81456500Y-108532900D03*
X114046000Y-102621000D03*
X82218500Y-87577900D03*
X122322100Y-101406300D03*
X122607100Y-93976100D03*
X77748100Y-94461300D03*
X128397000Y-106857800D03*
X126772700Y-98832700D03*
X83590100Y-88009700D03*
X124231400Y-122275600D03*
X126922100Y-99906300D03*
X113734450Y-112000550D03*
X83844100Y-117905500D03*
X86231700Y-111428500D03*
X77697300Y-88085900D03*
X109722100Y-97906300D03*
X120345200Y-115468400D03*
X121286300Y-108129100D03*
X99515900Y-107364500D03*
X131014500Y-102363300D03*
X105027700Y-106932700D03*
X77595700Y-109599700D03*
X116222100Y-102806300D03*
X111277400Y-94538800D03*
X80262700Y-94613700D03*
X106522100Y-93206300D03*
X96522100Y-86806300D03*
X116611400Y-90932000D03*
X115290600Y-88163400D03*
X125222000Y-117221000D03*
X89000300Y-98830100D03*
X84174300Y-91565700D03*
X115969650Y-107123750D03*
X130531900Y-116485700D03*
X112395000Y-90373200D03*
X112012700Y-99134900D03*
X126922100Y-113506300D03*
X110234700Y-95528100D03*
X117525800Y-97434400D03*
X125095000Y-107772200D03*
X109421900Y-106424700D03*
%TO.N,Net-(D1-K)*%
X115697000Y-98983800D03*
X119329200Y-99009200D03*
%TO.N,Net-(U1-VIN)*%
X116611400Y-93370400D03*
X113055400Y-93319600D03*
%TO.N,+3.3V*%
X116401450Y-104609150D03*
X114096800Y-104602200D03*
%TD*%
D21*
%TO.N,Net-(D1-K)*%
X119202200Y-98983800D02*
X119329200Y-99009200D01*
X119329200Y-99009200D02*
X119253000Y-98983800D01*
X119253000Y-98983800D02*
X119227600Y-98983800D01*
X115697000Y-98983800D02*
X119202200Y-98983800D01*
%TO.N,Net-(U1-VIN)*%
X113055400Y-93319600D02*
X116560600Y-93319600D01*
X116560600Y-93319600D02*
X116611400Y-93370400D01*
%TO.N,+3.3V*%
X114318650Y-104609150D02*
X116401450Y-104609150D01*
%TD*%
%TA.AperFunction,Conductor*%
%TO.N,GND*%
G36*
X131742455Y-85261319D02*
G01*
X131788233Y-85314103D01*
X131799461Y-85365502D01*
X131801389Y-86847473D01*
X131781792Y-86914538D01*
X131729047Y-86960361D01*
X131659902Y-86970395D01*
X131596308Y-86941453D01*
X131574755Y-86917221D01*
X131542521Y-86869679D01*
X131410729Y-86714523D01*
X131410728Y-86714523D01*
X130169432Y-87955818D01*
X130006570Y-87765130D01*
X129815880Y-87602266D01*
X131059810Y-86358336D01*
X131059810Y-86358334D01*
X131043629Y-86343007D01*
X131043628Y-86343006D01*
X130754433Y-86123167D01*
X130754417Y-86123156D01*
X130443177Y-85935890D01*
X130443164Y-85935883D01*
X130113494Y-85783360D01*
X130113489Y-85783359D01*
X129769238Y-85667367D01*
X129414464Y-85589275D01*
X129053333Y-85550000D01*
X128690066Y-85550000D01*
X128328935Y-85589275D01*
X127974161Y-85667367D01*
X127629910Y-85783359D01*
X127629905Y-85783360D01*
X127300235Y-85935883D01*
X127300222Y-85935890D01*
X126988982Y-86123156D01*
X126988966Y-86123167D01*
X126699775Y-86343002D01*
X126683588Y-86358335D01*
X126683587Y-86358335D01*
X127927519Y-87602266D01*
X127736830Y-87765130D01*
X127573966Y-87955818D01*
X126332670Y-86714522D01*
X126332669Y-86714523D01*
X126200877Y-86869680D01*
X126200870Y-86869690D01*
X125997018Y-87170348D01*
X125997016Y-87170352D01*
X125826861Y-87491297D01*
X125826852Y-87491315D01*
X125692397Y-87828772D01*
X125692395Y-87828779D01*
X125595219Y-88178777D01*
X125595217Y-88178785D01*
X125536446Y-88537271D01*
X125516780Y-88899997D01*
X125516780Y-88900002D01*
X125536446Y-89262728D01*
X125595217Y-89621214D01*
X125595219Y-89621222D01*
X125692395Y-89971220D01*
X125692397Y-89971227D01*
X125826852Y-90308684D01*
X125826861Y-90308702D01*
X125997016Y-90629647D01*
X125997018Y-90629651D01*
X126200870Y-90930309D01*
X126200877Y-90930319D01*
X126332669Y-91085475D01*
X126332670Y-91085475D01*
X127573966Y-89844180D01*
X127736830Y-90034870D01*
X127927518Y-90197732D01*
X126683588Y-91441662D01*
X126683588Y-91441664D01*
X126699770Y-91456992D01*
X126699771Y-91456993D01*
X126988966Y-91676832D01*
X126988982Y-91676843D01*
X127300222Y-91864109D01*
X127300235Y-91864116D01*
X127629905Y-92016639D01*
X127629910Y-92016640D01*
X127974161Y-92132632D01*
X128328935Y-92210724D01*
X128690066Y-92249999D01*
X128690074Y-92250000D01*
X129053326Y-92250000D01*
X129053333Y-92249999D01*
X129414464Y-92210724D01*
X129769238Y-92132632D01*
X130113489Y-92016640D01*
X130113494Y-92016639D01*
X130443164Y-91864116D01*
X130443177Y-91864109D01*
X130754417Y-91676843D01*
X130754433Y-91676832D01*
X131043629Y-91456992D01*
X131059810Y-91441664D01*
X131059810Y-91441663D01*
X129815880Y-90197733D01*
X130006570Y-90034870D01*
X130169433Y-89844180D01*
X131410728Y-91085475D01*
X131410729Y-91085475D01*
X131542527Y-90930311D01*
X131542529Y-90930309D01*
X131580087Y-90874916D01*
X131634002Y-90830475D01*
X131703384Y-90822237D01*
X131766206Y-90852817D01*
X131802522Y-90912507D01*
X131806721Y-90944342D01*
X131824700Y-104761000D01*
X131824700Y-119367893D01*
X131805015Y-119434932D01*
X131752211Y-119480687D01*
X131683053Y-119490631D01*
X131619497Y-119461606D01*
X131591145Y-119425976D01*
X131524384Y-119300052D01*
X131524381Y-119300048D01*
X131320529Y-118999390D01*
X131320522Y-118999380D01*
X131188729Y-118844223D01*
X131188728Y-118844223D01*
X129947432Y-120085518D01*
X129784570Y-119894830D01*
X129593880Y-119731966D01*
X130837810Y-118488036D01*
X130837810Y-118488034D01*
X130821629Y-118472707D01*
X130821628Y-118472706D01*
X130532433Y-118252867D01*
X130532417Y-118252856D01*
X130221177Y-118065590D01*
X130221164Y-118065583D01*
X129891494Y-117913060D01*
X129891489Y-117913059D01*
X129547238Y-117797067D01*
X129192464Y-117718975D01*
X128831333Y-117679700D01*
X128468066Y-117679700D01*
X128106935Y-117718975D01*
X127752161Y-117797067D01*
X127407910Y-117913059D01*
X127407905Y-117913060D01*
X127078235Y-118065583D01*
X127078222Y-118065590D01*
X126766982Y-118252856D01*
X126766966Y-118252867D01*
X126477775Y-118472702D01*
X126461588Y-118488035D01*
X126461587Y-118488035D01*
X127705519Y-119731966D01*
X127514830Y-119894830D01*
X127351966Y-120085518D01*
X126110670Y-118844222D01*
X126110669Y-118844223D01*
X125978877Y-118999380D01*
X125978870Y-118999390D01*
X125775018Y-119300048D01*
X125775016Y-119300052D01*
X125604861Y-119620997D01*
X125604852Y-119621015D01*
X125470397Y-119958472D01*
X125470395Y-119958479D01*
X125373219Y-120308477D01*
X125373217Y-120308485D01*
X125314446Y-120666971D01*
X125294780Y-121029697D01*
X125294780Y-121029702D01*
X125314446Y-121392428D01*
X125373217Y-121750914D01*
X125373219Y-121750922D01*
X125470395Y-122100920D01*
X125470397Y-122100927D01*
X125604852Y-122438384D01*
X125604861Y-122438402D01*
X125775016Y-122759347D01*
X125775018Y-122759351D01*
X125978870Y-123060009D01*
X125978877Y-123060019D01*
X126110669Y-123215175D01*
X126110670Y-123215175D01*
X127351966Y-121973880D01*
X127514830Y-122164570D01*
X127705518Y-122327432D01*
X126461588Y-123571362D01*
X126461588Y-123571364D01*
X126477770Y-123586692D01*
X126477771Y-123586693D01*
X126766966Y-123806532D01*
X126766982Y-123806543D01*
X127078222Y-123993809D01*
X127078235Y-123993816D01*
X127187485Y-124044361D01*
X127240063Y-124090375D01*
X127259417Y-124157511D01*
X127239403Y-124224452D01*
X127186374Y-124269947D01*
X127135419Y-124280900D01*
X73046600Y-124280900D01*
X72979561Y-124261215D01*
X72933806Y-124208411D01*
X72922600Y-124156900D01*
X72922600Y-123512385D01*
X72924214Y-121031000D01*
X108976835Y-121031000D01*
X108995465Y-121267714D01*
X109050895Y-121498595D01*
X109050895Y-121498597D01*
X109141757Y-121717959D01*
X109141759Y-121717962D01*
X109265820Y-121920410D01*
X109265821Y-121920413D01*
X109318076Y-121981596D01*
X109420031Y-122100969D01*
X109559797Y-122220340D01*
X109600586Y-122255178D01*
X109600588Y-122255178D01*
X109803037Y-122379240D01*
X109803040Y-122379242D01*
X110022403Y-122470104D01*
X110022404Y-122470104D01*
X110022406Y-122470105D01*
X110253289Y-122525535D01*
X110490000Y-122544165D01*
X110726711Y-122525535D01*
X110957594Y-122470105D01*
X110957596Y-122470104D01*
X110957597Y-122470104D01*
X111176959Y-122379242D01*
X111176960Y-122379241D01*
X111176963Y-122379240D01*
X111379416Y-122255176D01*
X111559969Y-122100969D01*
X111714176Y-121920416D01*
X111838240Y-121717963D01*
X111929105Y-121498594D01*
X111984535Y-121267711D01*
X112003165Y-121031000D01*
X114234635Y-121031000D01*
X114253265Y-121267714D01*
X114308695Y-121498595D01*
X114308695Y-121498597D01*
X114399557Y-121717959D01*
X114399559Y-121717962D01*
X114523620Y-121920410D01*
X114523621Y-121920413D01*
X114575876Y-121981596D01*
X114677831Y-122100969D01*
X114817597Y-122220340D01*
X114858386Y-122255178D01*
X114858388Y-122255178D01*
X115060837Y-122379240D01*
X115060840Y-122379242D01*
X115280203Y-122470104D01*
X115280204Y-122470104D01*
X115280206Y-122470105D01*
X115511089Y-122525535D01*
X115747800Y-122544165D01*
X115984511Y-122525535D01*
X116215394Y-122470105D01*
X116215396Y-122470104D01*
X116215397Y-122470104D01*
X116434759Y-122379242D01*
X116434760Y-122379241D01*
X116434763Y-122379240D01*
X116637216Y-122255176D01*
X116817769Y-122100969D01*
X116971976Y-121920416D01*
X117096040Y-121717963D01*
X117186905Y-121498594D01*
X117242335Y-121267711D01*
X117260965Y-121031005D01*
X119652859Y-121031005D01*
X119673385Y-121278729D01*
X119673387Y-121278738D01*
X119734412Y-121519717D01*
X119834266Y-121747364D01*
X119934564Y-121900882D01*
X120674923Y-121160523D01*
X120698507Y-121240844D01*
X120776239Y-121361798D01*
X120884900Y-121455952D01*
X121015685Y-121515680D01*
X121025466Y-121517086D01*
X120287942Y-122254609D01*
X120334768Y-122291055D01*
X120334770Y-122291056D01*
X120553385Y-122409364D01*
X120553396Y-122409369D01*
X120788506Y-122490083D01*
X121033707Y-122531000D01*
X121282293Y-122531000D01*
X121527493Y-122490083D01*
X121762603Y-122409369D01*
X121762614Y-122409364D01*
X121981228Y-122291057D01*
X121981231Y-122291055D01*
X122028056Y-122254609D01*
X121290533Y-121517086D01*
X121300315Y-121515680D01*
X121431100Y-121455952D01*
X121539761Y-121361798D01*
X121617493Y-121240844D01*
X121641076Y-121160524D01*
X122381434Y-121900882D01*
X122481731Y-121747369D01*
X122581587Y-121519717D01*
X122642612Y-121278738D01*
X122642614Y-121278729D01*
X122663141Y-121031005D01*
X122663141Y-121030994D01*
X122642614Y-120783270D01*
X122642612Y-120783261D01*
X122581587Y-120542282D01*
X122481731Y-120314630D01*
X122381434Y-120161116D01*
X121641076Y-120901475D01*
X121617493Y-120821156D01*
X121539761Y-120700202D01*
X121431100Y-120606048D01*
X121300315Y-120546320D01*
X121290534Y-120544913D01*
X122028057Y-119807390D01*
X122028056Y-119807389D01*
X121981229Y-119770943D01*
X121762614Y-119652635D01*
X121762603Y-119652630D01*
X121527493Y-119571916D01*
X121282293Y-119531000D01*
X121033707Y-119531000D01*
X120788506Y-119571916D01*
X120553396Y-119652630D01*
X120553390Y-119652632D01*
X120334761Y-119770949D01*
X120287942Y-119807388D01*
X120287942Y-119807390D01*
X121025466Y-120544913D01*
X121015685Y-120546320D01*
X120884900Y-120606048D01*
X120776239Y-120700202D01*
X120698507Y-120821156D01*
X120674923Y-120901475D01*
X119934564Y-120161116D01*
X119834267Y-120314632D01*
X119734412Y-120542282D01*
X119673387Y-120783261D01*
X119673385Y-120783270D01*
X119652859Y-121030994D01*
X119652859Y-121031005D01*
X117260965Y-121031005D01*
X117260965Y-121031000D01*
X117242335Y-120794289D01*
X117186905Y-120563406D01*
X117186904Y-120563403D01*
X117186904Y-120563402D01*
X117096042Y-120344040D01*
X117096040Y-120344037D01*
X116971979Y-120141589D01*
X116971978Y-120141586D01*
X116924789Y-120086335D01*
X116817769Y-119961031D01*
X116637878Y-119807389D01*
X116637213Y-119806821D01*
X116637210Y-119806820D01*
X116434762Y-119682759D01*
X116434759Y-119682757D01*
X116215396Y-119591895D01*
X115984514Y-119536465D01*
X115747800Y-119517835D01*
X115511085Y-119536465D01*
X115280204Y-119591895D01*
X115280202Y-119591895D01*
X115060840Y-119682757D01*
X115060837Y-119682759D01*
X114858389Y-119806820D01*
X114858386Y-119806821D01*
X114677831Y-119961031D01*
X114523621Y-120141586D01*
X114523620Y-120141589D01*
X114399559Y-120344037D01*
X114399557Y-120344040D01*
X114308695Y-120563402D01*
X114308695Y-120563404D01*
X114253265Y-120794285D01*
X114234635Y-121031000D01*
X112003165Y-121031000D01*
X111984535Y-120794289D01*
X111929105Y-120563406D01*
X111929104Y-120563403D01*
X111929104Y-120563402D01*
X111838242Y-120344040D01*
X111838240Y-120344037D01*
X111714179Y-120141589D01*
X111714178Y-120141586D01*
X111666989Y-120086335D01*
X111559969Y-119961031D01*
X111380078Y-119807389D01*
X111379413Y-119806821D01*
X111379410Y-119806820D01*
X111176962Y-119682759D01*
X111176959Y-119682757D01*
X110957596Y-119591895D01*
X110726714Y-119536465D01*
X110490000Y-119517835D01*
X110253285Y-119536465D01*
X110022404Y-119591895D01*
X110022402Y-119591895D01*
X109803040Y-119682757D01*
X109803037Y-119682759D01*
X109600589Y-119806820D01*
X109600586Y-119806821D01*
X109420031Y-119961031D01*
X109265821Y-120141586D01*
X109265820Y-120141589D01*
X109141759Y-120344037D01*
X109141757Y-120344040D01*
X109050895Y-120563402D01*
X109050895Y-120563404D01*
X108995465Y-120794285D01*
X108976835Y-121031000D01*
X72924214Y-121031000D01*
X72924368Y-120794285D01*
X72929998Y-112141002D01*
X77867492Y-112141002D01*
X77887901Y-112426363D01*
X77948710Y-112705896D01*
X78048692Y-112973959D01*
X78185792Y-113225039D01*
X78185797Y-113225047D01*
X78292483Y-113367562D01*
X78292484Y-113367563D01*
X79195404Y-112464642D01*
X79218660Y-112518554D01*
X79323357Y-112659186D01*
X79457663Y-112771883D01*
X79549266Y-112817887D01*
X78646037Y-113721116D01*
X78788561Y-113827808D01*
X78788562Y-113827809D01*
X79039643Y-113964909D01*
X79039642Y-113964909D01*
X79307705Y-114064891D01*
X79587238Y-114125700D01*
X79872600Y-114146110D01*
X79872602Y-114146110D01*
X80157963Y-114125700D01*
X80437496Y-114064891D01*
X80705559Y-113964909D01*
X80956648Y-113827804D01*
X81099162Y-113721117D01*
X81099163Y-113721116D01*
X81067702Y-113689655D01*
X98354101Y-113689655D01*
X98360612Y-113750203D01*
X98360612Y-113750205D01*
X98389558Y-113827809D01*
X98411712Y-113887205D01*
X98499340Y-114004262D01*
X98616397Y-114091890D01*
X98753400Y-114142990D01*
X98780651Y-114145919D01*
X98813946Y-114149500D01*
X98813963Y-114149501D01*
X101911239Y-114149501D01*
X101911255Y-114149500D01*
X101938293Y-114146592D01*
X101971802Y-114142990D01*
X102108805Y-114091890D01*
X102225862Y-114004262D01*
X102313490Y-113887205D01*
X102364590Y-113750202D01*
X102368192Y-113716693D01*
X102371100Y-113689655D01*
X102371101Y-113689638D01*
X102371101Y-110592363D01*
X102371100Y-110592346D01*
X102368289Y-110566205D01*
X104514459Y-110566205D01*
X104534985Y-110813929D01*
X104534987Y-110813938D01*
X104596012Y-111054917D01*
X104695866Y-111282564D01*
X104796164Y-111436082D01*
X105536523Y-110695723D01*
X105560107Y-110776044D01*
X105637839Y-110896998D01*
X105746500Y-110991152D01*
X105877285Y-111050880D01*
X105887066Y-111052286D01*
X105149542Y-111789809D01*
X105196368Y-111826255D01*
X105196370Y-111826256D01*
X105414985Y-111944564D01*
X105414996Y-111944569D01*
X105650106Y-112025283D01*
X105895307Y-112066200D01*
X106143893Y-112066200D01*
X106389093Y-112025283D01*
X106624203Y-111944569D01*
X106624214Y-111944564D01*
X106842828Y-111826257D01*
X106842831Y-111826255D01*
X106889656Y-111789809D01*
X106152133Y-111052286D01*
X106161915Y-111050880D01*
X106292700Y-110991152D01*
X106401361Y-110896998D01*
X106479093Y-110776044D01*
X106502676Y-110695724D01*
X107243034Y-111436082D01*
X107343331Y-111282569D01*
X107443187Y-111054917D01*
X107469198Y-110952205D01*
X127541844Y-110952205D01*
X127560434Y-111176559D01*
X127560436Y-111176571D01*
X127615703Y-111394814D01*
X127706140Y-111600992D01*
X127812278Y-111763448D01*
X127829278Y-111789468D01*
X127980707Y-111953962D01*
X128011629Y-112016615D01*
X128003769Y-112086041D01*
X127959622Y-112140197D01*
X127932811Y-112154126D01*
X127812912Y-112198846D01*
X127812906Y-112198849D01*
X127697812Y-112285009D01*
X127697809Y-112285012D01*
X127611649Y-112400106D01*
X127611645Y-112400113D01*
X127561403Y-112534820D01*
X127561401Y-112534827D01*
X127555000Y-112594355D01*
X127555000Y-113242200D01*
X128471314Y-113242200D01*
X128445507Y-113282356D01*
X128405000Y-113420311D01*
X128405000Y-113564089D01*
X128445507Y-113702044D01*
X128471314Y-113742200D01*
X127555000Y-113742200D01*
X127555000Y-114390044D01*
X127561401Y-114449572D01*
X127561403Y-114449579D01*
X127611645Y-114584286D01*
X127611649Y-114584293D01*
X127697809Y-114699387D01*
X127697812Y-114699390D01*
X127812906Y-114785550D01*
X127812913Y-114785554D01*
X127947620Y-114835796D01*
X127947627Y-114835798D01*
X128007155Y-114842199D01*
X128007172Y-114842200D01*
X128655000Y-114842200D01*
X128655000Y-113927701D01*
X128762685Y-113976880D01*
X128869237Y-113992200D01*
X128940763Y-113992200D01*
X129047315Y-113976880D01*
X129155000Y-113927701D01*
X129155000Y-114842200D01*
X129802828Y-114842200D01*
X129802844Y-114842199D01*
X129862372Y-114835798D01*
X129862379Y-114835796D01*
X129997086Y-114785554D01*
X129997093Y-114785550D01*
X130112187Y-114699390D01*
X130112190Y-114699387D01*
X130198350Y-114584293D01*
X130198354Y-114584286D01*
X130248596Y-114449579D01*
X130248598Y-114449572D01*
X130254999Y-114390044D01*
X130255000Y-114390027D01*
X130255000Y-113742200D01*
X129338686Y-113742200D01*
X129364493Y-113702044D01*
X129405000Y-113564089D01*
X129405000Y-113420311D01*
X129364493Y-113282356D01*
X129338686Y-113242200D01*
X130255000Y-113242200D01*
X130255000Y-112594372D01*
X130254999Y-112594355D01*
X130248598Y-112534827D01*
X130248596Y-112534820D01*
X130198354Y-112400113D01*
X130198350Y-112400106D01*
X130112190Y-112285012D01*
X130112187Y-112285009D01*
X129997093Y-112198849D01*
X129997088Y-112198846D01*
X129877188Y-112154126D01*
X129821255Y-112112254D01*
X129796838Y-112046790D01*
X129811690Y-111978517D01*
X129829286Y-111953969D01*
X129980722Y-111789468D01*
X130103860Y-111600991D01*
X130194296Y-111394816D01*
X130249564Y-111176568D01*
X130259476Y-111056954D01*
X130268156Y-110952205D01*
X130268156Y-110952194D01*
X130249565Y-110727840D01*
X130249563Y-110727828D01*
X130226838Y-110638089D01*
X130194296Y-110509584D01*
X130103860Y-110303409D01*
X129980722Y-110114932D01*
X129980719Y-110114929D01*
X129980715Y-110114923D01*
X129828243Y-109949297D01*
X129828238Y-109949292D01*
X129650577Y-109811012D01*
X129650572Y-109811008D01*
X129452580Y-109703861D01*
X129452577Y-109703859D01*
X129452574Y-109703858D01*
X129452571Y-109703857D01*
X129452569Y-109703856D01*
X129239637Y-109630756D01*
X129017569Y-109593700D01*
X128792431Y-109593700D01*
X128570362Y-109630756D01*
X128357430Y-109703856D01*
X128357419Y-109703861D01*
X128159427Y-109811008D01*
X128159422Y-109811012D01*
X127981761Y-109949292D01*
X127981756Y-109949297D01*
X127829284Y-110114923D01*
X127829276Y-110114934D01*
X127706140Y-110303407D01*
X127615703Y-110509585D01*
X127560436Y-110727828D01*
X127560434Y-110727840D01*
X127541844Y-110952194D01*
X127541844Y-110952205D01*
X107469198Y-110952205D01*
X107504212Y-110813938D01*
X107504214Y-110813929D01*
X107524741Y-110566205D01*
X107524741Y-110566194D01*
X107504214Y-110318470D01*
X107504212Y-110318461D01*
X107443187Y-110077482D01*
X107343331Y-109849830D01*
X107243034Y-109696316D01*
X106502676Y-110436675D01*
X106479093Y-110356356D01*
X106401361Y-110235402D01*
X106292700Y-110141248D01*
X106161915Y-110081520D01*
X106152134Y-110080113D01*
X106889657Y-109342590D01*
X106889656Y-109342589D01*
X106842829Y-109306143D01*
X106624214Y-109187835D01*
X106624203Y-109187830D01*
X106389093Y-109107116D01*
X106143893Y-109066200D01*
X105895307Y-109066200D01*
X105650106Y-109107116D01*
X105414996Y-109187830D01*
X105414990Y-109187832D01*
X105196361Y-109306149D01*
X105149542Y-109342588D01*
X105149542Y-109342590D01*
X105887066Y-110080113D01*
X105877285Y-110081520D01*
X105746500Y-110141248D01*
X105637839Y-110235402D01*
X105560107Y-110356356D01*
X105536523Y-110436675D01*
X104796164Y-109696316D01*
X104695867Y-109849832D01*
X104596012Y-110077482D01*
X104534987Y-110318461D01*
X104534985Y-110318470D01*
X104514459Y-110566194D01*
X104514459Y-110566205D01*
X102368289Y-110566205D01*
X102367717Y-110560883D01*
X102364590Y-110531800D01*
X102313490Y-110394797D01*
X102225862Y-110277740D01*
X102108805Y-110190112D01*
X101971804Y-110139012D01*
X101911255Y-110132501D01*
X101911239Y-110132501D01*
X98813963Y-110132501D01*
X98813946Y-110132501D01*
X98753398Y-110139012D01*
X98753396Y-110139012D01*
X98616396Y-110190112D01*
X98499340Y-110277740D01*
X98411712Y-110394796D01*
X98360612Y-110531796D01*
X98360612Y-110531798D01*
X98354101Y-110592346D01*
X98354101Y-113689655D01*
X81067702Y-113689655D01*
X80198547Y-112820499D01*
X80211492Y-112815788D01*
X80357974Y-112719446D01*
X80478289Y-112591919D01*
X80551048Y-112465895D01*
X81452716Y-113367563D01*
X81452717Y-113367562D01*
X81559404Y-113225048D01*
X81696509Y-112973959D01*
X81796491Y-112705896D01*
X81857300Y-112426363D01*
X81877710Y-112141002D01*
X81877710Y-112140999D01*
X81857300Y-111855638D01*
X81796491Y-111576105D01*
X81696509Y-111308042D01*
X81559409Y-111056962D01*
X81559408Y-111056961D01*
X81452716Y-110914437D01*
X80549796Y-111817357D01*
X80526542Y-111763448D01*
X80421845Y-111622816D01*
X80287539Y-111510119D01*
X80195934Y-111464113D01*
X81099163Y-110560884D01*
X81099162Y-110560883D01*
X80956647Y-110454197D01*
X80956639Y-110454192D01*
X80705558Y-110317092D01*
X80705559Y-110317092D01*
X80437496Y-110217110D01*
X80157963Y-110156301D01*
X79872602Y-110135892D01*
X79872600Y-110135892D01*
X79587238Y-110156301D01*
X79307705Y-110217110D01*
X79039642Y-110317092D01*
X78788562Y-110454192D01*
X78788554Y-110454197D01*
X78646038Y-110560883D01*
X78646037Y-110560884D01*
X79546655Y-111461502D01*
X79533710Y-111466214D01*
X79387228Y-111562556D01*
X79266913Y-111690083D01*
X79194153Y-111816106D01*
X78292484Y-110914437D01*
X78292483Y-110914438D01*
X78185797Y-111056954D01*
X78185792Y-111056962D01*
X78048692Y-111308042D01*
X77948710Y-111576105D01*
X77887901Y-111855638D01*
X77867492Y-112140999D01*
X77867492Y-112141002D01*
X72929998Y-112141002D01*
X72934903Y-104602200D01*
X113183296Y-104602200D01*
X113203258Y-104792128D01*
X113203259Y-104792131D01*
X113262270Y-104973749D01*
X113262273Y-104973756D01*
X113357760Y-105139144D01*
X113450957Y-105242650D01*
X113481627Y-105276713D01*
X113485547Y-105281066D01*
X113640048Y-105393318D01*
X113814512Y-105470994D01*
X114001313Y-105510700D01*
X114192287Y-105510700D01*
X114379088Y-105470994D01*
X114553552Y-105393318D01*
X114708053Y-105281066D01*
X114708058Y-105281059D01*
X114712888Y-105276713D01*
X114714357Y-105278345D01*
X114765186Y-105247030D01*
X114797852Y-105242650D01*
X115694141Y-105242650D01*
X115761180Y-105262335D01*
X115786290Y-105283677D01*
X115790197Y-105288016D01*
X115944698Y-105400268D01*
X116119162Y-105477944D01*
X116305963Y-105517650D01*
X116496937Y-105517650D01*
X116683738Y-105477944D01*
X116858202Y-105400268D01*
X117012703Y-105288016D01*
X117140490Y-105146094D01*
X117235977Y-104980706D01*
X117294992Y-104799078D01*
X117314954Y-104609150D01*
X117294992Y-104419222D01*
X117235977Y-104237594D01*
X117140490Y-104072206D01*
X117012703Y-103930284D01*
X116858202Y-103818032D01*
X116683738Y-103740356D01*
X116683736Y-103740355D01*
X116496937Y-103700650D01*
X116305963Y-103700650D01*
X116119164Y-103740355D01*
X115944696Y-103818033D01*
X115790195Y-103930285D01*
X115786290Y-103934623D01*
X115726804Y-103971271D01*
X115694141Y-103975650D01*
X114810367Y-103975650D01*
X114743328Y-103955965D01*
X114718218Y-103934623D01*
X114708055Y-103923335D01*
X114553553Y-103811083D01*
X114553552Y-103811082D01*
X114379088Y-103733406D01*
X114379086Y-103733405D01*
X114192287Y-103693700D01*
X114001313Y-103693700D01*
X113814514Y-103733405D01*
X113640046Y-103811083D01*
X113485545Y-103923335D01*
X113357759Y-104065257D01*
X113262273Y-104230643D01*
X113262270Y-104230650D01*
X113203259Y-104412268D01*
X113203258Y-104412272D01*
X113183296Y-104602200D01*
X72934903Y-104602200D01*
X72937530Y-100563485D01*
X72957258Y-100496462D01*
X73010092Y-100450741D01*
X73079257Y-100440843D01*
X73142794Y-100469909D01*
X73180530Y-100528712D01*
X73181010Y-100530396D01*
X73274695Y-100867820D01*
X73274697Y-100867827D01*
X73409152Y-101205284D01*
X73409161Y-101205302D01*
X73579316Y-101526247D01*
X73579318Y-101526251D01*
X73783170Y-101826909D01*
X73783177Y-101826919D01*
X73914969Y-101982075D01*
X73914970Y-101982075D01*
X75156266Y-100740780D01*
X75319130Y-100931470D01*
X75509818Y-101094332D01*
X74265888Y-102338262D01*
X74265888Y-102338264D01*
X74282070Y-102353592D01*
X74282071Y-102353593D01*
X74571266Y-102573432D01*
X74571282Y-102573443D01*
X74882522Y-102760709D01*
X74882535Y-102760716D01*
X75212205Y-102913239D01*
X75212210Y-102913240D01*
X75556461Y-103029232D01*
X75911235Y-103107324D01*
X76272366Y-103146599D01*
X76272374Y-103146600D01*
X76635626Y-103146600D01*
X76635633Y-103146599D01*
X76996764Y-103107324D01*
X77351538Y-103029232D01*
X77695789Y-102913240D01*
X77695794Y-102913239D01*
X78025464Y-102760716D01*
X78025477Y-102760709D01*
X78336717Y-102573443D01*
X78336733Y-102573432D01*
X78625929Y-102353592D01*
X78642110Y-102338264D01*
X78642110Y-102338263D01*
X77398180Y-101094333D01*
X77588870Y-100931470D01*
X77751733Y-100740780D01*
X78993028Y-101982075D01*
X78993029Y-101982075D01*
X79124827Y-101826911D01*
X79124838Y-101826897D01*
X79328681Y-101526251D01*
X79328683Y-101526247D01*
X79498838Y-101205302D01*
X79498847Y-101205284D01*
X79633302Y-100867827D01*
X79633304Y-100867820D01*
X79730480Y-100517822D01*
X79730482Y-100517814D01*
X79789253Y-100159328D01*
X79808920Y-99796602D01*
X79808920Y-99796597D01*
X79789253Y-99433871D01*
X79730482Y-99075385D01*
X79730480Y-99075377D01*
X79705054Y-98983800D01*
X114783496Y-98983800D01*
X114803458Y-99173728D01*
X114803459Y-99173731D01*
X114862470Y-99355349D01*
X114862473Y-99355356D01*
X114957960Y-99520744D01*
X115085747Y-99662666D01*
X115240248Y-99774918D01*
X115414712Y-99852594D01*
X115601513Y-99892300D01*
X115792487Y-99892300D01*
X115979288Y-99852594D01*
X116153752Y-99774918D01*
X116308253Y-99662666D01*
X116312160Y-99658327D01*
X116371646Y-99621679D01*
X116404309Y-99617300D01*
X118599020Y-99617300D01*
X118666059Y-99636985D01*
X118691170Y-99658328D01*
X118717941Y-99688061D01*
X118717944Y-99688063D01*
X118717947Y-99688066D01*
X118872448Y-99800318D01*
X119046912Y-99877994D01*
X119233713Y-99917700D01*
X119424687Y-99917700D01*
X119611488Y-99877994D01*
X119785952Y-99800318D01*
X119940453Y-99688066D01*
X120068240Y-99546144D01*
X120163727Y-99380756D01*
X120222742Y-99199128D01*
X120242704Y-99009200D01*
X120222742Y-98819272D01*
X120163727Y-98637644D01*
X120068240Y-98472256D01*
X119940453Y-98330334D01*
X119785952Y-98218082D01*
X119611488Y-98140406D01*
X119611486Y-98140405D01*
X119424687Y-98100700D01*
X119233713Y-98100700D01*
X119046914Y-98140405D01*
X118872446Y-98218083D01*
X118723062Y-98326618D01*
X118657255Y-98350098D01*
X118650176Y-98350300D01*
X116404309Y-98350300D01*
X116337270Y-98330615D01*
X116312160Y-98309273D01*
X116308254Y-98304935D01*
X116179532Y-98211412D01*
X116153752Y-98192682D01*
X115979288Y-98115006D01*
X115979286Y-98115005D01*
X115792487Y-98075300D01*
X115601513Y-98075300D01*
X115414714Y-98115005D01*
X115240246Y-98192683D01*
X115085745Y-98304935D01*
X114957959Y-98446857D01*
X114862473Y-98612243D01*
X114862470Y-98612250D01*
X114803459Y-98793868D01*
X114803458Y-98793872D01*
X114783496Y-98983800D01*
X79705054Y-98983800D01*
X79633304Y-98725379D01*
X79633302Y-98725372D01*
X79498847Y-98387915D01*
X79498838Y-98387897D01*
X79328683Y-98066952D01*
X79328681Y-98066948D01*
X79175352Y-97840805D01*
X128013344Y-97840805D01*
X128031934Y-98065159D01*
X128031936Y-98065171D01*
X128087203Y-98283414D01*
X128177640Y-98489592D01*
X128290104Y-98661730D01*
X128300778Y-98678068D01*
X128452207Y-98842562D01*
X128483129Y-98905215D01*
X128475269Y-98974641D01*
X128431122Y-99028797D01*
X128404311Y-99042726D01*
X128284412Y-99087446D01*
X128284406Y-99087449D01*
X128169312Y-99173609D01*
X128169309Y-99173612D01*
X128083149Y-99288706D01*
X128083145Y-99288713D01*
X128032903Y-99423420D01*
X128032901Y-99423427D01*
X128026500Y-99482955D01*
X128026500Y-100130800D01*
X128942814Y-100130800D01*
X128917007Y-100170956D01*
X128876500Y-100308911D01*
X128876500Y-100452689D01*
X128917007Y-100590644D01*
X128942814Y-100630800D01*
X128026500Y-100630800D01*
X128026500Y-101278644D01*
X128032901Y-101338172D01*
X128032903Y-101338179D01*
X128083145Y-101472886D01*
X128083149Y-101472893D01*
X128169309Y-101587987D01*
X128169312Y-101587990D01*
X128284406Y-101674150D01*
X128284413Y-101674154D01*
X128419120Y-101724396D01*
X128419127Y-101724398D01*
X128478655Y-101730799D01*
X128478672Y-101730800D01*
X129126500Y-101730800D01*
X129126500Y-100816301D01*
X129234185Y-100865480D01*
X129340737Y-100880800D01*
X129412263Y-100880800D01*
X129518815Y-100865480D01*
X129626500Y-100816301D01*
X129626500Y-101730800D01*
X130274328Y-101730800D01*
X130274344Y-101730799D01*
X130333872Y-101724398D01*
X130333879Y-101724396D01*
X130468586Y-101674154D01*
X130468593Y-101674150D01*
X130583687Y-101587990D01*
X130583690Y-101587987D01*
X130669850Y-101472893D01*
X130669854Y-101472886D01*
X130720096Y-101338179D01*
X130720098Y-101338172D01*
X130726499Y-101278644D01*
X130726500Y-101278627D01*
X130726500Y-100630800D01*
X129810186Y-100630800D01*
X129835993Y-100590644D01*
X129876500Y-100452689D01*
X129876500Y-100308911D01*
X129835993Y-100170956D01*
X129810186Y-100130800D01*
X130726500Y-100130800D01*
X130726500Y-99482972D01*
X130726499Y-99482955D01*
X130720098Y-99423427D01*
X130720096Y-99423420D01*
X130669854Y-99288713D01*
X130669850Y-99288706D01*
X130583690Y-99173612D01*
X130583687Y-99173609D01*
X130468593Y-99087449D01*
X130468588Y-99087446D01*
X130348688Y-99042726D01*
X130292755Y-99000854D01*
X130268338Y-98935390D01*
X130283190Y-98867117D01*
X130300786Y-98842569D01*
X130452222Y-98678068D01*
X130575360Y-98489591D01*
X130665796Y-98283416D01*
X130721064Y-98065168D01*
X130739656Y-97840800D01*
X130721064Y-97616432D01*
X130665796Y-97398184D01*
X130575360Y-97192009D01*
X130555893Y-97162213D01*
X130462829Y-97019767D01*
X130452222Y-97003532D01*
X130452219Y-97003529D01*
X130452215Y-97003523D01*
X130299743Y-96837897D01*
X130299738Y-96837892D01*
X130122077Y-96699612D01*
X130122072Y-96699608D01*
X129924080Y-96592461D01*
X129924077Y-96592459D01*
X129924074Y-96592458D01*
X129924071Y-96592457D01*
X129924069Y-96592456D01*
X129711137Y-96519356D01*
X129489069Y-96482300D01*
X129263931Y-96482300D01*
X129041862Y-96519356D01*
X128828930Y-96592456D01*
X128828919Y-96592461D01*
X128630927Y-96699608D01*
X128630922Y-96699612D01*
X128453261Y-96837892D01*
X128453256Y-96837897D01*
X128300784Y-97003523D01*
X128300776Y-97003534D01*
X128177640Y-97192007D01*
X128087203Y-97398185D01*
X128031936Y-97616428D01*
X128031934Y-97616440D01*
X128013344Y-97840794D01*
X128013344Y-97840805D01*
X79175352Y-97840805D01*
X79124829Y-97766290D01*
X79124822Y-97766280D01*
X78993029Y-97611123D01*
X78993028Y-97611123D01*
X77751732Y-98852418D01*
X77588870Y-98661730D01*
X77398180Y-98498866D01*
X78642110Y-97254936D01*
X78642110Y-97254934D01*
X78625929Y-97239607D01*
X78625928Y-97239606D01*
X78336733Y-97019767D01*
X78336717Y-97019756D01*
X78025477Y-96832490D01*
X78025464Y-96832483D01*
X77695794Y-96679960D01*
X77695789Y-96679959D01*
X77351538Y-96563967D01*
X76996764Y-96485875D01*
X76635633Y-96446600D01*
X76272366Y-96446600D01*
X75911235Y-96485875D01*
X75556461Y-96563967D01*
X75212210Y-96679959D01*
X75212205Y-96679960D01*
X74882535Y-96832483D01*
X74882522Y-96832490D01*
X74571282Y-97019756D01*
X74571266Y-97019767D01*
X74282075Y-97239602D01*
X74265888Y-97254935D01*
X74265887Y-97254935D01*
X75509819Y-98498866D01*
X75319130Y-98661730D01*
X75156266Y-98852418D01*
X73914970Y-97611122D01*
X73914969Y-97611123D01*
X73783177Y-97766280D01*
X73783170Y-97766290D01*
X73579318Y-98066948D01*
X73579316Y-98066952D01*
X73409161Y-98387897D01*
X73409152Y-98387915D01*
X73274697Y-98725372D01*
X73274696Y-98725374D01*
X73182010Y-99059201D01*
X73145108Y-99118530D01*
X73081988Y-99148491D01*
X73012690Y-99139570D01*
X72959216Y-99094600D01*
X72938544Y-99027859D01*
X72938530Y-99026073D01*
X72940535Y-95944033D01*
X81677118Y-95944033D01*
X81706476Y-96185821D01*
X81774237Y-96419756D01*
X81774238Y-96419759D01*
X81878651Y-96639807D01*
X82017007Y-96840248D01*
X82017008Y-96840249D01*
X82185722Y-97015900D01*
X82380429Y-97162213D01*
X82380431Y-97162214D01*
X82380435Y-97162217D01*
X82492734Y-97221156D01*
X82596092Y-97275403D01*
X82596094Y-97275403D01*
X82596095Y-97275404D01*
X82711606Y-97313967D01*
X82827117Y-97352531D01*
X83067518Y-97391600D01*
X83067521Y-97391600D01*
X85450087Y-97391600D01*
X85450097Y-97391600D01*
X85632068Y-97376910D01*
X85868548Y-97318623D01*
X86018026Y-97254936D01*
X86092607Y-97223160D01*
X86092607Y-97223159D01*
X86092616Y-97223156D01*
X86298468Y-97092983D01*
X86480774Y-96931475D01*
X86634810Y-96742814D01*
X86756589Y-96531887D01*
X86842956Y-96304157D01*
X86891674Y-96065521D01*
X86901481Y-95822161D01*
X86872123Y-95580380D01*
X86872123Y-95580378D01*
X86804362Y-95346443D01*
X86804361Y-95346438D01*
X86699950Y-95126396D01*
X86699949Y-95126395D01*
X86699948Y-95126392D01*
X86561592Y-94925951D01*
X86561591Y-94925950D01*
X86392877Y-94750299D01*
X86198170Y-94603986D01*
X86198166Y-94603983D01*
X86198165Y-94603983D01*
X86171346Y-94589907D01*
X85982507Y-94490796D01*
X85982503Y-94490795D01*
X85751482Y-94413668D01*
X85511082Y-94374600D01*
X85511079Y-94374600D01*
X83128503Y-94374600D01*
X83128493Y-94374600D01*
X82946532Y-94389289D01*
X82710049Y-94447577D01*
X82485992Y-94543039D01*
X82485984Y-94543043D01*
X82485984Y-94543044D01*
X82280132Y-94673217D01*
X82097826Y-94834725D01*
X82097824Y-94834726D01*
X82097822Y-94834729D01*
X81943789Y-95023385D01*
X81943787Y-95023389D01*
X81822015Y-95234303D01*
X81822010Y-95234313D01*
X81735645Y-95462038D01*
X81686926Y-95700674D01*
X81686925Y-95700682D01*
X81677118Y-95944032D01*
X81677118Y-95944033D01*
X72940535Y-95944033D01*
X72942942Y-92245154D01*
X79389300Y-92245154D01*
X79404685Y-92430830D01*
X79404687Y-92430838D01*
X79465712Y-92671817D01*
X79565567Y-92899467D01*
X79701532Y-93107578D01*
X79869892Y-93290464D01*
X79869902Y-93290473D01*
X80066062Y-93443151D01*
X80066071Y-93443157D01*
X80284685Y-93561464D01*
X80284696Y-93561469D01*
X80519807Y-93642183D01*
X80639299Y-93662123D01*
X80639300Y-93662122D01*
X80639300Y-92616786D01*
X80679456Y-92642593D01*
X80817411Y-92683100D01*
X80961189Y-92683100D01*
X81099144Y-92642593D01*
X81139300Y-92616786D01*
X81139300Y-93662123D01*
X81258792Y-93642183D01*
X81493903Y-93561469D01*
X81493914Y-93561464D01*
X81712528Y-93443157D01*
X81712537Y-93443151D01*
X81727180Y-93431754D01*
X85680800Y-93431754D01*
X85687311Y-93492302D01*
X85687311Y-93492304D01*
X85738411Y-93629304D01*
X85826039Y-93746361D01*
X85943096Y-93833989D01*
X86080099Y-93885089D01*
X86107350Y-93888018D01*
X86140645Y-93891599D01*
X86140662Y-93891600D01*
X88237938Y-93891600D01*
X88237954Y-93891599D01*
X88264992Y-93888691D01*
X88298501Y-93885089D01*
X88435504Y-93833989D01*
X88552561Y-93746361D01*
X88640189Y-93629304D01*
X88691289Y-93492301D01*
X88694891Y-93458792D01*
X88697799Y-93431754D01*
X88697800Y-93431737D01*
X88697800Y-93319600D01*
X112141896Y-93319600D01*
X112161858Y-93509528D01*
X112161859Y-93509531D01*
X112220870Y-93691149D01*
X112220873Y-93691156D01*
X112316360Y-93856544D01*
X112444147Y-93998466D01*
X112598648Y-94110718D01*
X112773112Y-94188394D01*
X112959913Y-94228100D01*
X113150887Y-94228100D01*
X113337688Y-94188394D01*
X113512152Y-94110718D01*
X113666653Y-93998466D01*
X113670560Y-93994127D01*
X113730046Y-93957479D01*
X113762709Y-93953100D01*
X115858351Y-93953100D01*
X115925390Y-93972785D01*
X115950499Y-93994126D01*
X116000147Y-94049266D01*
X116154648Y-94161518D01*
X116329112Y-94239194D01*
X116515913Y-94278900D01*
X116706887Y-94278900D01*
X116893688Y-94239194D01*
X117068152Y-94161518D01*
X117222653Y-94049266D01*
X117350440Y-93907344D01*
X117445927Y-93741956D01*
X117504942Y-93560328D01*
X117524904Y-93370400D01*
X117504942Y-93180472D01*
X117445927Y-92998844D01*
X117350440Y-92833456D01*
X117222653Y-92691534D01*
X117068152Y-92579282D01*
X116893688Y-92501606D01*
X116893686Y-92501605D01*
X116706887Y-92461900D01*
X116515913Y-92461900D01*
X116329114Y-92501605D01*
X116154646Y-92579283D01*
X116096522Y-92621512D01*
X116040220Y-92662418D01*
X115974415Y-92685898D01*
X115967336Y-92686100D01*
X113762709Y-92686100D01*
X113695670Y-92666415D01*
X113670560Y-92645073D01*
X113666654Y-92640735D01*
X113512153Y-92528483D01*
X113512152Y-92528482D01*
X113337688Y-92450806D01*
X113337686Y-92450805D01*
X113150887Y-92411100D01*
X112959913Y-92411100D01*
X112773114Y-92450805D01*
X112598646Y-92528483D01*
X112444145Y-92640735D01*
X112316359Y-92782657D01*
X112220873Y-92948043D01*
X112220870Y-92948050D01*
X112161859Y-93129668D01*
X112161858Y-93129672D01*
X112141896Y-93319600D01*
X88697800Y-93319600D01*
X88697800Y-88734462D01*
X88697799Y-88734445D01*
X88694457Y-88703370D01*
X88691289Y-88673899D01*
X88681976Y-88648931D01*
X88643751Y-88546447D01*
X88640189Y-88536896D01*
X88552561Y-88419839D01*
X88435504Y-88332211D01*
X88298503Y-88281111D01*
X88237954Y-88274600D01*
X88237938Y-88274600D01*
X86140662Y-88274600D01*
X86140645Y-88274600D01*
X86080097Y-88281111D01*
X86080095Y-88281111D01*
X85943095Y-88332211D01*
X85826039Y-88419839D01*
X85738411Y-88536895D01*
X85687311Y-88673895D01*
X85687311Y-88673897D01*
X85680800Y-88734445D01*
X85680800Y-93431754D01*
X81727180Y-93431754D01*
X81908697Y-93290473D01*
X81908707Y-93290464D01*
X82077067Y-93107578D01*
X82213032Y-92899467D01*
X82312887Y-92671817D01*
X82373912Y-92430838D01*
X82373914Y-92430830D01*
X82389299Y-92245154D01*
X82389300Y-92245139D01*
X82389300Y-91333100D01*
X81389300Y-91333100D01*
X81389300Y-90833100D01*
X82389300Y-90833100D01*
X82389300Y-89921061D01*
X82389299Y-89921045D01*
X82373914Y-89735369D01*
X82373912Y-89735361D01*
X82312887Y-89494382D01*
X82213032Y-89266732D01*
X82077067Y-89058621D01*
X81908707Y-88875735D01*
X81908697Y-88875726D01*
X81712537Y-88723048D01*
X81712528Y-88723042D01*
X81493914Y-88604735D01*
X81493903Y-88604730D01*
X81258792Y-88524016D01*
X81139300Y-88504076D01*
X81139300Y-89549413D01*
X81099144Y-89523607D01*
X80961189Y-89483100D01*
X80817411Y-89483100D01*
X80679456Y-89523607D01*
X80639300Y-89549413D01*
X80639300Y-88504076D01*
X80639299Y-88504076D01*
X80519807Y-88524016D01*
X80284696Y-88604730D01*
X80284685Y-88604735D01*
X80066071Y-88723042D01*
X80066062Y-88723048D01*
X79869902Y-88875726D01*
X79869892Y-88875735D01*
X79701532Y-89058621D01*
X79565567Y-89266732D01*
X79465712Y-89494382D01*
X79404687Y-89735361D01*
X79404685Y-89735369D01*
X79389300Y-89921045D01*
X79389300Y-90833100D01*
X80389300Y-90833100D01*
X80389300Y-91333100D01*
X79389300Y-91333100D01*
X79389300Y-92245154D01*
X72942942Y-92245154D01*
X72943732Y-91030501D01*
X76085046Y-91030501D01*
X76095045Y-91240427D01*
X76144596Y-91444678D01*
X76144598Y-91444682D01*
X76231898Y-91635843D01*
X76231901Y-91635848D01*
X76231902Y-91635850D01*
X76231904Y-91635853D01*
X76294927Y-91724356D01*
X76353815Y-91807053D01*
X76353820Y-91807059D01*
X76505920Y-91952085D01*
X76600878Y-92013111D01*
X76682728Y-92065713D01*
X76877843Y-92143825D01*
X76981029Y-92163712D01*
X77084214Y-92183600D01*
X77084215Y-92183600D01*
X77241719Y-92183600D01*
X77241725Y-92183600D01*
X77398518Y-92168628D01*
X77600175Y-92109416D01*
X77786982Y-92013111D01*
X77952186Y-91883192D01*
X78089819Y-91724356D01*
X78194904Y-91542344D01*
X78263644Y-91343733D01*
X78293554Y-91135702D01*
X78283554Y-90925770D01*
X78234004Y-90721524D01*
X78192047Y-90629651D01*
X78146701Y-90530356D01*
X78146698Y-90530351D01*
X78146697Y-90530350D01*
X78146696Y-90530347D01*
X78024786Y-90359148D01*
X78024784Y-90359146D01*
X78024779Y-90359140D01*
X77872679Y-90214114D01*
X77695874Y-90100488D01*
X77500755Y-90022374D01*
X77294386Y-89982600D01*
X77294385Y-89982600D01*
X77136875Y-89982600D01*
X76980082Y-89997572D01*
X76980078Y-89997573D01*
X76778427Y-90056783D01*
X76591613Y-90153091D01*
X76426416Y-90283005D01*
X76426412Y-90283009D01*
X76288778Y-90441846D01*
X76183698Y-90623850D01*
X76114956Y-90822465D01*
X76114956Y-90822467D01*
X76097434Y-90944342D01*
X76085046Y-91030501D01*
X72943732Y-91030501D01*
X72947402Y-85390849D01*
X72967129Y-85323827D01*
X73019963Y-85278106D01*
X73071344Y-85266934D01*
X131675411Y-85241664D01*
X131742455Y-85261319D01*
G37*
%TD.AperFunction*%
%TA.AperFunction,Conductor*%
G36*
X131188728Y-123215175D02*
G01*
X131188729Y-123215175D01*
X131320527Y-123060011D01*
X131320538Y-123059997D01*
X131524378Y-122759356D01*
X131591144Y-122633423D01*
X131639938Y-122583414D01*
X131708023Y-122567722D01*
X131773783Y-122591332D01*
X131816340Y-122646746D01*
X131824700Y-122691506D01*
X131824700Y-124156900D01*
X131805015Y-124223939D01*
X131752211Y-124269694D01*
X131700700Y-124280900D01*
X130163981Y-124280900D01*
X130096942Y-124261215D01*
X130051187Y-124208411D01*
X130041243Y-124139253D01*
X130070268Y-124075697D01*
X130111915Y-124044361D01*
X130221164Y-123993816D01*
X130221177Y-123993809D01*
X130532417Y-123806543D01*
X130532433Y-123806532D01*
X130821629Y-123586692D01*
X130837810Y-123571364D01*
X130837810Y-123571363D01*
X129593880Y-122327433D01*
X129784570Y-122164570D01*
X129947433Y-121973880D01*
X131188728Y-123215175D01*
G37*
%TD.AperFunction*%
%TD*%
M02*
