%TF.GenerationSoftware,KiCad,Pcbnew,7.0.11-7.0.11~ubuntu22.04.1*%
%TF.CreationDate,2024-09-07T09:13:54-07:00*%
%TF.ProjectId,battery_pwr_brd_r3,62617474-6572-4795-9f70-77725f627264,rev?*%
%TF.SameCoordinates,Original*%
%TF.FileFunction,Legend,Top*%
%TF.FilePolarity,Positive*%
%FSLAX46Y46*%
G04 Gerber Fmt 4.6, Leading zero omitted, Abs format (unit mm)*
G04 Created by KiCad (PCBNEW 7.0.11-7.0.11~ubuntu22.04.1) date 2024-09-07 09:13:54*
%MOMM*%
%LPD*%
G01*
G04 APERTURE LIST*
%ADD10C,0.300000*%
%ADD11C,0.150000*%
%ADD12C,0.152400*%
%ADD13C,0.120000*%
G04 APERTURE END LIST*
D10*
X125608328Y-108666789D02*
X124108328Y-108666789D01*
X124108328Y-108666789D02*
X124108328Y-108095360D01*
X124108328Y-108095360D02*
X124179757Y-107952503D01*
X124179757Y-107952503D02*
X124251185Y-107881074D01*
X124251185Y-107881074D02*
X124394042Y-107809646D01*
X124394042Y-107809646D02*
X124608328Y-107809646D01*
X124608328Y-107809646D02*
X124751185Y-107881074D01*
X124751185Y-107881074D02*
X124822614Y-107952503D01*
X124822614Y-107952503D02*
X124894042Y-108095360D01*
X124894042Y-108095360D02*
X124894042Y-108666789D01*
X124108328Y-107309646D02*
X125608328Y-106952503D01*
X125608328Y-106952503D02*
X124536900Y-106666789D01*
X124536900Y-106666789D02*
X125608328Y-106381074D01*
X125608328Y-106381074D02*
X124108328Y-106023932D01*
X125608328Y-104595360D02*
X124894042Y-105095360D01*
X125608328Y-105452503D02*
X124108328Y-105452503D01*
X124108328Y-105452503D02*
X124108328Y-104881074D01*
X124108328Y-104881074D02*
X124179757Y-104738217D01*
X124179757Y-104738217D02*
X124251185Y-104666788D01*
X124251185Y-104666788D02*
X124394042Y-104595360D01*
X124394042Y-104595360D02*
X124608328Y-104595360D01*
X124608328Y-104595360D02*
X124751185Y-104666788D01*
X124751185Y-104666788D02*
X124822614Y-104738217D01*
X124822614Y-104738217D02*
X124894042Y-104881074D01*
X124894042Y-104881074D02*
X124894042Y-105452503D01*
X125751185Y-104309646D02*
X125751185Y-103166788D01*
X124108328Y-102523931D02*
X124108328Y-102238217D01*
X124108328Y-102238217D02*
X124179757Y-102095360D01*
X124179757Y-102095360D02*
X124322614Y-101952503D01*
X124322614Y-101952503D02*
X124608328Y-101881074D01*
X124608328Y-101881074D02*
X125108328Y-101881074D01*
X125108328Y-101881074D02*
X125394042Y-101952503D01*
X125394042Y-101952503D02*
X125536900Y-102095360D01*
X125536900Y-102095360D02*
X125608328Y-102238217D01*
X125608328Y-102238217D02*
X125608328Y-102523931D01*
X125608328Y-102523931D02*
X125536900Y-102666789D01*
X125536900Y-102666789D02*
X125394042Y-102809646D01*
X125394042Y-102809646D02*
X125108328Y-102881074D01*
X125108328Y-102881074D02*
X124608328Y-102881074D01*
X124608328Y-102881074D02*
X124322614Y-102809646D01*
X124322614Y-102809646D02*
X124179757Y-102666789D01*
X124179757Y-102666789D02*
X124108328Y-102523931D01*
X125608328Y-101238217D02*
X124108328Y-101238217D01*
X125608328Y-100381074D02*
X124751185Y-101023931D01*
X124108328Y-100381074D02*
X124965471Y-101238217D01*
D11*
X98292212Y-116852309D02*
X97958879Y-116852309D01*
X97958879Y-117376119D02*
X97958879Y-116376119D01*
X97958879Y-116376119D02*
X98435069Y-116376119D01*
X99006498Y-116376119D02*
X99196974Y-116376119D01*
X99196974Y-116376119D02*
X99292212Y-116423738D01*
X99292212Y-116423738D02*
X99387450Y-116518976D01*
X99387450Y-116518976D02*
X99435069Y-116709452D01*
X99435069Y-116709452D02*
X99435069Y-117042785D01*
X99435069Y-117042785D02*
X99387450Y-117233261D01*
X99387450Y-117233261D02*
X99292212Y-117328500D01*
X99292212Y-117328500D02*
X99196974Y-117376119D01*
X99196974Y-117376119D02*
X99006498Y-117376119D01*
X99006498Y-117376119D02*
X98911260Y-117328500D01*
X98911260Y-117328500D02*
X98816022Y-117233261D01*
X98816022Y-117233261D02*
X98768403Y-117042785D01*
X98768403Y-117042785D02*
X98768403Y-116709452D01*
X98768403Y-116709452D02*
X98816022Y-116518976D01*
X98816022Y-116518976D02*
X98911260Y-116423738D01*
X98911260Y-116423738D02*
X99006498Y-116376119D01*
X100625546Y-117376119D02*
X100625546Y-116376119D01*
X100625546Y-116376119D02*
X100863641Y-116376119D01*
X100863641Y-116376119D02*
X101006498Y-116423738D01*
X101006498Y-116423738D02*
X101101736Y-116518976D01*
X101101736Y-116518976D02*
X101149355Y-116614214D01*
X101149355Y-116614214D02*
X101196974Y-116804690D01*
X101196974Y-116804690D02*
X101196974Y-116947547D01*
X101196974Y-116947547D02*
X101149355Y-117138023D01*
X101149355Y-117138023D02*
X101101736Y-117233261D01*
X101101736Y-117233261D02*
X101006498Y-117328500D01*
X101006498Y-117328500D02*
X100863641Y-117376119D01*
X100863641Y-117376119D02*
X100625546Y-117376119D01*
X102006498Y-117328500D02*
X101911260Y-117376119D01*
X101911260Y-117376119D02*
X101720784Y-117376119D01*
X101720784Y-117376119D02*
X101625546Y-117328500D01*
X101625546Y-117328500D02*
X101577927Y-117233261D01*
X101577927Y-117233261D02*
X101577927Y-116852309D01*
X101577927Y-116852309D02*
X101625546Y-116757071D01*
X101625546Y-116757071D02*
X101720784Y-116709452D01*
X101720784Y-116709452D02*
X101911260Y-116709452D01*
X101911260Y-116709452D02*
X102006498Y-116757071D01*
X102006498Y-116757071D02*
X102054117Y-116852309D01*
X102054117Y-116852309D02*
X102054117Y-116947547D01*
X102054117Y-116947547D02*
X101577927Y-117042785D01*
X102435070Y-117328500D02*
X102530308Y-117376119D01*
X102530308Y-117376119D02*
X102720784Y-117376119D01*
X102720784Y-117376119D02*
X102816022Y-117328500D01*
X102816022Y-117328500D02*
X102863641Y-117233261D01*
X102863641Y-117233261D02*
X102863641Y-117185642D01*
X102863641Y-117185642D02*
X102816022Y-117090404D01*
X102816022Y-117090404D02*
X102720784Y-117042785D01*
X102720784Y-117042785D02*
X102577927Y-117042785D01*
X102577927Y-117042785D02*
X102482689Y-116995166D01*
X102482689Y-116995166D02*
X102435070Y-116899928D01*
X102435070Y-116899928D02*
X102435070Y-116852309D01*
X102435070Y-116852309D02*
X102482689Y-116757071D01*
X102482689Y-116757071D02*
X102577927Y-116709452D01*
X102577927Y-116709452D02*
X102720784Y-116709452D01*
X102720784Y-116709452D02*
X102816022Y-116757071D01*
X103292213Y-117376119D02*
X103292213Y-116709452D01*
X103292213Y-116376119D02*
X103244594Y-116423738D01*
X103244594Y-116423738D02*
X103292213Y-116471357D01*
X103292213Y-116471357D02*
X103339832Y-116423738D01*
X103339832Y-116423738D02*
X103292213Y-116376119D01*
X103292213Y-116376119D02*
X103292213Y-116471357D01*
X104196974Y-116709452D02*
X104196974Y-117518976D01*
X104196974Y-117518976D02*
X104149355Y-117614214D01*
X104149355Y-117614214D02*
X104101736Y-117661833D01*
X104101736Y-117661833D02*
X104006498Y-117709452D01*
X104006498Y-117709452D02*
X103863641Y-117709452D01*
X103863641Y-117709452D02*
X103768403Y-117661833D01*
X104196974Y-117328500D02*
X104101736Y-117376119D01*
X104101736Y-117376119D02*
X103911260Y-117376119D01*
X103911260Y-117376119D02*
X103816022Y-117328500D01*
X103816022Y-117328500D02*
X103768403Y-117280880D01*
X103768403Y-117280880D02*
X103720784Y-117185642D01*
X103720784Y-117185642D02*
X103720784Y-116899928D01*
X103720784Y-116899928D02*
X103768403Y-116804690D01*
X103768403Y-116804690D02*
X103816022Y-116757071D01*
X103816022Y-116757071D02*
X103911260Y-116709452D01*
X103911260Y-116709452D02*
X104101736Y-116709452D01*
X104101736Y-116709452D02*
X104196974Y-116757071D01*
X104673165Y-116709452D02*
X104673165Y-117376119D01*
X104673165Y-116804690D02*
X104720784Y-116757071D01*
X104720784Y-116757071D02*
X104816022Y-116709452D01*
X104816022Y-116709452D02*
X104958879Y-116709452D01*
X104958879Y-116709452D02*
X105054117Y-116757071D01*
X105054117Y-116757071D02*
X105101736Y-116852309D01*
X105101736Y-116852309D02*
X105101736Y-117376119D01*
X106244594Y-116376119D02*
X106482689Y-117376119D01*
X106482689Y-117376119D02*
X106673165Y-116661833D01*
X106673165Y-116661833D02*
X106863641Y-117376119D01*
X106863641Y-117376119D02*
X107101737Y-116376119D01*
X107625546Y-117376119D02*
X107530308Y-117328500D01*
X107530308Y-117328500D02*
X107482689Y-117280880D01*
X107482689Y-117280880D02*
X107435070Y-117185642D01*
X107435070Y-117185642D02*
X107435070Y-116899928D01*
X107435070Y-116899928D02*
X107482689Y-116804690D01*
X107482689Y-116804690D02*
X107530308Y-116757071D01*
X107530308Y-116757071D02*
X107625546Y-116709452D01*
X107625546Y-116709452D02*
X107768403Y-116709452D01*
X107768403Y-116709452D02*
X107863641Y-116757071D01*
X107863641Y-116757071D02*
X107911260Y-116804690D01*
X107911260Y-116804690D02*
X107958879Y-116899928D01*
X107958879Y-116899928D02*
X107958879Y-117185642D01*
X107958879Y-117185642D02*
X107911260Y-117280880D01*
X107911260Y-117280880D02*
X107863641Y-117328500D01*
X107863641Y-117328500D02*
X107768403Y-117376119D01*
X107768403Y-117376119D02*
X107625546Y-117376119D01*
X108387451Y-117376119D02*
X108387451Y-116709452D01*
X108387451Y-116899928D02*
X108435070Y-116804690D01*
X108435070Y-116804690D02*
X108482689Y-116757071D01*
X108482689Y-116757071D02*
X108577927Y-116709452D01*
X108577927Y-116709452D02*
X108673165Y-116709452D01*
X109006499Y-117376119D02*
X109006499Y-116376119D01*
X109101737Y-116995166D02*
X109387451Y-117376119D01*
X109387451Y-116709452D02*
X109006499Y-117090404D01*
X109768404Y-117328500D02*
X109863642Y-117376119D01*
X109863642Y-117376119D02*
X110054118Y-117376119D01*
X110054118Y-117376119D02*
X110149356Y-117328500D01*
X110149356Y-117328500D02*
X110196975Y-117233261D01*
X110196975Y-117233261D02*
X110196975Y-117185642D01*
X110196975Y-117185642D02*
X110149356Y-117090404D01*
X110149356Y-117090404D02*
X110054118Y-117042785D01*
X110054118Y-117042785D02*
X109911261Y-117042785D01*
X109911261Y-117042785D02*
X109816023Y-116995166D01*
X109816023Y-116995166D02*
X109768404Y-116899928D01*
X109768404Y-116899928D02*
X109768404Y-116852309D01*
X109768404Y-116852309D02*
X109816023Y-116757071D01*
X109816023Y-116757071D02*
X109911261Y-116709452D01*
X109911261Y-116709452D02*
X110054118Y-116709452D01*
X110054118Y-116709452D02*
X110149356Y-116757071D01*
D10*
X126792125Y-112724357D02*
X126649268Y-112652928D01*
X126649268Y-112652928D02*
X126434982Y-112652928D01*
X126434982Y-112652928D02*
X126220696Y-112724357D01*
X126220696Y-112724357D02*
X126077839Y-112867214D01*
X126077839Y-112867214D02*
X126006410Y-113010071D01*
X126006410Y-113010071D02*
X125934982Y-113295785D01*
X125934982Y-113295785D02*
X125934982Y-113510071D01*
X125934982Y-113510071D02*
X126006410Y-113795785D01*
X126006410Y-113795785D02*
X126077839Y-113938642D01*
X126077839Y-113938642D02*
X126220696Y-114081500D01*
X126220696Y-114081500D02*
X126434982Y-114152928D01*
X126434982Y-114152928D02*
X126577839Y-114152928D01*
X126577839Y-114152928D02*
X126792125Y-114081500D01*
X126792125Y-114081500D02*
X126863553Y-114010071D01*
X126863553Y-114010071D02*
X126863553Y-113510071D01*
X126863553Y-113510071D02*
X126577839Y-113510071D01*
X95476610Y-101621414D02*
X95690896Y-101692842D01*
X95690896Y-101692842D02*
X95762325Y-101764271D01*
X95762325Y-101764271D02*
X95833753Y-101907128D01*
X95833753Y-101907128D02*
X95833753Y-102121414D01*
X95833753Y-102121414D02*
X95762325Y-102264271D01*
X95762325Y-102264271D02*
X95690896Y-102335700D01*
X95690896Y-102335700D02*
X95548039Y-102407128D01*
X95548039Y-102407128D02*
X94976610Y-102407128D01*
X94976610Y-102407128D02*
X94976610Y-100907128D01*
X94976610Y-100907128D02*
X95476610Y-100907128D01*
X95476610Y-100907128D02*
X95619468Y-100978557D01*
X95619468Y-100978557D02*
X95690896Y-101049985D01*
X95690896Y-101049985D02*
X95762325Y-101192842D01*
X95762325Y-101192842D02*
X95762325Y-101335700D01*
X95762325Y-101335700D02*
X95690896Y-101478557D01*
X95690896Y-101478557D02*
X95619468Y-101549985D01*
X95619468Y-101549985D02*
X95476610Y-101621414D01*
X95476610Y-101621414D02*
X94976610Y-101621414D01*
X97119468Y-102407128D02*
X97119468Y-101621414D01*
X97119468Y-101621414D02*
X97048039Y-101478557D01*
X97048039Y-101478557D02*
X96905182Y-101407128D01*
X96905182Y-101407128D02*
X96619468Y-101407128D01*
X96619468Y-101407128D02*
X96476610Y-101478557D01*
X97119468Y-102335700D02*
X96976610Y-102407128D01*
X96976610Y-102407128D02*
X96619468Y-102407128D01*
X96619468Y-102407128D02*
X96476610Y-102335700D01*
X96476610Y-102335700D02*
X96405182Y-102192842D01*
X96405182Y-102192842D02*
X96405182Y-102049985D01*
X96405182Y-102049985D02*
X96476610Y-101907128D01*
X96476610Y-101907128D02*
X96619468Y-101835700D01*
X96619468Y-101835700D02*
X96976610Y-101835700D01*
X96976610Y-101835700D02*
X97119468Y-101764271D01*
X97619468Y-101407128D02*
X98190896Y-101407128D01*
X97833753Y-100907128D02*
X97833753Y-102192842D01*
X97833753Y-102192842D02*
X97905182Y-102335700D01*
X97905182Y-102335700D02*
X98048039Y-102407128D01*
X98048039Y-102407128D02*
X98190896Y-102407128D01*
X99833753Y-102407128D02*
X99833753Y-100907128D01*
X99833753Y-100907128D02*
X100405182Y-100907128D01*
X100405182Y-100907128D02*
X100548039Y-100978557D01*
X100548039Y-100978557D02*
X100619468Y-101049985D01*
X100619468Y-101049985D02*
X100690896Y-101192842D01*
X100690896Y-101192842D02*
X100690896Y-101407128D01*
X100690896Y-101407128D02*
X100619468Y-101549985D01*
X100619468Y-101549985D02*
X100548039Y-101621414D01*
X100548039Y-101621414D02*
X100405182Y-101692842D01*
X100405182Y-101692842D02*
X99833753Y-101692842D01*
X101190896Y-100907128D02*
X101548039Y-102407128D01*
X101548039Y-102407128D02*
X101833753Y-101335700D01*
X101833753Y-101335700D02*
X102119468Y-102407128D01*
X102119468Y-102407128D02*
X102476611Y-100907128D01*
X103905182Y-102407128D02*
X103405182Y-101692842D01*
X103048039Y-102407128D02*
X103048039Y-100907128D01*
X103048039Y-100907128D02*
X103619468Y-100907128D01*
X103619468Y-100907128D02*
X103762325Y-100978557D01*
X103762325Y-100978557D02*
X103833754Y-101049985D01*
X103833754Y-101049985D02*
X103905182Y-101192842D01*
X103905182Y-101192842D02*
X103905182Y-101407128D01*
X103905182Y-101407128D02*
X103833754Y-101549985D01*
X103833754Y-101549985D02*
X103762325Y-101621414D01*
X103762325Y-101621414D02*
X103619468Y-101692842D01*
X103619468Y-101692842D02*
X103048039Y-101692842D01*
X106190896Y-101621414D02*
X106405182Y-101692842D01*
X106405182Y-101692842D02*
X106476611Y-101764271D01*
X106476611Y-101764271D02*
X106548039Y-101907128D01*
X106548039Y-101907128D02*
X106548039Y-102121414D01*
X106548039Y-102121414D02*
X106476611Y-102264271D01*
X106476611Y-102264271D02*
X106405182Y-102335700D01*
X106405182Y-102335700D02*
X106262325Y-102407128D01*
X106262325Y-102407128D02*
X105690896Y-102407128D01*
X105690896Y-102407128D02*
X105690896Y-100907128D01*
X105690896Y-100907128D02*
X106190896Y-100907128D01*
X106190896Y-100907128D02*
X106333754Y-100978557D01*
X106333754Y-100978557D02*
X106405182Y-101049985D01*
X106405182Y-101049985D02*
X106476611Y-101192842D01*
X106476611Y-101192842D02*
X106476611Y-101335700D01*
X106476611Y-101335700D02*
X106405182Y-101478557D01*
X106405182Y-101478557D02*
X106333754Y-101549985D01*
X106333754Y-101549985D02*
X106190896Y-101621414D01*
X106190896Y-101621414D02*
X105690896Y-101621414D01*
X108048039Y-102407128D02*
X107548039Y-101692842D01*
X107190896Y-102407128D02*
X107190896Y-100907128D01*
X107190896Y-100907128D02*
X107762325Y-100907128D01*
X107762325Y-100907128D02*
X107905182Y-100978557D01*
X107905182Y-100978557D02*
X107976611Y-101049985D01*
X107976611Y-101049985D02*
X108048039Y-101192842D01*
X108048039Y-101192842D02*
X108048039Y-101407128D01*
X108048039Y-101407128D02*
X107976611Y-101549985D01*
X107976611Y-101549985D02*
X107905182Y-101621414D01*
X107905182Y-101621414D02*
X107762325Y-101692842D01*
X107762325Y-101692842D02*
X107190896Y-101692842D01*
X108690896Y-102407128D02*
X108690896Y-100907128D01*
X108690896Y-100907128D02*
X109048039Y-100907128D01*
X109048039Y-100907128D02*
X109262325Y-100978557D01*
X109262325Y-100978557D02*
X109405182Y-101121414D01*
X109405182Y-101121414D02*
X109476611Y-101264271D01*
X109476611Y-101264271D02*
X109548039Y-101549985D01*
X109548039Y-101549985D02*
X109548039Y-101764271D01*
X109548039Y-101764271D02*
X109476611Y-102049985D01*
X109476611Y-102049985D02*
X109405182Y-102192842D01*
X109405182Y-102192842D02*
X109262325Y-102335700D01*
X109262325Y-102335700D02*
X109048039Y-102407128D01*
X109048039Y-102407128D02*
X108690896Y-102407128D01*
X93269525Y-85954928D02*
X93555239Y-85954928D01*
X93555239Y-85954928D02*
X93698096Y-86026357D01*
X93698096Y-86026357D02*
X93840953Y-86169214D01*
X93840953Y-86169214D02*
X93912382Y-86454928D01*
X93912382Y-86454928D02*
X93912382Y-86954928D01*
X93912382Y-86954928D02*
X93840953Y-87240642D01*
X93840953Y-87240642D02*
X93698096Y-87383500D01*
X93698096Y-87383500D02*
X93555239Y-87454928D01*
X93555239Y-87454928D02*
X93269525Y-87454928D01*
X93269525Y-87454928D02*
X93126668Y-87383500D01*
X93126668Y-87383500D02*
X92983810Y-87240642D01*
X92983810Y-87240642D02*
X92912382Y-86954928D01*
X92912382Y-86954928D02*
X92912382Y-86454928D01*
X92912382Y-86454928D02*
X92983810Y-86169214D01*
X92983810Y-86169214D02*
X93126668Y-86026357D01*
X93126668Y-86026357D02*
X93269525Y-85954928D01*
X94555239Y-87454928D02*
X94555239Y-85954928D01*
X94555239Y-85954928D02*
X95412382Y-87454928D01*
X95412382Y-87454928D02*
X95412382Y-85954928D01*
X127044825Y-100048457D02*
X126901968Y-99977028D01*
X126901968Y-99977028D02*
X126687682Y-99977028D01*
X126687682Y-99977028D02*
X126473396Y-100048457D01*
X126473396Y-100048457D02*
X126330539Y-100191314D01*
X126330539Y-100191314D02*
X126259110Y-100334171D01*
X126259110Y-100334171D02*
X126187682Y-100619885D01*
X126187682Y-100619885D02*
X126187682Y-100834171D01*
X126187682Y-100834171D02*
X126259110Y-101119885D01*
X126259110Y-101119885D02*
X126330539Y-101262742D01*
X126330539Y-101262742D02*
X126473396Y-101405600D01*
X126473396Y-101405600D02*
X126687682Y-101477028D01*
X126687682Y-101477028D02*
X126830539Y-101477028D01*
X126830539Y-101477028D02*
X127044825Y-101405600D01*
X127044825Y-101405600D02*
X127116253Y-101334171D01*
X127116253Y-101334171D02*
X127116253Y-100834171D01*
X127116253Y-100834171D02*
X126830539Y-100834171D01*
X128395796Y-94211228D02*
X127681510Y-94211228D01*
X127681510Y-94211228D02*
X127610082Y-94925514D01*
X127610082Y-94925514D02*
X127681510Y-94854085D01*
X127681510Y-94854085D02*
X127824368Y-94782657D01*
X127824368Y-94782657D02*
X128181510Y-94782657D01*
X128181510Y-94782657D02*
X128324368Y-94854085D01*
X128324368Y-94854085D02*
X128395796Y-94925514D01*
X128395796Y-94925514D02*
X128467225Y-95068371D01*
X128467225Y-95068371D02*
X128467225Y-95425514D01*
X128467225Y-95425514D02*
X128395796Y-95568371D01*
X128395796Y-95568371D02*
X128324368Y-95639800D01*
X128324368Y-95639800D02*
X128181510Y-95711228D01*
X128181510Y-95711228D02*
X127824368Y-95711228D01*
X127824368Y-95711228D02*
X127681510Y-95639800D01*
X127681510Y-95639800D02*
X127610082Y-95568371D01*
X128895796Y-94211228D02*
X129395796Y-95711228D01*
X129395796Y-95711228D02*
X129895796Y-94211228D01*
X130681510Y-94211228D02*
X130824367Y-94211228D01*
X130824367Y-94211228D02*
X130967224Y-94282657D01*
X130967224Y-94282657D02*
X131038653Y-94354085D01*
X131038653Y-94354085D02*
X131110081Y-94496942D01*
X131110081Y-94496942D02*
X131181510Y-94782657D01*
X131181510Y-94782657D02*
X131181510Y-95139800D01*
X131181510Y-95139800D02*
X131110081Y-95425514D01*
X131110081Y-95425514D02*
X131038653Y-95568371D01*
X131038653Y-95568371D02*
X130967224Y-95639800D01*
X130967224Y-95639800D02*
X130824367Y-95711228D01*
X130824367Y-95711228D02*
X130681510Y-95711228D01*
X130681510Y-95711228D02*
X130538653Y-95639800D01*
X130538653Y-95639800D02*
X130467224Y-95568371D01*
X130467224Y-95568371D02*
X130395795Y-95425514D01*
X130395795Y-95425514D02*
X130324367Y-95139800D01*
X130324367Y-95139800D02*
X130324367Y-94782657D01*
X130324367Y-94782657D02*
X130395795Y-94496942D01*
X130395795Y-94496942D02*
X130467224Y-94354085D01*
X130467224Y-94354085D02*
X130538653Y-94282657D01*
X130538653Y-94282657D02*
X130681510Y-94211228D01*
D11*
X104858879Y-120376119D02*
X104858879Y-119709452D01*
X104858879Y-119899928D02*
X104906498Y-119804690D01*
X104906498Y-119804690D02*
X104954117Y-119757071D01*
X104954117Y-119757071D02*
X105049355Y-119709452D01*
X105049355Y-119709452D02*
X105144593Y-119709452D01*
X105668403Y-119376119D02*
X105763641Y-119376119D01*
X105763641Y-119376119D02*
X105858879Y-119423738D01*
X105858879Y-119423738D02*
X105906498Y-119471357D01*
X105906498Y-119471357D02*
X105954117Y-119566595D01*
X105954117Y-119566595D02*
X106001736Y-119757071D01*
X106001736Y-119757071D02*
X106001736Y-119995166D01*
X106001736Y-119995166D02*
X105954117Y-120185642D01*
X105954117Y-120185642D02*
X105906498Y-120280880D01*
X105906498Y-120280880D02*
X105858879Y-120328500D01*
X105858879Y-120328500D02*
X105763641Y-120376119D01*
X105763641Y-120376119D02*
X105668403Y-120376119D01*
X105668403Y-120376119D02*
X105573165Y-120328500D01*
X105573165Y-120328500D02*
X105525546Y-120280880D01*
X105525546Y-120280880D02*
X105477927Y-120185642D01*
X105477927Y-120185642D02*
X105430308Y-119995166D01*
X105430308Y-119995166D02*
X105430308Y-119757071D01*
X105430308Y-119757071D02*
X105477927Y-119566595D01*
X105477927Y-119566595D02*
X105525546Y-119471357D01*
X105525546Y-119471357D02*
X105573165Y-119423738D01*
X105573165Y-119423738D02*
X105668403Y-119376119D01*
X106430308Y-120280880D02*
X106477927Y-120328500D01*
X106477927Y-120328500D02*
X106430308Y-120376119D01*
X106430308Y-120376119D02*
X106382689Y-120328500D01*
X106382689Y-120328500D02*
X106430308Y-120280880D01*
X106430308Y-120280880D02*
X106430308Y-120376119D01*
X106811260Y-119376119D02*
X107430307Y-119376119D01*
X107430307Y-119376119D02*
X107096974Y-119757071D01*
X107096974Y-119757071D02*
X107239831Y-119757071D01*
X107239831Y-119757071D02*
X107335069Y-119804690D01*
X107335069Y-119804690D02*
X107382688Y-119852309D01*
X107382688Y-119852309D02*
X107430307Y-119947547D01*
X107430307Y-119947547D02*
X107430307Y-120185642D01*
X107430307Y-120185642D02*
X107382688Y-120280880D01*
X107382688Y-120280880D02*
X107335069Y-120328500D01*
X107335069Y-120328500D02*
X107239831Y-120376119D01*
X107239831Y-120376119D02*
X106954117Y-120376119D01*
X106954117Y-120376119D02*
X106858879Y-120328500D01*
X106858879Y-120328500D02*
X106811260Y-120280880D01*
D10*
X92534225Y-98148228D02*
X92819939Y-98148228D01*
X92819939Y-98148228D02*
X92962796Y-98219657D01*
X92962796Y-98219657D02*
X93105653Y-98362514D01*
X93105653Y-98362514D02*
X93177082Y-98648228D01*
X93177082Y-98648228D02*
X93177082Y-99148228D01*
X93177082Y-99148228D02*
X93105653Y-99433942D01*
X93105653Y-99433942D02*
X92962796Y-99576800D01*
X92962796Y-99576800D02*
X92819939Y-99648228D01*
X92819939Y-99648228D02*
X92534225Y-99648228D01*
X92534225Y-99648228D02*
X92391368Y-99576800D01*
X92391368Y-99576800D02*
X92248510Y-99433942D01*
X92248510Y-99433942D02*
X92177082Y-99148228D01*
X92177082Y-99148228D02*
X92177082Y-98648228D01*
X92177082Y-98648228D02*
X92248510Y-98362514D01*
X92248510Y-98362514D02*
X92391368Y-98219657D01*
X92391368Y-98219657D02*
X92534225Y-98148228D01*
X94319939Y-98862514D02*
X93819939Y-98862514D01*
X93819939Y-99648228D02*
X93819939Y-98148228D01*
X93819939Y-98148228D02*
X94534225Y-98148228D01*
X95605653Y-98862514D02*
X95105653Y-98862514D01*
X95105653Y-99648228D02*
X95105653Y-98148228D01*
X95105653Y-98148228D02*
X95819939Y-98148228D01*
D12*
X96712648Y-120474035D02*
X96906172Y-120474035D01*
X96906172Y-120474035D02*
X97002934Y-120425655D01*
X97002934Y-120425655D02*
X97051315Y-120377274D01*
X97051315Y-120377274D02*
X97148077Y-120232131D01*
X97148077Y-120232131D02*
X97196458Y-120038607D01*
X97196458Y-120038607D02*
X97196458Y-119651559D01*
X97196458Y-119651559D02*
X97148077Y-119554797D01*
X97148077Y-119554797D02*
X97099696Y-119506416D01*
X97099696Y-119506416D02*
X97002934Y-119458035D01*
X97002934Y-119458035D02*
X96809410Y-119458035D01*
X96809410Y-119458035D02*
X96712648Y-119506416D01*
X96712648Y-119506416D02*
X96664267Y-119554797D01*
X96664267Y-119554797D02*
X96615886Y-119651559D01*
X96615886Y-119651559D02*
X96615886Y-119893464D01*
X96615886Y-119893464D02*
X96664267Y-119990226D01*
X96664267Y-119990226D02*
X96712648Y-120038607D01*
X96712648Y-120038607D02*
X96809410Y-120086988D01*
X96809410Y-120086988D02*
X97002934Y-120086988D01*
X97002934Y-120086988D02*
X97099696Y-120038607D01*
X97099696Y-120038607D02*
X97148077Y-119990226D01*
X97148077Y-119990226D02*
X97196458Y-119893464D01*
X98357601Y-119409655D02*
X97486743Y-120715940D01*
X98889791Y-119458035D02*
X98986553Y-119458035D01*
X98986553Y-119458035D02*
X99083315Y-119506416D01*
X99083315Y-119506416D02*
X99131696Y-119554797D01*
X99131696Y-119554797D02*
X99180077Y-119651559D01*
X99180077Y-119651559D02*
X99228458Y-119845083D01*
X99228458Y-119845083D02*
X99228458Y-120086988D01*
X99228458Y-120086988D02*
X99180077Y-120280512D01*
X99180077Y-120280512D02*
X99131696Y-120377274D01*
X99131696Y-120377274D02*
X99083315Y-120425655D01*
X99083315Y-120425655D02*
X98986553Y-120474035D01*
X98986553Y-120474035D02*
X98889791Y-120474035D01*
X98889791Y-120474035D02*
X98793029Y-120425655D01*
X98793029Y-120425655D02*
X98744648Y-120377274D01*
X98744648Y-120377274D02*
X98696267Y-120280512D01*
X98696267Y-120280512D02*
X98647886Y-120086988D01*
X98647886Y-120086988D02*
X98647886Y-119845083D01*
X98647886Y-119845083D02*
X98696267Y-119651559D01*
X98696267Y-119651559D02*
X98744648Y-119554797D01*
X98744648Y-119554797D02*
X98793029Y-119506416D01*
X98793029Y-119506416D02*
X98889791Y-119458035D01*
X99567124Y-119458035D02*
X100244458Y-119458035D01*
X100244458Y-119458035D02*
X99809029Y-120474035D01*
X101357220Y-119409655D02*
X100486362Y-120715940D01*
X101647505Y-119554797D02*
X101695886Y-119506416D01*
X101695886Y-119506416D02*
X101792648Y-119458035D01*
X101792648Y-119458035D02*
X102034553Y-119458035D01*
X102034553Y-119458035D02*
X102131315Y-119506416D01*
X102131315Y-119506416D02*
X102179696Y-119554797D01*
X102179696Y-119554797D02*
X102228077Y-119651559D01*
X102228077Y-119651559D02*
X102228077Y-119748321D01*
X102228077Y-119748321D02*
X102179696Y-119893464D01*
X102179696Y-119893464D02*
X101599124Y-120474035D01*
X101599124Y-120474035D02*
X102228077Y-120474035D01*
X103098934Y-119796702D02*
X103098934Y-120474035D01*
X102857029Y-119409655D02*
X102615124Y-120135369D01*
X102615124Y-120135369D02*
X103244077Y-120135369D01*
D10*
X82138010Y-98757928D02*
X82138010Y-97257928D01*
X82852296Y-97757928D02*
X82852296Y-98757928D01*
X82852296Y-97900785D02*
X82923725Y-97829357D01*
X82923725Y-97829357D02*
X83066582Y-97757928D01*
X83066582Y-97757928D02*
X83280868Y-97757928D01*
X83280868Y-97757928D02*
X83423725Y-97829357D01*
X83423725Y-97829357D02*
X83495154Y-97972214D01*
X83495154Y-97972214D02*
X83495154Y-98757928D01*
X84209439Y-97757928D02*
X84209439Y-99257928D01*
X84209439Y-97829357D02*
X84352297Y-97757928D01*
X84352297Y-97757928D02*
X84638011Y-97757928D01*
X84638011Y-97757928D02*
X84780868Y-97829357D01*
X84780868Y-97829357D02*
X84852297Y-97900785D01*
X84852297Y-97900785D02*
X84923725Y-98043642D01*
X84923725Y-98043642D02*
X84923725Y-98472214D01*
X84923725Y-98472214D02*
X84852297Y-98615071D01*
X84852297Y-98615071D02*
X84780868Y-98686500D01*
X84780868Y-98686500D02*
X84638011Y-98757928D01*
X84638011Y-98757928D02*
X84352297Y-98757928D01*
X84352297Y-98757928D02*
X84209439Y-98686500D01*
X86209440Y-97757928D02*
X86209440Y-98757928D01*
X85566582Y-97757928D02*
X85566582Y-98543642D01*
X85566582Y-98543642D02*
X85638011Y-98686500D01*
X85638011Y-98686500D02*
X85780868Y-98757928D01*
X85780868Y-98757928D02*
X85995154Y-98757928D01*
X85995154Y-98757928D02*
X86138011Y-98686500D01*
X86138011Y-98686500D02*
X86209440Y-98615071D01*
X86709440Y-97757928D02*
X87280868Y-97757928D01*
X86923725Y-97257928D02*
X86923725Y-98543642D01*
X86923725Y-98543642D02*
X86995154Y-98686500D01*
X86995154Y-98686500D02*
X87138011Y-98757928D01*
X87138011Y-98757928D02*
X87280868Y-98757928D01*
X127056053Y-107216028D02*
X127984625Y-107216028D01*
X127984625Y-107216028D02*
X127484625Y-107787457D01*
X127484625Y-107787457D02*
X127698910Y-107787457D01*
X127698910Y-107787457D02*
X127841768Y-107858885D01*
X127841768Y-107858885D02*
X127913196Y-107930314D01*
X127913196Y-107930314D02*
X127984625Y-108073171D01*
X127984625Y-108073171D02*
X127984625Y-108430314D01*
X127984625Y-108430314D02*
X127913196Y-108573171D01*
X127913196Y-108573171D02*
X127841768Y-108644600D01*
X127841768Y-108644600D02*
X127698910Y-108716028D01*
X127698910Y-108716028D02*
X127270339Y-108716028D01*
X127270339Y-108716028D02*
X127127482Y-108644600D01*
X127127482Y-108644600D02*
X127056053Y-108573171D01*
X128413196Y-107216028D02*
X128913196Y-108716028D01*
X128913196Y-108716028D02*
X129413196Y-107216028D01*
X129770338Y-107216028D02*
X130698910Y-107216028D01*
X130698910Y-107216028D02*
X130198910Y-107787457D01*
X130198910Y-107787457D02*
X130413195Y-107787457D01*
X130413195Y-107787457D02*
X130556053Y-107858885D01*
X130556053Y-107858885D02*
X130627481Y-107930314D01*
X130627481Y-107930314D02*
X130698910Y-108073171D01*
X130698910Y-108073171D02*
X130698910Y-108430314D01*
X130698910Y-108430314D02*
X130627481Y-108573171D01*
X130627481Y-108573171D02*
X130556053Y-108644600D01*
X130556053Y-108644600D02*
X130413195Y-108716028D01*
X130413195Y-108716028D02*
X129984624Y-108716028D01*
X129984624Y-108716028D02*
X129841767Y-108644600D01*
X129841767Y-108644600D02*
X129770338Y-108573171D01*
D11*
X105784005Y-92061119D02*
X105784005Y-91061119D01*
X105784005Y-91061119D02*
X106022100Y-91061119D01*
X106022100Y-91061119D02*
X106164957Y-91108738D01*
X106164957Y-91108738D02*
X106260195Y-91203976D01*
X106260195Y-91203976D02*
X106307814Y-91299214D01*
X106307814Y-91299214D02*
X106355433Y-91489690D01*
X106355433Y-91489690D02*
X106355433Y-91632547D01*
X106355433Y-91632547D02*
X106307814Y-91823023D01*
X106307814Y-91823023D02*
X106260195Y-91918261D01*
X106260195Y-91918261D02*
X106164957Y-92013500D01*
X106164957Y-92013500D02*
X106022100Y-92061119D01*
X106022100Y-92061119D02*
X105784005Y-92061119D01*
X107212576Y-91394452D02*
X107212576Y-92061119D01*
X106974481Y-91013500D02*
X106736386Y-91727785D01*
X106736386Y-91727785D02*
X107355433Y-91727785D01*
X105784005Y-95161119D02*
X105784005Y-94161119D01*
X105784005Y-94161119D02*
X106022100Y-94161119D01*
X106022100Y-94161119D02*
X106164957Y-94208738D01*
X106164957Y-94208738D02*
X106260195Y-94303976D01*
X106260195Y-94303976D02*
X106307814Y-94399214D01*
X106307814Y-94399214D02*
X106355433Y-94589690D01*
X106355433Y-94589690D02*
X106355433Y-94732547D01*
X106355433Y-94732547D02*
X106307814Y-94923023D01*
X106307814Y-94923023D02*
X106260195Y-95018261D01*
X106260195Y-95018261D02*
X106164957Y-95113500D01*
X106164957Y-95113500D02*
X106022100Y-95161119D01*
X106022100Y-95161119D02*
X105784005Y-95161119D01*
X106736386Y-94256357D02*
X106784005Y-94208738D01*
X106784005Y-94208738D02*
X106879243Y-94161119D01*
X106879243Y-94161119D02*
X107117338Y-94161119D01*
X107117338Y-94161119D02*
X107212576Y-94208738D01*
X107212576Y-94208738D02*
X107260195Y-94256357D01*
X107260195Y-94256357D02*
X107307814Y-94351595D01*
X107307814Y-94351595D02*
X107307814Y-94446833D01*
X107307814Y-94446833D02*
X107260195Y-94589690D01*
X107260195Y-94589690D02*
X106688767Y-95161119D01*
X106688767Y-95161119D02*
X107307814Y-95161119D01*
X126413805Y-103573419D02*
X126413805Y-102573419D01*
X126413805Y-102573419D02*
X126651900Y-102573419D01*
X126651900Y-102573419D02*
X126794757Y-102621038D01*
X126794757Y-102621038D02*
X126889995Y-102716276D01*
X126889995Y-102716276D02*
X126937614Y-102811514D01*
X126937614Y-102811514D02*
X126985233Y-103001990D01*
X126985233Y-103001990D02*
X126985233Y-103144847D01*
X126985233Y-103144847D02*
X126937614Y-103335323D01*
X126937614Y-103335323D02*
X126889995Y-103430561D01*
X126889995Y-103430561D02*
X126794757Y-103525800D01*
X126794757Y-103525800D02*
X126651900Y-103573419D01*
X126651900Y-103573419D02*
X126413805Y-103573419D01*
X127937614Y-103573419D02*
X127366186Y-103573419D01*
X127651900Y-103573419D02*
X127651900Y-102573419D01*
X127651900Y-102573419D02*
X127556662Y-102716276D01*
X127556662Y-102716276D02*
X127461424Y-102811514D01*
X127461424Y-102811514D02*
X127366186Y-102859133D01*
X105949904Y-107909638D02*
X105854666Y-107862019D01*
X105854666Y-107862019D02*
X105711809Y-107862019D01*
X105711809Y-107862019D02*
X105568952Y-107909638D01*
X105568952Y-107909638D02*
X105473714Y-108004876D01*
X105473714Y-108004876D02*
X105426095Y-108100114D01*
X105426095Y-108100114D02*
X105378476Y-108290590D01*
X105378476Y-108290590D02*
X105378476Y-108433447D01*
X105378476Y-108433447D02*
X105426095Y-108623923D01*
X105426095Y-108623923D02*
X105473714Y-108719161D01*
X105473714Y-108719161D02*
X105568952Y-108814400D01*
X105568952Y-108814400D02*
X105711809Y-108862019D01*
X105711809Y-108862019D02*
X105807047Y-108862019D01*
X105807047Y-108862019D02*
X105949904Y-108814400D01*
X105949904Y-108814400D02*
X105997523Y-108766780D01*
X105997523Y-108766780D02*
X105997523Y-108433447D01*
X105997523Y-108433447D02*
X105807047Y-108433447D01*
X106426095Y-108862019D02*
X106426095Y-107862019D01*
X106426095Y-107862019D02*
X106997523Y-108862019D01*
X106997523Y-108862019D02*
X106997523Y-107862019D01*
X107473714Y-108862019D02*
X107473714Y-107862019D01*
X107473714Y-107862019D02*
X107711809Y-107862019D01*
X107711809Y-107862019D02*
X107854666Y-107909638D01*
X107854666Y-107909638D02*
X107949904Y-108004876D01*
X107949904Y-108004876D02*
X107997523Y-108100114D01*
X107997523Y-108100114D02*
X108045142Y-108290590D01*
X108045142Y-108290590D02*
X108045142Y-108433447D01*
X108045142Y-108433447D02*
X107997523Y-108623923D01*
X107997523Y-108623923D02*
X107949904Y-108719161D01*
X107949904Y-108719161D02*
X107854666Y-108814400D01*
X107854666Y-108814400D02*
X107711809Y-108862019D01*
X107711809Y-108862019D02*
X107473714Y-108862019D01*
X108997523Y-108862019D02*
X108426095Y-108862019D01*
X108711809Y-108862019D02*
X108711809Y-107862019D01*
X108711809Y-107862019D02*
X108616571Y-108004876D01*
X108616571Y-108004876D02*
X108521333Y-108100114D01*
X108521333Y-108100114D02*
X108426095Y-108147733D01*
X120635733Y-109940180D02*
X120588114Y-109987800D01*
X120588114Y-109987800D02*
X120445257Y-110035419D01*
X120445257Y-110035419D02*
X120350019Y-110035419D01*
X120350019Y-110035419D02*
X120207162Y-109987800D01*
X120207162Y-109987800D02*
X120111924Y-109892561D01*
X120111924Y-109892561D02*
X120064305Y-109797323D01*
X120064305Y-109797323D02*
X120016686Y-109606847D01*
X120016686Y-109606847D02*
X120016686Y-109463990D01*
X120016686Y-109463990D02*
X120064305Y-109273514D01*
X120064305Y-109273514D02*
X120111924Y-109178276D01*
X120111924Y-109178276D02*
X120207162Y-109083038D01*
X120207162Y-109083038D02*
X120350019Y-109035419D01*
X120350019Y-109035419D02*
X120445257Y-109035419D01*
X120445257Y-109035419D02*
X120588114Y-109083038D01*
X120588114Y-109083038D02*
X120635733Y-109130657D01*
X121540495Y-109035419D02*
X121064305Y-109035419D01*
X121064305Y-109035419D02*
X121016686Y-109511609D01*
X121016686Y-109511609D02*
X121064305Y-109463990D01*
X121064305Y-109463990D02*
X121159543Y-109416371D01*
X121159543Y-109416371D02*
X121397638Y-109416371D01*
X121397638Y-109416371D02*
X121492876Y-109463990D01*
X121492876Y-109463990D02*
X121540495Y-109511609D01*
X121540495Y-109511609D02*
X121588114Y-109606847D01*
X121588114Y-109606847D02*
X121588114Y-109844942D01*
X121588114Y-109844942D02*
X121540495Y-109940180D01*
X121540495Y-109940180D02*
X121492876Y-109987800D01*
X121492876Y-109987800D02*
X121397638Y-110035419D01*
X121397638Y-110035419D02*
X121159543Y-110035419D01*
X121159543Y-110035419D02*
X121064305Y-109987800D01*
X121064305Y-109987800D02*
X121016686Y-109940180D01*
X79312166Y-96481519D02*
X79312166Y-97195804D01*
X79312166Y-97195804D02*
X79264547Y-97338661D01*
X79264547Y-97338661D02*
X79169309Y-97433900D01*
X79169309Y-97433900D02*
X79026452Y-97481519D01*
X79026452Y-97481519D02*
X78931214Y-97481519D01*
X80312166Y-97481519D02*
X79740738Y-97481519D01*
X80026452Y-97481519D02*
X80026452Y-96481519D01*
X80026452Y-96481519D02*
X79931214Y-96624376D01*
X79931214Y-96624376D02*
X79835976Y-96719614D01*
X79835976Y-96719614D02*
X79740738Y-96767233D01*
X126158666Y-97346419D02*
X126158666Y-98060704D01*
X126158666Y-98060704D02*
X126111047Y-98203561D01*
X126111047Y-98203561D02*
X126015809Y-98298800D01*
X126015809Y-98298800D02*
X125872952Y-98346419D01*
X125872952Y-98346419D02*
X125777714Y-98346419D01*
X126587238Y-97441657D02*
X126634857Y-97394038D01*
X126634857Y-97394038D02*
X126730095Y-97346419D01*
X126730095Y-97346419D02*
X126968190Y-97346419D01*
X126968190Y-97346419D02*
X127063428Y-97394038D01*
X127063428Y-97394038D02*
X127111047Y-97441657D01*
X127111047Y-97441657D02*
X127158666Y-97536895D01*
X127158666Y-97536895D02*
X127158666Y-97632133D01*
X127158666Y-97632133D02*
X127111047Y-97774990D01*
X127111047Y-97774990D02*
X126539619Y-98346419D01*
X126539619Y-98346419D02*
X127158666Y-98346419D01*
X123169880Y-92115966D02*
X123217500Y-92163585D01*
X123217500Y-92163585D02*
X123265119Y-92306442D01*
X123265119Y-92306442D02*
X123265119Y-92401680D01*
X123265119Y-92401680D02*
X123217500Y-92544537D01*
X123217500Y-92544537D02*
X123122261Y-92639775D01*
X123122261Y-92639775D02*
X123027023Y-92687394D01*
X123027023Y-92687394D02*
X122836547Y-92735013D01*
X122836547Y-92735013D02*
X122693690Y-92735013D01*
X122693690Y-92735013D02*
X122503214Y-92687394D01*
X122503214Y-92687394D02*
X122407976Y-92639775D01*
X122407976Y-92639775D02*
X122312738Y-92544537D01*
X122312738Y-92544537D02*
X122265119Y-92401680D01*
X122265119Y-92401680D02*
X122265119Y-92306442D01*
X122265119Y-92306442D02*
X122312738Y-92163585D01*
X122312738Y-92163585D02*
X122360357Y-92115966D01*
X122265119Y-91782632D02*
X122265119Y-91163585D01*
X122265119Y-91163585D02*
X122646071Y-91496918D01*
X122646071Y-91496918D02*
X122646071Y-91354061D01*
X122646071Y-91354061D02*
X122693690Y-91258823D01*
X122693690Y-91258823D02*
X122741309Y-91211204D01*
X122741309Y-91211204D02*
X122836547Y-91163585D01*
X122836547Y-91163585D02*
X123074642Y-91163585D01*
X123074642Y-91163585D02*
X123169880Y-91211204D01*
X123169880Y-91211204D02*
X123217500Y-91258823D01*
X123217500Y-91258823D02*
X123265119Y-91354061D01*
X123265119Y-91354061D02*
X123265119Y-91639775D01*
X123265119Y-91639775D02*
X123217500Y-91735013D01*
X123217500Y-91735013D02*
X123169880Y-91782632D01*
X114221030Y-110643216D02*
X114268650Y-110690835D01*
X114268650Y-110690835D02*
X114316269Y-110833692D01*
X114316269Y-110833692D02*
X114316269Y-110928930D01*
X114316269Y-110928930D02*
X114268650Y-111071787D01*
X114268650Y-111071787D02*
X114173411Y-111167025D01*
X114173411Y-111167025D02*
X114078173Y-111214644D01*
X114078173Y-111214644D02*
X113887697Y-111262263D01*
X113887697Y-111262263D02*
X113744840Y-111262263D01*
X113744840Y-111262263D02*
X113554364Y-111214644D01*
X113554364Y-111214644D02*
X113459126Y-111167025D01*
X113459126Y-111167025D02*
X113363888Y-111071787D01*
X113363888Y-111071787D02*
X113316269Y-110928930D01*
X113316269Y-110928930D02*
X113316269Y-110833692D01*
X113316269Y-110833692D02*
X113363888Y-110690835D01*
X113363888Y-110690835D02*
X113411507Y-110643216D01*
X113649602Y-109786073D02*
X114316269Y-109786073D01*
X113268650Y-110024168D02*
X113982935Y-110262263D01*
X113982935Y-110262263D02*
X113982935Y-109643216D01*
X114584005Y-118161119D02*
X115203052Y-118161119D01*
X115203052Y-118161119D02*
X114869719Y-118542071D01*
X114869719Y-118542071D02*
X115012576Y-118542071D01*
X115012576Y-118542071D02*
X115107814Y-118589690D01*
X115107814Y-118589690D02*
X115155433Y-118637309D01*
X115155433Y-118637309D02*
X115203052Y-118732547D01*
X115203052Y-118732547D02*
X115203052Y-118970642D01*
X115203052Y-118970642D02*
X115155433Y-119065880D01*
X115155433Y-119065880D02*
X115107814Y-119113500D01*
X115107814Y-119113500D02*
X115012576Y-119161119D01*
X115012576Y-119161119D02*
X114726862Y-119161119D01*
X114726862Y-119161119D02*
X114631624Y-119113500D01*
X114631624Y-119113500D02*
X114584005Y-119065880D01*
X115488767Y-118161119D02*
X115822100Y-119161119D01*
X115822100Y-119161119D02*
X116155433Y-118161119D01*
X116393529Y-118161119D02*
X117012576Y-118161119D01*
X117012576Y-118161119D02*
X116679243Y-118542071D01*
X116679243Y-118542071D02*
X116822100Y-118542071D01*
X116822100Y-118542071D02*
X116917338Y-118589690D01*
X116917338Y-118589690D02*
X116964957Y-118637309D01*
X116964957Y-118637309D02*
X117012576Y-118732547D01*
X117012576Y-118732547D02*
X117012576Y-118970642D01*
X117012576Y-118970642D02*
X116964957Y-119065880D01*
X116964957Y-119065880D02*
X116917338Y-119113500D01*
X116917338Y-119113500D02*
X116822100Y-119161119D01*
X116822100Y-119161119D02*
X116536386Y-119161119D01*
X116536386Y-119161119D02*
X116441148Y-119113500D01*
X116441148Y-119113500D02*
X116393529Y-119065880D01*
X98207533Y-88243580D02*
X98159914Y-88291200D01*
X98159914Y-88291200D02*
X98017057Y-88338819D01*
X98017057Y-88338819D02*
X97921819Y-88338819D01*
X97921819Y-88338819D02*
X97778962Y-88291200D01*
X97778962Y-88291200D02*
X97683724Y-88195961D01*
X97683724Y-88195961D02*
X97636105Y-88100723D01*
X97636105Y-88100723D02*
X97588486Y-87910247D01*
X97588486Y-87910247D02*
X97588486Y-87767390D01*
X97588486Y-87767390D02*
X97636105Y-87576914D01*
X97636105Y-87576914D02*
X97683724Y-87481676D01*
X97683724Y-87481676D02*
X97778962Y-87386438D01*
X97778962Y-87386438D02*
X97921819Y-87338819D01*
X97921819Y-87338819D02*
X98017057Y-87338819D01*
X98017057Y-87338819D02*
X98159914Y-87386438D01*
X98159914Y-87386438D02*
X98207533Y-87434057D01*
X99159914Y-88338819D02*
X98588486Y-88338819D01*
X98874200Y-88338819D02*
X98874200Y-87338819D01*
X98874200Y-87338819D02*
X98778962Y-87481676D01*
X98778962Y-87481676D02*
X98683724Y-87576914D01*
X98683724Y-87576914D02*
X98588486Y-87624533D01*
X123632933Y-110900380D02*
X123585314Y-110948000D01*
X123585314Y-110948000D02*
X123442457Y-110995619D01*
X123442457Y-110995619D02*
X123347219Y-110995619D01*
X123347219Y-110995619D02*
X123204362Y-110948000D01*
X123204362Y-110948000D02*
X123109124Y-110852761D01*
X123109124Y-110852761D02*
X123061505Y-110757523D01*
X123061505Y-110757523D02*
X123013886Y-110567047D01*
X123013886Y-110567047D02*
X123013886Y-110424190D01*
X123013886Y-110424190D02*
X123061505Y-110233714D01*
X123061505Y-110233714D02*
X123109124Y-110138476D01*
X123109124Y-110138476D02*
X123204362Y-110043238D01*
X123204362Y-110043238D02*
X123347219Y-109995619D01*
X123347219Y-109995619D02*
X123442457Y-109995619D01*
X123442457Y-109995619D02*
X123585314Y-110043238D01*
X123585314Y-110043238D02*
X123632933Y-110090857D01*
X124204362Y-110424190D02*
X124109124Y-110376571D01*
X124109124Y-110376571D02*
X124061505Y-110328952D01*
X124061505Y-110328952D02*
X124013886Y-110233714D01*
X124013886Y-110233714D02*
X124013886Y-110186095D01*
X124013886Y-110186095D02*
X124061505Y-110090857D01*
X124061505Y-110090857D02*
X124109124Y-110043238D01*
X124109124Y-110043238D02*
X124204362Y-109995619D01*
X124204362Y-109995619D02*
X124394838Y-109995619D01*
X124394838Y-109995619D02*
X124490076Y-110043238D01*
X124490076Y-110043238D02*
X124537695Y-110090857D01*
X124537695Y-110090857D02*
X124585314Y-110186095D01*
X124585314Y-110186095D02*
X124585314Y-110233714D01*
X124585314Y-110233714D02*
X124537695Y-110328952D01*
X124537695Y-110328952D02*
X124490076Y-110376571D01*
X124490076Y-110376571D02*
X124394838Y-110424190D01*
X124394838Y-110424190D02*
X124204362Y-110424190D01*
X124204362Y-110424190D02*
X124109124Y-110471809D01*
X124109124Y-110471809D02*
X124061505Y-110519428D01*
X124061505Y-110519428D02*
X124013886Y-110614666D01*
X124013886Y-110614666D02*
X124013886Y-110805142D01*
X124013886Y-110805142D02*
X124061505Y-110900380D01*
X124061505Y-110900380D02*
X124109124Y-110948000D01*
X124109124Y-110948000D02*
X124204362Y-110995619D01*
X124204362Y-110995619D02*
X124394838Y-110995619D01*
X124394838Y-110995619D02*
X124490076Y-110948000D01*
X124490076Y-110948000D02*
X124537695Y-110900380D01*
X124537695Y-110900380D02*
X124585314Y-110805142D01*
X124585314Y-110805142D02*
X124585314Y-110614666D01*
X124585314Y-110614666D02*
X124537695Y-110519428D01*
X124537695Y-110519428D02*
X124490076Y-110471809D01*
X124490076Y-110471809D02*
X124394838Y-110424190D01*
X113492261Y-99888157D02*
X113397023Y-99840538D01*
X113397023Y-99840538D02*
X113301785Y-99745300D01*
X113301785Y-99745300D02*
X113158928Y-99602442D01*
X113158928Y-99602442D02*
X113063690Y-99554823D01*
X113063690Y-99554823D02*
X112968452Y-99554823D01*
X113016071Y-99792919D02*
X112920833Y-99745300D01*
X112920833Y-99745300D02*
X112825595Y-99650061D01*
X112825595Y-99650061D02*
X112777976Y-99459585D01*
X112777976Y-99459585D02*
X112777976Y-99126252D01*
X112777976Y-99126252D02*
X112825595Y-98935776D01*
X112825595Y-98935776D02*
X112920833Y-98840538D01*
X112920833Y-98840538D02*
X113016071Y-98792919D01*
X113016071Y-98792919D02*
X113206547Y-98792919D01*
X113206547Y-98792919D02*
X113301785Y-98840538D01*
X113301785Y-98840538D02*
X113397023Y-98935776D01*
X113397023Y-98935776D02*
X113444642Y-99126252D01*
X113444642Y-99126252D02*
X113444642Y-99459585D01*
X113444642Y-99459585D02*
X113397023Y-99650061D01*
X113397023Y-99650061D02*
X113301785Y-99745300D01*
X113301785Y-99745300D02*
X113206547Y-99792919D01*
X113206547Y-99792919D02*
X113016071Y-99792919D01*
X113825595Y-98888157D02*
X113873214Y-98840538D01*
X113873214Y-98840538D02*
X113968452Y-98792919D01*
X113968452Y-98792919D02*
X114206547Y-98792919D01*
X114206547Y-98792919D02*
X114301785Y-98840538D01*
X114301785Y-98840538D02*
X114349404Y-98888157D01*
X114349404Y-98888157D02*
X114397023Y-98983395D01*
X114397023Y-98983395D02*
X114397023Y-99078633D01*
X114397023Y-99078633D02*
X114349404Y-99221490D01*
X114349404Y-99221490D02*
X113777976Y-99792919D01*
X113777976Y-99792919D02*
X114397023Y-99792919D01*
X123442919Y-97983366D02*
X122966728Y-98316699D01*
X123442919Y-98554794D02*
X122442919Y-98554794D01*
X122442919Y-98554794D02*
X122442919Y-98173842D01*
X122442919Y-98173842D02*
X122490538Y-98078604D01*
X122490538Y-98078604D02*
X122538157Y-98030985D01*
X122538157Y-98030985D02*
X122633395Y-97983366D01*
X122633395Y-97983366D02*
X122776252Y-97983366D01*
X122776252Y-97983366D02*
X122871490Y-98030985D01*
X122871490Y-98030985D02*
X122919109Y-98078604D01*
X122919109Y-98078604D02*
X122966728Y-98173842D01*
X122966728Y-98173842D02*
X122966728Y-98554794D01*
X122538157Y-97602413D02*
X122490538Y-97554794D01*
X122490538Y-97554794D02*
X122442919Y-97459556D01*
X122442919Y-97459556D02*
X122442919Y-97221461D01*
X122442919Y-97221461D02*
X122490538Y-97126223D01*
X122490538Y-97126223D02*
X122538157Y-97078604D01*
X122538157Y-97078604D02*
X122633395Y-97030985D01*
X122633395Y-97030985D02*
X122728633Y-97030985D01*
X122728633Y-97030985D02*
X122871490Y-97078604D01*
X122871490Y-97078604D02*
X123442919Y-97650032D01*
X123442919Y-97650032D02*
X123442919Y-97030985D01*
X108755433Y-95961119D02*
X108422100Y-95484928D01*
X108184005Y-95961119D02*
X108184005Y-94961119D01*
X108184005Y-94961119D02*
X108564957Y-94961119D01*
X108564957Y-94961119D02*
X108660195Y-95008738D01*
X108660195Y-95008738D02*
X108707814Y-95056357D01*
X108707814Y-95056357D02*
X108755433Y-95151595D01*
X108755433Y-95151595D02*
X108755433Y-95294452D01*
X108755433Y-95294452D02*
X108707814Y-95389690D01*
X108707814Y-95389690D02*
X108660195Y-95437309D01*
X108660195Y-95437309D02*
X108564957Y-95484928D01*
X108564957Y-95484928D02*
X108184005Y-95484928D01*
X109707814Y-95961119D02*
X109136386Y-95961119D01*
X109422100Y-95961119D02*
X109422100Y-94961119D01*
X109422100Y-94961119D02*
X109326862Y-95103976D01*
X109326862Y-95103976D02*
X109231624Y-95199214D01*
X109231624Y-95199214D02*
X109136386Y-95246833D01*
X120528683Y-112380469D02*
X120195350Y-111904278D01*
X119957255Y-112380469D02*
X119957255Y-111380469D01*
X119957255Y-111380469D02*
X120338207Y-111380469D01*
X120338207Y-111380469D02*
X120433445Y-111428088D01*
X120433445Y-111428088D02*
X120481064Y-111475707D01*
X120481064Y-111475707D02*
X120528683Y-111570945D01*
X120528683Y-111570945D02*
X120528683Y-111713802D01*
X120528683Y-111713802D02*
X120481064Y-111809040D01*
X120481064Y-111809040D02*
X120433445Y-111856659D01*
X120433445Y-111856659D02*
X120338207Y-111904278D01*
X120338207Y-111904278D02*
X119957255Y-111904278D01*
X120862017Y-111380469D02*
X121481064Y-111380469D01*
X121481064Y-111380469D02*
X121147731Y-111761421D01*
X121147731Y-111761421D02*
X121290588Y-111761421D01*
X121290588Y-111761421D02*
X121385826Y-111809040D01*
X121385826Y-111809040D02*
X121433445Y-111856659D01*
X121433445Y-111856659D02*
X121481064Y-111951897D01*
X121481064Y-111951897D02*
X121481064Y-112189992D01*
X121481064Y-112189992D02*
X121433445Y-112285230D01*
X121433445Y-112285230D02*
X121385826Y-112332850D01*
X121385826Y-112332850D02*
X121290588Y-112380469D01*
X121290588Y-112380469D02*
X121004874Y-112380469D01*
X121004874Y-112380469D02*
X120909636Y-112332850D01*
X120909636Y-112332850D02*
X120862017Y-112285230D01*
X104017866Y-86189409D02*
X103684533Y-86189409D01*
X103684533Y-86713219D02*
X103684533Y-85713219D01*
X103684533Y-85713219D02*
X104160723Y-85713219D01*
X104875009Y-86189409D02*
X105017866Y-86237028D01*
X105017866Y-86237028D02*
X105065485Y-86284647D01*
X105065485Y-86284647D02*
X105113104Y-86379885D01*
X105113104Y-86379885D02*
X105113104Y-86522742D01*
X105113104Y-86522742D02*
X105065485Y-86617980D01*
X105065485Y-86617980D02*
X105017866Y-86665600D01*
X105017866Y-86665600D02*
X104922628Y-86713219D01*
X104922628Y-86713219D02*
X104541676Y-86713219D01*
X104541676Y-86713219D02*
X104541676Y-85713219D01*
X104541676Y-85713219D02*
X104875009Y-85713219D01*
X104875009Y-85713219D02*
X104970247Y-85760838D01*
X104970247Y-85760838D02*
X105017866Y-85808457D01*
X105017866Y-85808457D02*
X105065485Y-85903695D01*
X105065485Y-85903695D02*
X105065485Y-85998933D01*
X105065485Y-85998933D02*
X105017866Y-86094171D01*
X105017866Y-86094171D02*
X104970247Y-86141790D01*
X104970247Y-86141790D02*
X104875009Y-86189409D01*
X104875009Y-86189409D02*
X104541676Y-86189409D01*
X106065485Y-86713219D02*
X105494057Y-86713219D01*
X105779771Y-86713219D02*
X105779771Y-85713219D01*
X105779771Y-85713219D02*
X105684533Y-85856076D01*
X105684533Y-85856076D02*
X105589295Y-85951314D01*
X105589295Y-85951314D02*
X105494057Y-85998933D01*
X120184004Y-118208738D02*
X120088766Y-118161119D01*
X120088766Y-118161119D02*
X119945909Y-118161119D01*
X119945909Y-118161119D02*
X119803052Y-118208738D01*
X119803052Y-118208738D02*
X119707814Y-118303976D01*
X119707814Y-118303976D02*
X119660195Y-118399214D01*
X119660195Y-118399214D02*
X119612576Y-118589690D01*
X119612576Y-118589690D02*
X119612576Y-118732547D01*
X119612576Y-118732547D02*
X119660195Y-118923023D01*
X119660195Y-118923023D02*
X119707814Y-119018261D01*
X119707814Y-119018261D02*
X119803052Y-119113500D01*
X119803052Y-119113500D02*
X119945909Y-119161119D01*
X119945909Y-119161119D02*
X120041147Y-119161119D01*
X120041147Y-119161119D02*
X120184004Y-119113500D01*
X120184004Y-119113500D02*
X120231623Y-119065880D01*
X120231623Y-119065880D02*
X120231623Y-118732547D01*
X120231623Y-118732547D02*
X120041147Y-118732547D01*
X120660195Y-119161119D02*
X120660195Y-118161119D01*
X120660195Y-118161119D02*
X121231623Y-119161119D01*
X121231623Y-119161119D02*
X121231623Y-118161119D01*
X121707814Y-119161119D02*
X121707814Y-118161119D01*
X121707814Y-118161119D02*
X121945909Y-118161119D01*
X121945909Y-118161119D02*
X122088766Y-118208738D01*
X122088766Y-118208738D02*
X122184004Y-118303976D01*
X122184004Y-118303976D02*
X122231623Y-118399214D01*
X122231623Y-118399214D02*
X122279242Y-118589690D01*
X122279242Y-118589690D02*
X122279242Y-118732547D01*
X122279242Y-118732547D02*
X122231623Y-118923023D01*
X122231623Y-118923023D02*
X122184004Y-119018261D01*
X122184004Y-119018261D02*
X122088766Y-119113500D01*
X122088766Y-119113500D02*
X121945909Y-119161119D01*
X121945909Y-119161119D02*
X121707814Y-119161119D01*
X122660195Y-118256357D02*
X122707814Y-118208738D01*
X122707814Y-118208738D02*
X122803052Y-118161119D01*
X122803052Y-118161119D02*
X123041147Y-118161119D01*
X123041147Y-118161119D02*
X123136385Y-118208738D01*
X123136385Y-118208738D02*
X123184004Y-118256357D01*
X123184004Y-118256357D02*
X123231623Y-118351595D01*
X123231623Y-118351595D02*
X123231623Y-118446833D01*
X123231623Y-118446833D02*
X123184004Y-118589690D01*
X123184004Y-118589690D02*
X122612576Y-119161119D01*
X122612576Y-119161119D02*
X123231623Y-119161119D01*
X118883133Y-97743180D02*
X118835514Y-97790800D01*
X118835514Y-97790800D02*
X118692657Y-97838419D01*
X118692657Y-97838419D02*
X118597419Y-97838419D01*
X118597419Y-97838419D02*
X118454562Y-97790800D01*
X118454562Y-97790800D02*
X118359324Y-97695561D01*
X118359324Y-97695561D02*
X118311705Y-97600323D01*
X118311705Y-97600323D02*
X118264086Y-97409847D01*
X118264086Y-97409847D02*
X118264086Y-97266990D01*
X118264086Y-97266990D02*
X118311705Y-97076514D01*
X118311705Y-97076514D02*
X118359324Y-96981276D01*
X118359324Y-96981276D02*
X118454562Y-96886038D01*
X118454562Y-96886038D02*
X118597419Y-96838419D01*
X118597419Y-96838419D02*
X118692657Y-96838419D01*
X118692657Y-96838419D02*
X118835514Y-96886038D01*
X118835514Y-96886038D02*
X118883133Y-96933657D01*
X119740276Y-96838419D02*
X119549800Y-96838419D01*
X119549800Y-96838419D02*
X119454562Y-96886038D01*
X119454562Y-96886038D02*
X119406943Y-96933657D01*
X119406943Y-96933657D02*
X119311705Y-97076514D01*
X119311705Y-97076514D02*
X119264086Y-97266990D01*
X119264086Y-97266990D02*
X119264086Y-97647942D01*
X119264086Y-97647942D02*
X119311705Y-97743180D01*
X119311705Y-97743180D02*
X119359324Y-97790800D01*
X119359324Y-97790800D02*
X119454562Y-97838419D01*
X119454562Y-97838419D02*
X119645038Y-97838419D01*
X119645038Y-97838419D02*
X119740276Y-97790800D01*
X119740276Y-97790800D02*
X119787895Y-97743180D01*
X119787895Y-97743180D02*
X119835514Y-97647942D01*
X119835514Y-97647942D02*
X119835514Y-97409847D01*
X119835514Y-97409847D02*
X119787895Y-97314609D01*
X119787895Y-97314609D02*
X119740276Y-97266990D01*
X119740276Y-97266990D02*
X119645038Y-97219371D01*
X119645038Y-97219371D02*
X119454562Y-97219371D01*
X119454562Y-97219371D02*
X119359324Y-97266990D01*
X119359324Y-97266990D02*
X119311705Y-97314609D01*
X119311705Y-97314609D02*
X119264086Y-97409847D01*
X126326633Y-92943880D02*
X126279014Y-92991500D01*
X126279014Y-92991500D02*
X126136157Y-93039119D01*
X126136157Y-93039119D02*
X126040919Y-93039119D01*
X126040919Y-93039119D02*
X125898062Y-92991500D01*
X125898062Y-92991500D02*
X125802824Y-92896261D01*
X125802824Y-92896261D02*
X125755205Y-92801023D01*
X125755205Y-92801023D02*
X125707586Y-92610547D01*
X125707586Y-92610547D02*
X125707586Y-92467690D01*
X125707586Y-92467690D02*
X125755205Y-92277214D01*
X125755205Y-92277214D02*
X125802824Y-92181976D01*
X125802824Y-92181976D02*
X125898062Y-92086738D01*
X125898062Y-92086738D02*
X126040919Y-92039119D01*
X126040919Y-92039119D02*
X126136157Y-92039119D01*
X126136157Y-92039119D02*
X126279014Y-92086738D01*
X126279014Y-92086738D02*
X126326633Y-92134357D01*
X126659967Y-92039119D02*
X127326633Y-92039119D01*
X127326633Y-92039119D02*
X126898062Y-93039119D01*
X116045945Y-99441169D02*
X116045945Y-100250692D01*
X116045945Y-100250692D02*
X116093564Y-100345930D01*
X116093564Y-100345930D02*
X116141183Y-100393550D01*
X116141183Y-100393550D02*
X116236421Y-100441169D01*
X116236421Y-100441169D02*
X116426897Y-100441169D01*
X116426897Y-100441169D02*
X116522135Y-100393550D01*
X116522135Y-100393550D02*
X116569754Y-100345930D01*
X116569754Y-100345930D02*
X116617373Y-100250692D01*
X116617373Y-100250692D02*
X116617373Y-99441169D01*
X117045945Y-99536407D02*
X117093564Y-99488788D01*
X117093564Y-99488788D02*
X117188802Y-99441169D01*
X117188802Y-99441169D02*
X117426897Y-99441169D01*
X117426897Y-99441169D02*
X117522135Y-99488788D01*
X117522135Y-99488788D02*
X117569754Y-99536407D01*
X117569754Y-99536407D02*
X117617373Y-99631645D01*
X117617373Y-99631645D02*
X117617373Y-99726883D01*
X117617373Y-99726883D02*
X117569754Y-99869740D01*
X117569754Y-99869740D02*
X116998326Y-100441169D01*
X116998326Y-100441169D02*
X117617373Y-100441169D01*
X100534885Y-107906409D02*
X100677742Y-107954028D01*
X100677742Y-107954028D02*
X100725361Y-108001647D01*
X100725361Y-108001647D02*
X100772980Y-108096885D01*
X100772980Y-108096885D02*
X100772980Y-108239742D01*
X100772980Y-108239742D02*
X100725361Y-108334980D01*
X100725361Y-108334980D02*
X100677742Y-108382600D01*
X100677742Y-108382600D02*
X100582504Y-108430219D01*
X100582504Y-108430219D02*
X100201552Y-108430219D01*
X100201552Y-108430219D02*
X100201552Y-107430219D01*
X100201552Y-107430219D02*
X100534885Y-107430219D01*
X100534885Y-107430219D02*
X100630123Y-107477838D01*
X100630123Y-107477838D02*
X100677742Y-107525457D01*
X100677742Y-107525457D02*
X100725361Y-107620695D01*
X100725361Y-107620695D02*
X100725361Y-107715933D01*
X100725361Y-107715933D02*
X100677742Y-107811171D01*
X100677742Y-107811171D02*
X100630123Y-107858790D01*
X100630123Y-107858790D02*
X100534885Y-107906409D01*
X100534885Y-107906409D02*
X100201552Y-107906409D01*
X101058695Y-107430219D02*
X101630123Y-107430219D01*
X101344409Y-108430219D02*
X101344409Y-107430219D01*
X102487266Y-108430219D02*
X101915838Y-108430219D01*
X102201552Y-108430219D02*
X102201552Y-107430219D01*
X102201552Y-107430219D02*
X102106314Y-107573076D01*
X102106314Y-107573076D02*
X102011076Y-107668314D01*
X102011076Y-107668314D02*
X101915838Y-107715933D01*
X97041172Y-112255701D02*
X98184030Y-112255701D01*
X97612601Y-112827129D02*
X97612601Y-111684272D01*
X109643933Y-118161119D02*
X109167743Y-118161119D01*
X109167743Y-118161119D02*
X109120124Y-118637309D01*
X109120124Y-118637309D02*
X109167743Y-118589690D01*
X109167743Y-118589690D02*
X109262981Y-118542071D01*
X109262981Y-118542071D02*
X109501076Y-118542071D01*
X109501076Y-118542071D02*
X109596314Y-118589690D01*
X109596314Y-118589690D02*
X109643933Y-118637309D01*
X109643933Y-118637309D02*
X109691552Y-118732547D01*
X109691552Y-118732547D02*
X109691552Y-118970642D01*
X109691552Y-118970642D02*
X109643933Y-119065880D01*
X109643933Y-119065880D02*
X109596314Y-119113500D01*
X109596314Y-119113500D02*
X109501076Y-119161119D01*
X109501076Y-119161119D02*
X109262981Y-119161119D01*
X109262981Y-119161119D02*
X109167743Y-119113500D01*
X109167743Y-119113500D02*
X109120124Y-119065880D01*
X109977267Y-118161119D02*
X110310600Y-119161119D01*
X110310600Y-119161119D02*
X110643933Y-118161119D01*
X111501076Y-119161119D02*
X110929648Y-119161119D01*
X111215362Y-119161119D02*
X111215362Y-118161119D01*
X111215362Y-118161119D02*
X111120124Y-118303976D01*
X111120124Y-118303976D02*
X111024886Y-118399214D01*
X111024886Y-118399214D02*
X110929648Y-118446833D01*
X123188919Y-88610766D02*
X122712728Y-88944099D01*
X123188919Y-89182194D02*
X122188919Y-89182194D01*
X122188919Y-89182194D02*
X122188919Y-88801242D01*
X122188919Y-88801242D02*
X122236538Y-88706004D01*
X122236538Y-88706004D02*
X122284157Y-88658385D01*
X122284157Y-88658385D02*
X122379395Y-88610766D01*
X122379395Y-88610766D02*
X122522252Y-88610766D01*
X122522252Y-88610766D02*
X122617490Y-88658385D01*
X122617490Y-88658385D02*
X122665109Y-88706004D01*
X122665109Y-88706004D02*
X122712728Y-88801242D01*
X122712728Y-88801242D02*
X122712728Y-89182194D01*
X122522252Y-87753623D02*
X123188919Y-87753623D01*
X122141300Y-87991718D02*
X122855585Y-88229813D01*
X122855585Y-88229813D02*
X122855585Y-87610766D01*
X128571666Y-115614019D02*
X128571666Y-116328304D01*
X128571666Y-116328304D02*
X128524047Y-116471161D01*
X128524047Y-116471161D02*
X128428809Y-116566400D01*
X128428809Y-116566400D02*
X128285952Y-116614019D01*
X128285952Y-116614019D02*
X128190714Y-116614019D01*
X128952619Y-115614019D02*
X129571666Y-115614019D01*
X129571666Y-115614019D02*
X129238333Y-115994971D01*
X129238333Y-115994971D02*
X129381190Y-115994971D01*
X129381190Y-115994971D02*
X129476428Y-116042590D01*
X129476428Y-116042590D02*
X129524047Y-116090209D01*
X129524047Y-116090209D02*
X129571666Y-116185447D01*
X129571666Y-116185447D02*
X129571666Y-116423542D01*
X129571666Y-116423542D02*
X129524047Y-116518780D01*
X129524047Y-116518780D02*
X129476428Y-116566400D01*
X129476428Y-116566400D02*
X129381190Y-116614019D01*
X129381190Y-116614019D02*
X129095476Y-116614019D01*
X129095476Y-116614019D02*
X129000238Y-116566400D01*
X129000238Y-116566400D02*
X128952619Y-116518780D01*
X109104133Y-86592580D02*
X109056514Y-86640200D01*
X109056514Y-86640200D02*
X108913657Y-86687819D01*
X108913657Y-86687819D02*
X108818419Y-86687819D01*
X108818419Y-86687819D02*
X108675562Y-86640200D01*
X108675562Y-86640200D02*
X108580324Y-86544961D01*
X108580324Y-86544961D02*
X108532705Y-86449723D01*
X108532705Y-86449723D02*
X108485086Y-86259247D01*
X108485086Y-86259247D02*
X108485086Y-86116390D01*
X108485086Y-86116390D02*
X108532705Y-85925914D01*
X108532705Y-85925914D02*
X108580324Y-85830676D01*
X108580324Y-85830676D02*
X108675562Y-85735438D01*
X108675562Y-85735438D02*
X108818419Y-85687819D01*
X108818419Y-85687819D02*
X108913657Y-85687819D01*
X108913657Y-85687819D02*
X109056514Y-85735438D01*
X109056514Y-85735438D02*
X109104133Y-85783057D01*
X109485086Y-85783057D02*
X109532705Y-85735438D01*
X109532705Y-85735438D02*
X109627943Y-85687819D01*
X109627943Y-85687819D02*
X109866038Y-85687819D01*
X109866038Y-85687819D02*
X109961276Y-85735438D01*
X109961276Y-85735438D02*
X110008895Y-85783057D01*
X110008895Y-85783057D02*
X110056514Y-85878295D01*
X110056514Y-85878295D02*
X110056514Y-85973533D01*
X110056514Y-85973533D02*
X110008895Y-86116390D01*
X110008895Y-86116390D02*
X109437467Y-86687819D01*
X109437467Y-86687819D02*
X110056514Y-86687819D01*
X111681095Y-85789419D02*
X111681095Y-86598942D01*
X111681095Y-86598942D02*
X111728714Y-86694180D01*
X111728714Y-86694180D02*
X111776333Y-86741800D01*
X111776333Y-86741800D02*
X111871571Y-86789419D01*
X111871571Y-86789419D02*
X112062047Y-86789419D01*
X112062047Y-86789419D02*
X112157285Y-86741800D01*
X112157285Y-86741800D02*
X112204904Y-86694180D01*
X112204904Y-86694180D02*
X112252523Y-86598942D01*
X112252523Y-86598942D02*
X112252523Y-85789419D01*
X113252523Y-86789419D02*
X112681095Y-86789419D01*
X112966809Y-86789419D02*
X112966809Y-85789419D01*
X112966809Y-85789419D02*
X112871571Y-85932276D01*
X112871571Y-85932276D02*
X112776333Y-86027514D01*
X112776333Y-86027514D02*
X112681095Y-86075133D01*
D13*
%TO.C,D4*%
X105432100Y-90806300D02*
X101422100Y-90806300D01*
X105432100Y-92806300D02*
X101422100Y-92806300D01*
X105432100Y-92806300D02*
X105432100Y-90806300D01*
%TO.C,D2*%
X105432100Y-93606300D02*
X101422100Y-93606300D01*
X105432100Y-95606300D02*
X101422100Y-95606300D01*
X105432100Y-95606300D02*
X105432100Y-93606300D01*
%TO.C,D1*%
X126362100Y-103871300D02*
X126362100Y-106141300D01*
X126362100Y-106141300D02*
X130422100Y-106141300D01*
X130422100Y-103871300D02*
X126362100Y-103871300D01*
%TO.C,GND1*%
X107219600Y-110566200D02*
G75*
G03*
X104819600Y-110566200I-1200000J0D01*
G01*
X104819600Y-110566200D02*
G75*
G03*
X107219600Y-110566200I1200000J0D01*
G01*
%TO.C,C5*%
X117587998Y-108852550D02*
X118110502Y-108852550D01*
X117587998Y-110322550D02*
X118110502Y-110322550D01*
%TO.C,J1*%
X88189300Y-86183100D02*
X86889300Y-86183100D01*
X87889300Y-86483100D02*
X87889300Y-88483100D01*
X73389300Y-86483100D02*
X87889300Y-86483100D01*
X88189300Y-87883100D02*
X88189300Y-86183100D01*
X87889300Y-93683100D02*
X87889300Y-95683100D01*
X87889300Y-95683100D02*
X86589300Y-95683100D01*
X81989300Y-95683100D02*
X73389300Y-95683100D01*
X73389300Y-95683100D02*
X73389300Y-86483100D01*
%TO.C,J2*%
X130706500Y-101710800D02*
X129376500Y-101710800D01*
X130706500Y-100380800D02*
X130706500Y-101710800D01*
X130706500Y-99110800D02*
X130706500Y-96510800D01*
X130706500Y-99110800D02*
X128046500Y-99110800D01*
X130706500Y-96510800D02*
X128046500Y-96510800D01*
X128046500Y-99110800D02*
X128046500Y-96510800D01*
%TO.C,SW1*%
X92044600Y-97624800D02*
X95864600Y-97624800D01*
X95864600Y-97624800D02*
X95864600Y-96274800D01*
X92044600Y-96274800D02*
X92044600Y-97624800D01*
X92044600Y-93774800D02*
X92044600Y-94754800D01*
X95864600Y-93774800D02*
X95864600Y-94754800D01*
X92044600Y-91274800D02*
X92044600Y-92254800D01*
X95864600Y-91274800D02*
X95864600Y-92254800D01*
X92044600Y-88404800D02*
X92044600Y-89754800D01*
X92044600Y-88404800D02*
X95864600Y-88404800D01*
X95864600Y-88404800D02*
X95864600Y-89754800D01*
%TO.C,C3*%
X120372200Y-93199852D02*
X120372200Y-92677348D01*
X121842200Y-93199852D02*
X121842200Y-92677348D01*
%TO.C,C4*%
X111348450Y-110610802D02*
X111348450Y-110088298D01*
X112818450Y-110610802D02*
X112818450Y-110088298D01*
%TO.C,3V3*%
X116947800Y-121031000D02*
G75*
G03*
X114547800Y-121031000I-1200000J0D01*
G01*
X114547800Y-121031000D02*
G75*
G03*
X116947800Y-121031000I1200000J0D01*
G01*
%TO.C,C1*%
X100779948Y-87174400D02*
X101302452Y-87174400D01*
X100779948Y-88644400D02*
X101302452Y-88644400D01*
%TO.C,C8*%
X123217000Y-113316652D02*
X123217000Y-112794148D01*
X124687000Y-113316652D02*
X124687000Y-112794148D01*
%TO.C,Q2*%
X112877600Y-95352300D02*
X112227600Y-95352300D01*
X112877600Y-95352300D02*
X113527600Y-95352300D01*
X112877600Y-98472300D02*
X112227600Y-98472300D01*
X112877600Y-98472300D02*
X113527600Y-98472300D01*
X111715100Y-95402300D02*
X111475100Y-95072300D01*
X111955100Y-95072300D01*
X111715100Y-95402300D01*
G36*
X111715100Y-95402300D02*
G01*
X111475100Y-95072300D01*
X111955100Y-95072300D01*
X111715100Y-95402300D01*
G37*
%TO.C,R2*%
X120500500Y-97129364D02*
X120500500Y-96675236D01*
X121970500Y-97129364D02*
X121970500Y-96675236D01*
%TO.C,R1*%
X110031200Y-92457536D02*
X110031200Y-92911664D01*
X108561200Y-92457536D02*
X108561200Y-92911664D01*
%TO.C,R3*%
X117623486Y-111241450D02*
X118077614Y-111241450D01*
X117623486Y-112711450D02*
X118077614Y-112711450D01*
%TO.C,FB1*%
X106316864Y-88971800D02*
X105112736Y-88971800D01*
X106316864Y-87151800D02*
X105112736Y-87151800D01*
%TO.C,GND2*%
X122358000Y-121031000D02*
G75*
G03*
X119958000Y-121031000I-1200000J0D01*
G01*
X119958000Y-121031000D02*
G75*
G03*
X122358000Y-121031000I1200000J0D01*
G01*
%TO.C,C6*%
X117848748Y-94921400D02*
X118371252Y-94921400D01*
X117848748Y-96391400D02*
X118371252Y-96391400D01*
%TO.C,C7*%
X127025100Y-94913848D02*
X127025100Y-95436352D01*
X125555100Y-94913848D02*
X125555100Y-95436352D01*
%TO.C,U2*%
X113459250Y-101185850D02*
X117219250Y-101185850D01*
X113459250Y-108005850D02*
X117219250Y-108005850D01*
X117219250Y-101185850D02*
X117219250Y-102445850D01*
X117219250Y-108005850D02*
X117219250Y-106745850D01*
X112179250Y-101285850D02*
X111939250Y-100955850D01*
X112419250Y-100955850D01*
X112179250Y-101285850D01*
G36*
X112179250Y-101285850D02*
G01*
X111939250Y-100955850D01*
X112419250Y-100955850D01*
X112179250Y-101285850D01*
G37*
%TO.C,BT1*%
X102562601Y-115141001D02*
X96862601Y-115141001D01*
X102562601Y-109141001D02*
X102562601Y-115141001D01*
X102562601Y-109141001D02*
X96862601Y-109141001D01*
X96112601Y-108641001D02*
G75*
G03*
X96862601Y-109141001I750000J312500D01*
G01*
X96862601Y-115141001D02*
G75*
G03*
X96112601Y-115641001I0J-812500D01*
G01*
X73666931Y-112141001D02*
G75*
G03*
X96112600Y-115641001I11495714J-11D01*
G01*
X96112601Y-108641001D02*
G75*
G03*
X73666930Y-112141001I-10949956J-3499989D01*
G01*
%TO.C,5V1*%
X111690000Y-121031000D02*
G75*
G03*
X109290000Y-121031000I-1200000J0D01*
G01*
X109290000Y-121031000D02*
G75*
G03*
X111690000Y-121031000I1200000J0D01*
G01*
%TO.C,R4*%
X121818100Y-88826636D02*
X121818100Y-89280764D01*
X120348100Y-88826636D02*
X120348100Y-89280764D01*
%TO.C,J3*%
X130235000Y-114822200D02*
X128905000Y-114822200D01*
X130235000Y-113492200D02*
X130235000Y-114822200D01*
X130235000Y-112222200D02*
X130235000Y-109622200D01*
X130235000Y-112222200D02*
X127575000Y-112222200D01*
X130235000Y-109622200D02*
X127575000Y-109622200D01*
X127575000Y-112222200D02*
X127575000Y-109622200D01*
%TO.C,C2*%
X110082000Y-88511748D02*
X110082000Y-89034252D01*
X108612000Y-88511748D02*
X108612000Y-89034252D01*
%TO.C,U1*%
X117355900Y-94215000D02*
X113595900Y-94215000D01*
X117355900Y-87395000D02*
X113595900Y-87395000D01*
X113595900Y-94215000D02*
X113595900Y-92955000D01*
X113595900Y-87395000D02*
X113595900Y-88655000D01*
X118898400Y-94255000D02*
X118418400Y-94255000D01*
X118658400Y-93925000D01*
X118898400Y-94255000D01*
G36*
X118898400Y-94255000D02*
G01*
X118418400Y-94255000D01*
X118658400Y-93925000D01*
X118898400Y-94255000D01*
G37*
%TD*%
M02*
